<?xml version="1.0" encoding="UTF-8"?>
<!-- Generator: Adobe Illustrator 23.0.1, SVG Export Plug-In . SVG Version: 6.00 Build 0) -->
<svg xmlns="http://www.w3.org/2000/svg" xmlns:xlink="http://www.w3.org/1999/xlink" id="Слой_1" x="0px" y="0px" viewBox="0 0 2000 1195.3" style="enable-background:new 0 0 2000 1195.3;" xml:space="preserve"> <style type="text/css"> .st0{fill:#F7FAFF;} .st1{fill:none;stroke:#999999;stroke-width:4;stroke-miterlimit:10;} .st2{fill:#40C9DE;stroke:#FFFFFF;stroke-width:4;stroke-miterlimit:10;} .st3{fill:#373737;} .st4{fill:#FFFFFF;} </style> <rect x="1001.1" y="593.9" class="st0" width="480.6" height="278.1"/> <rect x="1481.7" y="593.9" class="st0" width="480.6" height="278.1"/> <rect x="39.7" y="593.9" class="st0" width="480.6" height="278.1"/> <rect x="40" y="594.6" class="st1" width="1920.3" height="556.1"/> <rect x="40" y="37.9" class="st0" width="480.6" height="278.1"/> <rect x="520.6" y="37.9" class="st2" width="480.6" height="278.1"/> <rect x="520.6" y="316" class="st2" width="480.6" height="278.1"/> <rect x="1001.1" y="37.9" class="st0" width="480.6" height="278.1"/> <rect x="1481.7" y="37.9" class="st0" width="480.6" height="278.1"/> <path class="st1" d="M40,315.7h479.9H40z"/> <path class="st1" d="M1001.2,315.7h959.1H1001.2z"/> <path class="st1" d="M1480,594.4v-556V594.4z"/> <rect x="40" y="38.6" class="st1" width="1920.3" height="556.1"/> <rect x="520.6" y="593.9" class="st2" width="480.6" height="278.1"/> <rect x="520.6" y="872" class="st2" width="480.6" height="278.1"/> <path class="st1" d="M40,871.7h479.9H40z"/> <path class="st1" d="M1001.2,871.7h959.1H1001.2z"/> <path class="st1" d="M1480,1150.4v-556V1150.4z"/> <g> <path class="st3" d="M102.6,434.2v47.5h-8.9v-40.4h-9.8v-7.1H102.6z"/> <path class="st3" d="M152.9,439c3.5,3.8,5.3,10.2,5.3,18.9s-1.8,15.1-5.3,18.9c-3.5,3.9-8.7,5.8-15.8,5.8s-12.4-1.9-15.9-5.8 s-5.2-10.2-5.2-18.9s1.7-15,5.2-18.9c3.6-3.9,8.9-5.8,15.9-5.8C144.1,433.2,149.4,435.1,152.9,439z M146.1,471.4 c1.9-2.8,2.9-7.3,2.9-13.5s-1-10.7-2.9-13.5s-4.9-4.2-9.1-4.2s-7.2,1.4-9.1,4.2c-1.9,2.8-2.8,7.3-2.8,13.5s0.9,10.7,2.8,13.5 s5,4.2,9.1,4.2S144.2,474.2,146.1,471.4z"/> <path class="st3" d="M197.5,445.8v35.9h-8.4v-29.2h-11.2v2.4c0,8.4-0.9,14.7-2.7,18.8c-1.7,4.1-4.5,7.2-8.4,9.1l-3.8-5.9 c2.8-1.7,4.8-4.1,5.9-7.1c1.1-3,1.6-8,1.6-15v-8.9L197.5,445.8L197.5,445.8z"/> <path class="st3" d="M241.1,490.2l-0.9,6.6c-7-0.4-11.9-3.1-14.9-8.1s-4.5-13.8-4.6-26.4c0-8.5,0.8-15.2,2.2-20.2s3.5-8.5,6.2-10.7 s6.4-3.4,11.1-3.7l0.9,6.6c-2.7,0.3-4.9,1.1-6.4,2.4c-3.6,3-5.4,11.5-5.4,25.5c0,7.4,0.5,13.2,1.5,17.3s2.3,6.9,3.9,8.2 C236.2,489.1,238.3,489.9,241.1,490.2z"/> <path class="st3" d="M264.7,434.2v47.5h-8.9v-40.4H246v-7.1H264.7z"/> <path class="st3" d="M294.8,434.2v47.5h-8.9v-40.4h-9.8v-7.1H294.8z"/> <path class="st3" d="M308.8,492.2l0.6-19.6h9.6l-3.3,19.6H308.8z"/> <path class="st3" d="M366.4,463.5v7.1h-7v11h-8.9v-11h-24.3v-8.9l22.7-27.6h10.5v29.4H366.4z M333.9,463.5h16.6v-20.8L333.9,463.5z "/> <path class="st3" d="M389,445.8h8.4v35.9H389V445.8z M420.6,445.8l-12.3,16.4l13.8,18.6l-9.4,1.4L399,463l12-17.1h9.6V445.8z"/> <path class="st3" d="M426.9,445.8h23.8v6.6h-15.5v29.2h-8.4v-35.8H426.9z"/> <path class="st3" d="M454,434.3l0.9-6.6c4.7,0.3,8.4,1.5,11.1,3.7s4.8,5.7,6.2,10.7c1.4,5,2.1,11.7,2.2,20.2 c-0.1,12.6-1.6,21.4-4.6,26.4s-7.9,7.8-14.9,8.1l-0.9-6.6c2.7-0.3,4.9-1.1,6.4-2.4c3.6-3,5.4-11.5,5.4-25.5 c0-7.4-0.5-13.2-1.5-17.3c-1-4.1-2.3-6.9-3.9-8.2C458.9,435.4,456.8,434.6,454,434.3z"/> </g> <g> <path class="st3" d="M133,716.3c0,4.1-1.1,7.3-3.2,9.7c-2.1,2.4-6,4.2-12,5.6l-1.2,0.3c-3.7,1-6.3,2.2-7.6,3.7 c-1.2,1.5-1.9,4-1.9,7.5h25.6v7.1h-34v-7.1c0-5,1-8.9,3.1-11.5c2.1-2.7,6-4.8,11.5-6.3l1.2-0.3c3.4-0.8,5.8-1.7,7.2-2.8 c1.3-1.1,2-2.9,2-5.5c0-5.2-3.2-7.8-9.6-7.8c-3.7,0-8,0.8-12.9,2.4l-1.2-7.8c6.1-1.2,11-1.8,14.6-1.8c6.1,0,10.7,1.3,13.8,3.9 C131.5,708.1,133,711.7,133,716.3z"/> <path class="st3" d="M178.6,707.5c3.5,3.8,5.3,10.2,5.3,18.9s-1.8,15.1-5.3,18.9c-3.5,3.9-8.7,5.8-15.8,5.8s-12.4-1.9-15.9-5.8 c-3.5-3.9-5.2-10.2-5.2-18.9s1.7-15,5.2-18.9c3.6-3.9,8.9-5.8,15.9-5.8C169.9,701.7,175.2,703.6,178.6,707.5z M171.8,739.9 c1.9-2.8,2.9-7.3,2.9-13.5s-1-10.7-2.9-13.5s-4.9-4.2-9.1-4.2s-7.2,1.4-9.1,4.2c-1.9,2.8-2.8,7.3-2.8,13.5s0.9,10.7,2.8,13.5 c1.9,2.8,5,4.2,9.1,4.2S170,742.7,171.8,739.9z"/> <path class="st3" d="M223.3,714.4v35.9h-8.4V721h-11.2v2.4c0,8.4-0.9,14.7-2.7,18.8c-1.7,4.1-4.5,7.2-8.4,9.1l-3.8-5.9 c2.8-1.7,4.8-4.1,5.9-7.1c1.1-3,1.6-8,1.6-15v-8.9L223.3,714.4L223.3,714.4z"/> <path class="st3" d="M266.8,758.7l-0.9,6.6c-7-0.4-11.9-3.1-14.9-8.1s-4.5-13.8-4.6-26.4c0-8.5,0.8-15.2,2.2-20.2s3.5-8.5,6.2-10.7 c2.7-2.2,6.4-3.4,11.1-3.7l0.9,6.6c-2.7,0.3-4.9,1.1-6.4,2.4c-3.6,3-5.4,11.5-5.4,25.5c0,7.4,0.5,13.2,1.5,17.3s2.3,6.9,3.9,8.2 C261.9,757.6,264.1,758.4,266.8,758.7z"/> <path class="st3" d="M307.8,716.3c0,4.1-1.1,7.3-3.2,9.7s-6,4.2-12,5.6l-1.2,0.3c-3.7,1-6.3,2.2-7.6,3.7c-1.2,1.5-1.9,4-1.9,7.5 h25.6v7.1h-34v-7.1c0-5,1-8.9,3.1-11.5c2.1-2.7,6-4.8,11.5-6.3l1.2-0.3c3.4-0.8,5.8-1.7,7.2-2.8c1.3-1.1,2-2.9,2-5.5 c0-5.2-3.2-7.8-9.6-7.8c-3.7,0-8,0.8-12.9,2.4l-1.2-7.8c6.1-1.2,11-1.8,14.6-1.8c6.1,0,10.7,1.3,13.8,3.9 C306.3,708.1,307.8,711.7,307.8,716.3z"/> <path class="st3" d="M353.4,732.1v7.1h-7v11h-8.9v-11h-24.3v-8.9l22.7-27.6h10.5v29.4H353.4z M320.8,732.1h16.6v-20.8L320.8,732.1z "/> <path class="st3" d="M375.9,714.4h8.4v35.9h-8.4V714.4z M407.6,714.4l-12.3,16.4l13.8,18.6l-9.4,1.4l-13.8-19.3l12-17.1 L407.6,714.4L407.6,714.4z"/> <path class="st3" d="M413.8,714.4h23.8v6.6h-15.5v29.2h-8.4v-35.8H413.8z"/> <path class="st3" d="M441,702.8l0.9-6.6c4.7,0.3,8.4,1.5,11.1,3.7s4.8,5.7,6.2,10.7c1.4,5,2.1,11.7,2.2,20.2 c-0.1,12.6-1.6,21.4-4.6,26.4s-7.9,7.8-14.9,8.1l-0.9-6.6c2.7-0.3,4.9-1.1,6.4-2.4c3.6-3,5.4-11.5,5.4-25.5 c0-7.4-0.5-13.2-1.5-17.3s-2.3-6.9-3.9-8.2C445.8,704,443.7,703.1,441,702.8z"/> </g> <g> <path class="st3" d="M132.3,1018.6c0,4.4-1.4,7.8-4.3,10.3c-2.8,2.5-7.7,3.7-14.8,3.7c-4.8,0-9.9-0.6-15.4-1.8l1.2-7.8 c4.9,1.6,9.5,2.4,13.6,2.4c3.8,0,6.6-0.6,8.1-1.9c1.6-1.2,2.4-3.1,2.4-5.5s-0.8-4.2-2.4-5.5c-1.6-1.2-4.4-1.9-8.3-1.9 c-2.9,0-5.3,0.1-7.2,0.2v-7.6c3,0.2,5.4,0.3,7.2,0.3c3.5,0,6-0.6,7.3-1.7c1.4-1.1,2.1-2.8,2.1-5.1c0-2.2-0.7-3.9-2.2-5 c-1.4-1.1-3.8-1.7-7.1-1.7c-3.2,0-7.2,0.7-12,2.1l-1.2-7.6c5.4-1.1,10-1.6,13.8-1.6c11.8,0,17.7,4.3,17.7,12.8 c0,5.3-2.1,8.9-6.3,10.7C129.7,1008.6,132.3,1012.6,132.3,1018.6z"/> <path class="st3" d="M177.9,988.9c3.5,3.8,5.3,10.2,5.3,18.9s-1.8,15.1-5.3,18.9c-3.5,3.9-8.7,5.8-15.8,5.8s-12.4-1.9-15.9-5.8 s-5.2-10.2-5.2-18.9s1.7-15,5.2-18.9c3.6-3.9,8.9-5.8,15.9-5.8C169.2,983.1,174.4,985,177.9,988.9z M171.1,1021.3 c1.9-2.8,2.9-7.3,2.9-13.5s-1-10.7-2.9-13.5s-4.9-4.2-9.1-4.2s-7.2,1.4-9.1,4.2c-1.9,2.8-2.8,7.3-2.8,13.5s0.9,10.7,2.8,13.5 c1.9,2.8,5,4.2,9.1,4.2S169.3,1024.1,171.1,1021.3z"/> <path class="st3" d="M222.5,995.8v35.9h-8.4v-29.2h-11.2v2.4c0,8.4-0.9,14.7-2.7,18.8c-1.7,4.1-4.5,7.2-8.4,9.1l-3.8-5.9 c2.8-1.7,4.8-4.1,5.9-7.1c1.1-3,1.6-8,1.6-15v-8.9L222.5,995.8L222.5,995.8z"/> <path class="st3" d="M266.1,1040.1l-0.9,6.6c-7-0.4-11.9-3.1-14.9-8.1s-4.5-13.8-4.6-26.4c0-8.5,0.8-15.2,2.2-20.2 s3.5-8.5,6.2-10.7c2.7-2.2,6.4-3.4,11.1-3.7l0.9,6.6c-2.7,0.3-4.9,1.1-6.4,2.4c-3.6,3-5.4,11.5-5.4,25.5c0,7.4,0.5,13.2,1.5,17.3 s2.3,6.9,3.9,8.2C261.2,1039,263.4,1039.8,266.1,1040.1z"/> <path class="st3" d="M305.2,1018.6c0,4.4-1.4,7.8-4.3,10.3c-2.8,2.5-7.7,3.7-14.8,3.7c-4.8,0-9.9-0.6-15.4-1.8l1.2-7.8 c4.9,1.6,9.5,2.4,13.6,2.4c3.8,0,6.6-0.6,8.1-1.9c1.6-1.2,2.4-3.1,2.4-5.5s-0.8-4.2-2.4-5.5c-1.6-1.2-4.4-1.9-8.3-1.9 c-2.9,0-5.3,0.1-7.2,0.2v-7.6c3,0.2,5.4,0.3,7.2,0.3c3.5,0,6-0.6,7.3-1.7c1.4-1.1,2.1-2.8,2.1-5.1c0-2.2-0.7-3.9-2.2-5 c-1.4-1.1-3.8-1.7-7.1-1.7c-3.2,0-7.2,0.7-12,2.1l-1.2-7.6c5.4-1.1,10-1.6,13.8-1.6c11.8,0,17.7,4.3,17.7,12.8 c0,5.3-2.1,8.9-6.3,10.7C302.6,1008.6,305.2,1012.6,305.2,1018.6z"/> <path class="st3" d="M352.2,1013.5v7.1h-7v11h-8.9v-11H312v-8.9l22.7-27.6h10.5v29.4H352.2z M319.7,1013.5h16.6v-20.8L319.7,1013.5 z"/> <path class="st3" d="M374.7,995.8h8.4v35.9h-8.4V995.8z M406.4,995.8l-12.3,16.4l13.8,18.6l-9.4,1.4l-13.8-19.3l12-17.1 L406.4,995.8L406.4,995.8z"/> <path class="st3" d="M412.7,995.8h23.8v6.6H421v29.2h-8.4v-35.8H412.7z"/> <path class="st3" d="M439.8,984.2l0.9-6.6c4.7,0.3,8.4,1.5,11.1,3.7s4.8,5.7,6.2,10.7c1.4,5,2.1,11.7,2.2,20.2 c-0.1,12.6-1.6,21.4-4.6,26.4s-7.9,7.8-14.9,8.1l-0.9-6.6c2.7-0.3,4.9-1.1,6.4-2.4c3.6-3,5.4-11.5,5.4-25.5 c0-7.4-0.5-13.2-1.5-17.3s-2.3-6.9-3.9-8.2C444.7,985.3,442.6,984.5,439.8,984.2z"/> </g> <g> <g> <path class="st4" d="M646.9,162.1c0,5.4-2,9.1-6.1,11.2c6.1,2.2,9.1,6.5,9.1,13c0,9.8-6.8,14.7-20.4,14.7 c-6.1,0-12.5-0.7-19.2-2.2v-48.1c7.2-1.4,13.1-2.2,17.8-2.2c6.6,0,11.4,1.1,14.4,3.3S646.9,157.5,646.9,162.1z M619.7,156.9v13.3 h8.2c3.6,0,6-0.6,7.5-1.8c1.4-1.2,2.2-3,2.2-5.3c0-4.7-3.2-7-9.6-7C625.2,156.2,622.5,156.4,619.7,156.9z M640.3,185.6 c0-2.6-0.8-4.5-2.5-5.8s-4.5-1.9-8.5-1.9h-9.6v14.8c3.2,0.5,6.4,0.7,9.6,0.7C636.6,193.3,640.3,190.8,640.3,185.6z"/> <path class="st4" d="M674.1,163.1c12.1,0,18.2,6.3,18.2,18.9s-6.1,18.9-18.2,18.9c-12.1,0-18.2-6.3-18.2-18.9 S662,163.1,674.1,163.1z M674.1,194.3c6.4,0,9.6-4.1,9.6-12.3s-3.2-12.3-9.6-12.3c-6.4,0-9.6,4.1-9.6,12.3 S667.7,194.3,674.1,194.3z"/> <path class="st4" d="M707.9,197.9v16.5h-8.4v-50.3h8.1v2.2c4.4-2.2,8.3-3.2,11.6-3.2c5,0,8.7,1.5,11,4.6c2.4,3.1,3.5,7.8,3.5,14.3 s-1.2,11.3-3.5,14.3c-2.4,3.1-6,4.6-11,4.6C716,201,712.3,199.9,707.9,197.9z M707.9,172.3v19.4c3.6,1.7,6.6,2.6,8.9,2.6 c3,0,5.2-1,6.5-2.9s1.9-5.1,1.9-9.4c0-4.4-0.6-7.5-1.9-9.4c-1.3-1.9-3.5-2.9-6.5-2.9C714.5,169.7,711.6,170.6,707.9,172.3z"/> <path class="st4" d="M758,163.1c12.1,0,18.2,6.3,18.2,18.9s-6.1,19-18.2,19s-18.2-6.3-18.2-18.9S745.8,163.1,758,163.1z M758,194.3c6.4,0,9.6-4.1,9.6-12.3s-3.2-12.3-9.6-12.3c-6.4,0-9.6,4.1-9.6,12.3S751.5,194.3,758,194.3z"/> <path class="st4" d="M815.1,164.1V200h-8.4v-15.1h-14.9V200h-8.4v-35.9h8.4v14.1h14.9v-14.1H815.1z"/> <path class="st4" d="M842.4,194.3c4.1,0,8.4-0.7,12.7-2l1.4,6.6c-5.2,1.3-10.2,2-15.2,2c-6.6,0-11.4-1.5-14.5-4.6 s-4.6-7.8-4.6-14.3c0-12.6,6-18.9,17.9-18.9c6.2,0,10.6,1.7,13.1,5c2.5,3.2,3.7,7.9,3.7,14v2.2H831c0.2,3.5,1.2,6.1,2.9,7.7 C835.6,193.5,838.4,194.3,842.4,194.3z M840.2,169.7c-5.3,0-8.4,2.7-9.1,8.1h17.5C848.2,172.4,845.4,169.7,840.2,169.7z"/> <path class="st4" d="M861.5,164.1h9.3l11.3,17.3l-13.7,19.2l-8.6-1.5l13.2-18.4L861.5,164.1z M892,199.9h-8.2V164h8.2V199.9z M907.3,200.5l-13.7-19.2l11.3-17.3h9.3l-11.6,16.5l13.2,18.4L907.3,200.5z"/> </g> </g> <g> <path class="st3" d="M1142.4,179.4l2.4,7.5l2.4-7.5l11.1-29.8h12.2l3.5,50.4h-9.3l-1.5-28.2c-0.1-2.4-0.2-5.9-0.2-10.4 c-1.5,4.9-2.7,8.3-3.4,10.2l-10.6,28.5h-8.2l-10.6-28.5c-0.7-1.9-1.8-5.3-3.4-10.2c0,4.5-0.1,8-0.2,10.4l-1.5,28.2h-9.3l3.5-50.4 h12.2L1142.4,179.4z"/> <path class="st3" d="M1199.1,163.1c12.1,0,18.2,6.3,18.2,18.9s-6.1,18.9-18.2,18.9s-18.2-6.3-18.2-18.9S1187,163.1,1199.1,163.1z M1199.1,194.3c6.4,0,9.6-4.1,9.6-12.3s-3.2-12.3-9.6-12.3s-9.6,4.1-9.6,12.3S1192.7,194.3,1199.1,194.3z"/> <path class="st3" d="M1242.2,194.3c2.5,0,5.5-0.7,9.1-2l1.4,7.2c-4.7,1-8.4,1.4-11.2,1.4c-6.2,0-10.8-1.5-13.8-4.6 s-4.5-7.8-4.5-14.3s1.5-11.3,4.5-14.3c3-3.1,7.6-4.6,13.8-4.6c2.8,0,6.5,0.5,11.2,1.4l-1.4,7.2c-3.6-1.3-6.6-2-9.1-2 c-3.7,0-6.3,1-8,3c-1.6,2-2.4,5.1-2.4,9.3s0.8,7.3,2.4,9.3C1235.8,193.3,1238.5,194.3,1242.2,194.3z"/> <path class="st3" d="M1259.9,164.1h8.4V200h-8.4V164.1z M1291.6,164.1l-12.3,16.4l13.8,18.6l-9.4,1.4l-13.8-19.3l12-17.1 L1291.6,164.1L1291.6,164.1z"/> <path class="st3" d="M1330.9,190.2c0,3.3-1.2,5.9-3.5,7.8c-2.3,1.9-6.6,2.9-13,2.9c-4.8,0-10.3-0.7-16.6-2.2V165 c6.3-1.3,11.5-1.9,15.6-1.9c10.1,0,15.2,3.2,15.2,9.6c0,3.9-1.7,6.6-5,8.1C1328.5,182.3,1330.9,185.4,1330.9,190.2z M1320.6,174 c0-2.8-2.3-4.2-7-4.2c-2,0-4.4,0.2-7.3,0.7v7.8h7.2c2.5,0,4.4-0.3,5.5-1C1320,176.5,1320.6,175.4,1320.6,174z M1322.4,189.5 c0-3.2-2.7-4.8-8.1-4.8h-8.1v8.6c3.1,0.7,5.8,1,8.1,1C1319.7,194.3,1322.4,192.7,1322.4,189.5z"/> <path class="st3" d="M1336.5,189.7c0-7.7,4.8-11.6,14.3-11.6c1.4,0,4,0.2,7.7,0.6v-2.4c0-2.4-0.5-4-1.6-5.1c-1.1-1-2.8-1.5-5.3-1.5 c-2.7,0-6.5,0.8-11.4,2.4l-1.2-7.1c5.5-1.3,9.9-2,13.2-2c5.2,0,8.9,1.1,11.2,3.3c2.3,2.2,3.4,5.5,3.4,9.8v23.8h-8.1V198 c-3.8,1.9-7.4,2.9-10.8,2.9c-3.8,0-6.6-1-8.6-3C1337.4,196,1336.5,193.3,1336.5,189.7z M1351.8,184.6c-4.7,0-7,1.7-7,5 c0,3.2,2,4.8,6.1,4.8c2.1,0,4.6-0.7,7.5-2v-7.3C1355.3,184.8,1353.1,184.6,1351.8,184.6z"/> </g> <g> <path class="st3" d="M1544.4,149.5h9.4v50.4h-9.4V149.5z M1576,200.6l-20.4-26.2l17.9-24.8h10.9l-17.9,24l20.2,25.2L1576,200.6z"/> <path class="st3" d="M1600.3,197.9v16.5h-8.4v-50.3h8.1v2.2c4.4-2.2,8.3-3.2,11.6-3.2c5,0,8.7,1.5,11,4.6c2.4,3.1,3.5,7.8,3.5,14.3 s-1.2,11.3-3.5,14.3c-2.4,3.1-6,4.6-11,4.6C1608.4,201,1604.6,199.9,1600.3,197.9z M1600.3,172.3v19.4c3.6,1.7,6.6,2.6,8.9,2.6 c3,0,5.2-1,6.5-2.9s1.9-5.1,1.9-9.4c0-4.4-0.6-7.5-1.9-9.4s-3.5-2.9-6.5-2.9C1606.9,169.7,1604,170.6,1600.3,172.3z"/> <path class="st3" d="M1631.8,189.7c0-7.7,4.8-11.6,14.3-11.6c1.4,0,4,0.2,7.7,0.6v-2.4c0-2.4-0.5-4-1.6-5.1c-1.1-1-2.8-1.5-5.3-1.5 c-2.7,0-6.5,0.8-11.4,2.4l-1.2-7.1c5.5-1.3,9.9-2,13.2-2c5.2,0,8.9,1.1,11.2,3.3c2.3,2.2,3.4,5.5,3.4,9.8v23.8h-8.1V198 c-3.8,1.9-7.4,2.9-10.8,2.9c-3.8,0-6.6-1-8.6-3C1632.7,196,1631.8,193.3,1631.8,189.7z M1647.1,184.6c-4.7,0-7,1.7-7,5 c0,3.2,2,4.8,6.1,4.8c2.1,0,4.6-0.7,7.5-2v-7.3C1650.6,184.8,1648.4,184.6,1647.1,184.6z"/> <path class="st3" d="M1688.3,194.3c2.5,0,5.5-0.7,9.1-2l1.4,7.2c-4.7,1-8.4,1.4-11.2,1.4c-6.2,0-10.8-1.5-13.8-4.6 s-4.5-7.8-4.5-14.3s1.5-11.3,4.5-14.3c3-3.1,7.6-4.6,13.8-4.6c2.8,0,6.5,0.5,11.2,1.4l-1.4,7.2c-3.6-1.3-6.6-2-9.1-2 c-3.7,0-6.3,1-8,3c-1.6,2-2.4,5.1-2.4,9.3s0.8,7.3,2.4,9.3C1682,193.3,1684.6,194.3,1688.3,194.3z"/> <path class="st3" d="M1737.7,164.1V200h-8.4v-15.1h-14.9V200h-8.4v-35.9h8.4v14.1h14.9v-14.1H1737.7z"/> <path class="st3" d="M1763.2,163.1c12.1,0,18.2,6.3,18.2,18.9s-6.1,18.9-18.2,18.9s-18.2-6.3-18.2-18.9S1751,163.1,1763.2,163.1z M1763.2,194.3c6.4,0,9.6-4.1,9.6-12.3s-3.2-12.3-9.6-12.3s-9.6,4.1-9.6,12.3S1756.8,194.3,1763.2,194.3z"/> <path class="st3" d="M1817.5,210l-0.6-10.1h-25.4l-0.6,10.1h-7.1v-16.7h2.5c4.3-3.6,6.5-10.7,6.5-21.2v-8h27.3v29.2h4.5V210H1817.5 z M1811.7,170.7h-11.6v1.5c0,9.6-1.7,16.7-5.1,21.1h16.7V170.7z"/> <path class="st3" d="M1828.8,189.7c0-7.7,4.8-11.6,14.3-11.6c1.4,0,4,0.2,7.7,0.6v-2.4c0-2.4-0.5-4-1.6-5.1c-1.1-1-2.8-1.5-5.3-1.5 c-2.7,0-6.5,0.8-11.4,2.4l-1.2-7.1c5.5-1.3,9.9-2,13.2-2c5.2,0,8.9,1.1,11.2,3.3c2.3,2.2,3.4,5.5,3.4,9.8v23.8h-8.1V198 c-3.8,1.9-7.4,2.9-10.8,2.9c-3.8,0-6.6-1-8.6-3C1829.7,196,1828.8,193.3,1828.8,189.7z M1844.1,184.6c-4.7,0-7,1.7-7,5 c0,3.2,2,4.8,6.1,4.8c2.1,0,4.6-0.7,7.5-2v-7.3C1847.6,184.8,1845.4,184.6,1844.1,184.6z"/> <path class="st3" d="M1876.1,197.9v16.5h-8.4v-50.3h8.1v2.2c4.4-2.2,8.3-3.2,11.6-3.2c5,0,8.7,1.5,11,4.6c2.4,3.1,3.5,7.8,3.5,14.3 s-1.2,11.3-3.5,14.3c-2.4,3.1-6,4.6-11,4.6C1884.2,201,1880.4,199.9,1876.1,197.9z M1876.1,172.3v19.4c3.6,1.7,6.6,2.6,8.9,2.6 c3,0,5.2-1,6.5-2.9s1.9-5.1,1.9-9.4c0-4.4-0.6-7.5-1.9-9.4s-3.5-2.9-6.5-2.9C1882.7,169.7,1879.7,170.6,1876.1,172.3z"/> </g> <g> <path class="st4" d="M601.8,439.5h34.3v7.1c-8.3,13.7-13.9,27.1-17,40.4h-9.6c3.6-13.3,9.1-26.8,16.7-40.4h-24.4V439.5z"/> <path class="st4" d="M679.3,444.3c3.5,3.8,5.3,10.2,5.3,18.9c0,8.8-1.8,15.1-5.3,18.9c-3.5,3.9-8.7,5.8-15.8,5.8 c-7.1,0-12.4-1.9-15.9-5.8c-3.5-3.9-5.2-10.2-5.2-18.9c0-8.7,1.7-15,5.2-18.9c3.6-3.9,8.9-5.8,15.9-5.8 C670.5,438.4,675.8,440.4,679.3,444.3z M672.5,476.7c1.9-2.8,2.9-7.3,2.9-13.5c0-6.2-1-10.7-2.9-13.5c-1.9-2.8-4.9-4.2-9.1-4.2 s-7.2,1.4-9.1,4.2c-1.9,2.8-2.8,7.3-2.8,13.5c0,6.2,0.9,10.7,2.8,13.5c1.9,2.8,5,4.2,9.1,4.2S670.6,479.5,672.5,476.7z"/> <path class="st4" d="M730.1,444.3c3.5,3.8,5.3,10.2,5.3,18.9c0,8.8-1.8,15.1-5.3,18.9c-3.5,3.9-8.7,5.8-15.8,5.8 c-7.1,0-12.4-1.9-15.9-5.8c-3.5-3.9-5.2-10.2-5.2-18.9c0-8.7,1.7-15,5.2-18.9c3.6-3.9,8.9-5.8,15.9-5.8 C721.4,438.4,726.7,440.4,730.1,444.3z M723.3,476.7c1.9-2.8,2.9-7.3,2.9-13.5c0-6.2-1-10.7-2.9-13.5c-1.9-2.8-4.9-4.2-9.1-4.2 s-7.2,1.4-9.1,4.2c-1.9,2.8-2.8,7.3-2.8,13.5c0,6.2,0.9,10.7,2.8,13.5c1.9,2.8,5,4.2,9.1,4.2S721.5,479.5,723.3,476.7z"/> <path class="st4" d="M767.3,484.9v16.5h-8.4v-50.3h8.1v2.2c4.4-2.2,8.3-3.2,11.6-3.2c5,0,8.7,1.5,11,4.6c2.4,3.1,3.5,7.8,3.5,14.3 s-1.2,11.3-3.5,14.3c-2.4,3.1-6,4.6-11,4.6C775.4,488,771.6,487,767.3,484.9z M767.3,459.3v19.4c3.6,1.7,6.6,2.6,8.9,2.6 c3,0,5.2-1,6.5-2.9c1.3-1.9,1.9-5.1,1.9-9.4c0-4.4-0.6-7.5-1.9-9.4c-1.3-1.9-3.5-2.9-6.5-2.9C773.9,456.7,770.9,457.6,767.3,459.3z "/> <path class="st4" d="M804.8,451.1l6.3,19.3c1,2.5,2.2,6,3.7,10.7c2.4-6.8,3.7-10.3,3.8-10.7l6.3-19.3h9l-13.6,38.4 c-1.6,4.6-3.7,7.9-6.1,9.9c-2.4,2-5.7,3-9.7,3c-1.6,0-3.2-0.1-4.8-0.4l0.6-6.8c1.1,0.3,2.4,0.4,3.8,0.4c2.3,0,4.1-0.6,5.4-1.7 c1.3-1.1,2.4-3.1,3.3-5.9l0.5-1.6h-5.2l-12.5-35.2H804.8z"/> <path class="st4" d="M846.8,454c4.3-2,8.2-3,11.7-3c11.3,0,16.9,6.2,16.9,18.5c0,12.3-6.1,18.5-18.2,18.5c-6.7,0-11.6-1.9-14.6-5.8 c-3-3.8-4.5-9.9-4.5-18.3c0-6.8,0.7-12.2,2.2-16.2c1.5-4.1,3.7-7.1,6.5-9c2.8-1.9,6.5-3.2,11.1-3.9c6.6-1,11.2-1.8,13.8-2.4 l1.1,7.1c-1.9,0.5-6.4,1.3-13.5,2.4c-4.2,0.6-7.3,1.9-9.2,3.7C848,447.5,846.9,450.3,846.8,454z M866.8,469.5 c0-4.2-0.7-7.2-2.1-9.1c-1.4-1.9-3.8-2.8-7.2-2.8c-3,0-6.6,0.9-10.7,2.6c-0.1,2.6-0.1,4.8-0.1,6.6c0,9.7,3.5,14.5,10.6,14.5 C863.5,481.4,866.8,477.4,866.8,469.5z"/> <path class="st4" d="M891.3,477.9v9.1h-8.9v-9.1H891.3z"/> </g> <g> <path class="st3" d="M1094.8,439.5h34.3v7.1c-8.3,13.7-13.9,27.1-17,40.4h-9.6c3.6-13.3,9.1-26.8,16.7-40.4h-24.4V439.5z"/> <path class="st3" d="M1172.3,444.3c3.5,3.8,5.3,10.2,5.3,18.9c0,8.8-1.8,15.1-5.3,18.9c-3.5,3.9-8.7,5.8-15.8,5.8 c-7.1,0-12.4-1.9-15.9-5.8c-3.5-3.9-5.2-10.2-5.2-18.9c0-8.7,1.7-15,5.2-18.9c3.6-3.9,8.9-5.8,15.9-5.8 C1163.5,438.4,1168.8,440.4,1172.3,444.3z M1165.5,476.7c1.9-2.8,2.9-7.3,2.9-13.5c0-6.2-1-10.7-2.9-13.5c-1.9-2.8-4.9-4.2-9.1-4.2 s-7.2,1.4-9.1,4.2c-1.9,2.8-2.8,7.3-2.8,13.5c0,6.2,0.9,10.7,2.8,13.5c1.9,2.8,5,4.2,9.1,4.2S1163.6,479.5,1165.5,476.7z"/> <path class="st3" d="M1223.1,444.3c3.5,3.8,5.3,10.2,5.3,18.9c0,8.8-1.8,15.1-5.3,18.9c-3.5,3.9-8.7,5.8-15.8,5.8 c-7.1,0-12.4-1.9-15.9-5.8c-3.5-3.9-5.2-10.2-5.2-18.9c0-8.7,1.7-15,5.2-18.9c3.6-3.9,8.9-5.8,15.9-5.8 C1214.4,438.4,1219.7,440.4,1223.1,444.3z M1216.3,476.7c1.9-2.8,2.9-7.3,2.9-13.5c0-6.2-1-10.7-2.9-13.5c-1.9-2.8-4.9-4.2-9.1-4.2 s-7.2,1.4-9.1,4.2c-1.9,2.8-2.8,7.3-2.8,13.5c0,6.2,0.9,10.7,2.8,13.5c1.9,2.8,5,4.2,9.1,4.2S1214.5,479.5,1216.3,476.7z"/> <path class="st3" d="M1260.3,484.9v16.5h-8.4v-50.3h8.1v2.2c4.4-2.2,8.3-3.2,11.6-3.2c5,0,8.7,1.5,11,4.6c2.4,3.1,3.5,7.8,3.5,14.3 s-1.2,11.3-3.5,14.3c-2.4,3.1-6,4.6-11,4.6C1268.4,488,1264.6,487,1260.3,484.9z M1260.3,459.3v19.4c3.6,1.7,6.6,2.6,8.9,2.6 c3,0,5.2-1,6.5-2.9c1.3-1.9,1.9-5.1,1.9-9.4c0-4.4-0.6-7.5-1.9-9.4c-1.3-1.9-3.5-2.9-6.5-2.9 C1266.9,456.7,1263.9,457.6,1260.3,459.3z"/> <path class="st3" d="M1297.8,451.1l6.3,19.3c1,2.5,2.2,6,3.7,10.7c2.4-6.8,3.7-10.3,3.8-10.7l6.3-19.3h9l-13.6,38.4 c-1.6,4.6-3.7,7.9-6.1,9.9c-2.4,2-5.7,3-9.7,3c-1.6,0-3.2-0.1-4.8-0.4l0.6-6.8c1.1,0.3,2.4,0.4,3.8,0.4c2.3,0,4.1-0.6,5.4-1.7 c1.3-1.1,2.4-3.1,3.3-5.9l0.5-1.6h-5.2l-12.5-35.2H1297.8z"/> <path class="st3" d="M1339.8,454c4.3-2,8.2-3,11.7-3c11.3,0,16.9,6.2,16.9,18.5c0,12.3-6.1,18.5-18.2,18.5 c-6.7,0-11.6-1.9-14.6-5.8c-3-3.8-4.5-9.9-4.5-18.3c0-6.8,0.7-12.2,2.2-16.2c1.5-4.1,3.7-7.1,6.5-9c2.8-1.9,6.5-3.2,11.1-3.9 c6.6-1,11.2-1.8,13.8-2.4l1.1,7.1c-1.9,0.5-6.4,1.3-13.5,2.4c-4.2,0.6-7.3,1.9-9.2,3.7C1341,447.5,1339.9,450.3,1339.8,454z M1359.8,469.5c0-4.2-0.7-7.2-2.1-9.1c-1.4-1.9-3.8-2.8-7.2-2.8c-3,0-6.6,0.9-10.7,2.6c-0.1,2.6-0.1,4.8-0.1,6.6 c0,9.7,3.5,14.5,10.6,14.5C1356.5,481.4,1359.8,477.4,1359.8,469.5z"/> <path class="st3" d="M1384.3,477.9v9.1h-8.9v-9.1H1384.3z"/> </g> <g> <path class="st3" d="M1575.3,439.5h34.3v7.1c-8.3,13.7-13.9,27.1-17,40.4h-9.6c3.6-13.3,9.1-26.8,16.7-40.4h-24.4V439.5z"/> <path class="st3" d="M1652.7,444.3c3.5,3.8,5.3,10.2,5.3,18.9c0,8.8-1.8,15.1-5.3,18.9c-3.5,3.9-8.7,5.8-15.8,5.8 c-7.1,0-12.4-1.9-15.9-5.8c-3.5-3.9-5.2-10.2-5.2-18.9c0-8.7,1.7-15,5.2-18.9c3.6-3.9,8.9-5.8,15.9-5.8 C1644,438.4,1649.3,440.4,1652.7,444.3z M1646,476.7c1.9-2.8,2.9-7.3,2.9-13.5c0-6.2-1-10.7-2.9-13.5c-1.9-2.8-4.9-4.2-9.1-4.2 s-7.2,1.4-9.1,4.2c-1.9,2.8-2.8,7.3-2.8,13.5c0,6.2,0.9,10.7,2.8,13.5c1.9,2.8,5,4.2,9.1,4.2S1644.1,479.5,1646,476.7z"/> <path class="st3" d="M1703.6,444.3c3.5,3.8,5.3,10.2,5.3,18.9c0,8.8-1.8,15.1-5.3,18.9c-3.5,3.9-8.7,5.8-15.8,5.8 c-7.1,0-12.4-1.9-15.9-5.8c-3.5-3.9-5.2-10.2-5.2-18.9c0-8.7,1.7-15,5.2-18.9c3.6-3.9,8.9-5.8,15.9-5.8 C1694.8,438.4,1700.1,440.4,1703.6,444.3z M1696.8,476.7c1.9-2.8,2.9-7.3,2.9-13.5c0-6.2-1-10.7-2.9-13.5c-1.9-2.8-4.9-4.2-9.1-4.2 s-7.2,1.4-9.1,4.2c-1.9,2.8-2.8,7.3-2.8,13.5c0,6.2,0.9,10.7,2.8,13.5c1.9,2.8,5,4.2,9.1,4.2S1694.9,479.5,1696.8,476.7z"/> <path class="st3" d="M1740.7,484.9v16.5h-8.4v-50.3h8.1v2.2c4.4-2.2,8.3-3.2,11.6-3.2c5,0,8.7,1.5,11,4.6c2.4,3.1,3.5,7.8,3.5,14.3 s-1.2,11.3-3.5,14.3c-2.4,3.1-6,4.6-11,4.6C1748.8,488,1745,487,1740.7,484.9z M1740.7,459.3v19.4c3.6,1.7,6.6,2.6,8.9,2.6 c3,0,5.2-1,6.5-2.9c1.3-1.9,1.9-5.1,1.9-9.4c0-4.4-0.6-7.5-1.9-9.4c-1.3-1.9-3.5-2.9-6.5-2.9 C1747.3,456.7,1744.4,457.6,1740.7,459.3z"/> <path class="st3" d="M1778.3,451.1l6.3,19.3c1,2.5,2.2,6,3.7,10.7c2.4-6.8,3.7-10.3,3.8-10.7l6.3-19.3h9l-13.6,38.4 c-1.6,4.6-3.7,7.9-6.1,9.9c-2.4,2-5.7,3-9.7,3c-1.6,0-3.2-0.1-4.8-0.4l0.6-6.8c1.1,0.3,2.4,0.4,3.8,0.4c2.3,0,4.1-0.6,5.4-1.7 c1.3-1.1,2.4-3.1,3.3-5.9l0.5-1.6h-5.2l-12.5-35.2H1778.3z"/> <path class="st3" d="M1820.2,454c4.3-2,8.2-3,11.7-3c11.3,0,16.9,6.2,16.9,18.5c0,12.3-6.1,18.5-18.2,18.5 c-6.7,0-11.6-1.9-14.6-5.8c-3-3.8-4.5-9.9-4.5-18.3c0-6.8,0.7-12.2,2.2-16.2c1.5-4.1,3.7-7.1,6.5-9c2.8-1.9,6.5-3.2,11.1-3.9 c6.6-1,11.2-1.8,13.8-2.4l1.1,7.1c-1.9,0.5-6.4,1.3-13.5,2.4c-4.2,0.6-7.3,1.9-9.2,3.7C1821.4,447.5,1820.4,450.3,1820.2,454z M1840.2,469.5c0-4.2-0.7-7.2-2.1-9.1s-3.8-2.8-7.2-2.8c-3,0-6.6,0.9-10.7,2.6c-0.1,2.6-0.1,4.8-0.1,6.6c0,9.7,3.5,14.5,10.6,14.5 C1837,481.4,1840.2,477.4,1840.2,469.5z"/> <path class="st3" d="M1864.8,477.9v9.1h-8.9v-9.1H1864.8z"/> </g> <g> <path class="st4" d="M603.1,702.7v47.5h-8.9v-40.4h-9.8v-7.1H603.1z"/> <path class="st4" d="M631.9,744.1c3.8,0,6.5-0.6,8.1-1.9c1.6-1.3,2.4-3.4,2.4-6.3c0-2.7-0.8-4.8-2.4-6.2c-1.6-1.4-4.3-2.1-8.2-2.1 c-3.4,0-7.9,0.4-13.5,1.3v-26.3h29.8v7.1h-20.9v11.1c2.3-0.2,4.2-0.4,5.5-0.4c6.9,0,11.7,1.4,14.5,4.1c2.8,2.7,4.2,6.4,4.2,11.2 c0,5-1.5,8.9-4.4,11.4c-2.9,2.6-7.6,3.9-14,3.9c-4.6,0-10.2-0.7-16.8-2.1l1.2-7.9C622.7,743.1,627.4,744.1,631.9,744.1z"/> <path class="st4" d="M697.2,707.5c3.5,3.8,5.3,10.2,5.3,18.9c0,8.8-1.8,15.1-5.3,18.9c-3.5,3.9-8.7,5.8-15.8,5.8 c-7.1,0-12.4-1.9-15.9-5.8c-3.5-3.9-5.2-10.2-5.2-18.9s1.7-15,5.2-18.9c3.6-3.9,8.9-5.8,15.9-5.8 C688.4,701.7,693.7,703.6,697.2,707.5z M690.4,739.9c1.9-2.8,2.9-7.3,2.9-13.5c0-6.2-1-10.7-2.9-13.5c-1.9-2.8-4.9-4.2-9.1-4.2 s-7.2,1.4-9.1,4.2c-1.9,2.8-2.8,7.3-2.8,13.5c0,6.2,0.9,10.7,2.8,13.5c1.9,2.8,5,4.2,9.1,4.2S688.5,742.7,690.4,739.9z"/> <path class="st4" d="M748,707.5c3.5,3.8,5.3,10.2,5.3,18.9c0,8.8-1.8,15.1-5.3,18.9c-3.5,3.9-8.7,5.8-15.8,5.8 c-7.1,0-12.4-1.9-15.9-5.8c-3.5-3.9-5.2-10.2-5.2-18.9s1.7-15,5.2-18.9c3.6-3.9,8.9-5.8,15.9-5.8 C739.3,701.7,744.5,703.6,748,707.5z M741.2,739.9c1.9-2.8,2.9-7.3,2.9-13.5c0-6.2-1-10.7-2.9-13.5c-1.9-2.8-4.9-4.2-9.1-4.2 s-7.2,1.4-9.1,4.2c-1.9,2.8-2.8,7.3-2.8,13.5c0,6.2,0.9,10.7,2.8,13.5c1.9,2.8,5,4.2,9.1,4.2S739.4,742.7,741.2,739.9z"/> <path class="st4" d="M785.2,748.1v16.5h-8.4v-50.3h8.1v2.2c4.4-2.2,8.3-3.2,11.6-3.2c5,0,8.7,1.5,11,4.6c2.4,3.1,3.5,7.8,3.5,14.3 c0,6.5-1.2,11.3-3.5,14.3c-2.4,3.1-6,4.6-11,4.6C793.2,751.2,789.5,750.2,785.2,748.1z M785.2,722.6V742c3.6,1.7,6.6,2.6,8.9,2.6 c3,0,5.2-1,6.5-2.9c1.3-1.9,1.9-5.1,1.9-9.4c0-4.4-0.6-7.5-1.9-9.4c-1.3-1.9-3.5-2.9-6.5-2.9C791.8,720,788.8,720.8,785.2,722.6z"/> <path class="st4" d="M822.7,714.3l6.3,19.3c1,2.5,2.2,6,3.7,10.7c2.4-6.8,3.7-10.3,3.8-10.7l6.3-19.3h9l-13.6,38.4 c-1.6,4.6-3.7,7.9-6.1,9.9c-2.4,2-5.7,3-9.7,3c-1.6,0-3.2-0.1-4.8-0.4l0.6-6.8c1.1,0.3,2.4,0.4,3.8,0.4c2.3,0,4.1-0.6,5.4-1.7 c1.3-1.1,2.4-3.1,3.3-5.9l0.5-1.6h-5.2l-12.5-35.2H822.7z"/> <path class="st4" d="M864.6,717.2c4.3-2,8.2-3,11.7-3c11.3,0,16.9,6.2,16.9,18.5c0,12.3-6.1,18.5-18.2,18.5 c-6.7,0-11.6-1.9-14.6-5.8c-3-3.8-4.5-9.9-4.5-18.3c0-6.8,0.7-12.2,2.2-16.2c1.5-4.1,3.7-7.1,6.5-9c2.8-1.9,6.5-3.2,11.1-3.9 c6.6-1,11.2-1.8,13.8-2.4l1.1,7.1c-1.9,0.5-6.4,1.3-13.5,2.4c-4.2,0.6-7.3,1.9-9.2,3.7C865.9,710.7,864.8,713.5,864.6,717.2z M884.7,732.7c0-4.2-0.7-7.2-2.1-9.1c-1.4-1.9-3.8-2.8-7.2-2.8c-3,0-6.6,0.9-10.7,2.6c-0.1,2.6-0.1,4.8-0.1,6.6 c0,9.7,3.5,14.5,10.6,14.5C881.4,744.6,884.7,740.6,884.7,732.7z"/> <path class="st4" d="M909.2,741.1v9.1h-8.9v-9.1H909.2z"/> </g> <g> <g> <path class="st3" d="M1096.1,702.7v47.5h-8.9v-40.4h-9.8v-7.1H1096.1z"/> <path class="st3" d="M1124.9,744.1c3.8,0,6.5-0.6,8.1-1.9s2.4-3.4,2.4-6.3c0-2.7-0.8-4.8-2.4-6.2c-1.6-1.4-4.3-2.1-8.2-2.1 c-3.4,0-7.9,0.4-13.5,1.3v-26.3h29.8v7.1h-20.9v11.1c2.3-0.2,4.2-0.4,5.5-0.4c6.9,0,11.7,1.4,14.5,4.1c2.8,2.7,4.2,6.4,4.2,11.2 c0,5-1.5,8.9-4.4,11.4c-2.9,2.6-7.6,3.9-14,3.9c-4.6,0-10.2-0.7-16.8-2.1l1.2-7.9C1115.7,743.1,1120.4,744.1,1124.9,744.1z"/> <path class="st3" d="M1190.2,707.5c3.5,3.8,5.3,10.2,5.3,18.9c0,8.8-1.8,15.1-5.3,18.9c-3.5,3.9-8.7,5.8-15.8,5.8 c-7.1,0-12.4-1.9-15.9-5.8c-3.5-3.9-5.2-10.2-5.2-18.9s1.7-15,5.2-18.9c3.6-3.9,8.9-5.8,15.9-5.8 C1181.4,701.7,1186.7,703.6,1190.2,707.5z M1183.4,739.9c1.9-2.8,2.9-7.3,2.9-13.5c0-6.2-1-10.7-2.9-13.5 c-1.9-2.8-4.9-4.2-9.1-4.2s-7.2,1.4-9.1,4.2c-1.9,2.8-2.8,7.3-2.8,13.5c0,6.2,0.9,10.7,2.8,13.5c1.9,2.8,5,4.2,9.1,4.2 S1181.5,742.7,1183.4,739.9z"/> <path class="st3" d="M1241,707.5c3.5,3.8,5.3,10.2,5.3,18.9c0,8.8-1.8,15.1-5.3,18.9c-3.5,3.9-8.7,5.8-15.8,5.8 c-7.1,0-12.4-1.9-15.9-5.8c-3.5-3.9-5.2-10.2-5.2-18.9s1.7-15,5.2-18.9c3.6-3.9,8.9-5.8,15.9-5.8 C1232.3,701.7,1237.5,703.6,1241,707.5z M1234.2,739.9c1.9-2.8,2.9-7.3,2.9-13.5c0-6.2-1-10.7-2.9-13.5c-1.9-2.8-4.9-4.2-9.1-4.2 s-7.2,1.4-9.1,4.2c-1.9,2.8-2.8,7.3-2.8,13.5c0,6.2,0.9,10.7,2.8,13.5c1.9,2.8,5,4.2,9.1,4.2S1232.4,742.7,1234.2,739.9z"/> <path class="st3" d="M1278.2,748.1v16.5h-8.4v-50.3h8.1v2.2c4.4-2.2,8.3-3.2,11.6-3.2c5,0,8.7,1.5,11,4.6 c2.4,3.1,3.5,7.8,3.5,14.3c0,6.5-1.2,11.3-3.5,14.3c-2.4,3.1-6,4.6-11,4.6C1286.2,751.2,1282.5,750.2,1278.2,748.1z M1278.2,722.6 V742c3.6,1.7,6.6,2.6,8.9,2.6c3,0,5.2-1,6.5-2.9c1.3-1.9,1.9-5.1,1.9-9.4c0-4.4-0.6-7.5-1.9-9.4c-1.3-1.9-3.5-2.9-6.5-2.9 C1284.8,720,1281.8,720.8,1278.2,722.6z"/> <path class="st3" d="M1315.7,714.3l6.3,19.3c1,2.5,2.2,6,3.7,10.7c2.4-6.8,3.7-10.3,3.8-10.7l6.3-19.3h9l-13.6,38.4 c-1.6,4.6-3.7,7.9-6.1,9.9c-2.4,2-5.7,3-9.7,3c-1.6,0-3.2-0.1-4.8-0.4l0.6-6.8c1.1,0.3,2.4,0.4,3.8,0.4c2.3,0,4.1-0.6,5.4-1.7 c1.3-1.1,2.4-3.1,3.3-5.9l0.5-1.6h-5.2l-12.5-35.2H1315.7z"/> <path class="st3" d="M1357.6,717.2c4.3-2,8.2-3,11.7-3c11.3,0,16.9,6.2,16.9,18.5c0,12.3-6.1,18.5-18.2,18.5 c-6.7,0-11.6-1.9-14.6-5.8c-3-3.8-4.5-9.9-4.5-18.3c0-6.8,0.7-12.2,2.2-16.2c1.5-4.1,3.7-7.1,6.5-9c2.8-1.9,6.5-3.2,11.1-3.9 c6.6-1,11.2-1.8,13.8-2.4l1.1,7.1c-1.9,0.5-6.4,1.3-13.5,2.4c-4.2,0.6-7.3,1.9-9.2,3.7C1358.9,710.7,1357.8,713.5,1357.6,717.2z M1377.7,732.7c0-4.2-0.7-7.2-2.1-9.1c-1.4-1.9-3.8-2.8-7.2-2.8c-3,0-6.6,0.9-10.7,2.6c-0.1,2.6-0.1,4.8-0.1,6.6 c0,9.7,3.5,14.5,10.6,14.5C1374.4,744.6,1377.7,740.6,1377.7,732.7z"/> <path class="st3" d="M1402.2,741.1v9.1h-8.9v-9.1H1402.2z"/> </g> </g> <g> <g> <path class="st3" d="M1576.6,702.7v47.5h-8.9v-40.4h-9.8v-7.1H1576.6z"/> <path class="st3" d="M1605.4,744.1c3.8,0,6.5-0.6,8.1-1.9c1.6-1.3,2.4-3.4,2.4-6.3c0-2.7-0.8-4.8-2.4-6.2 c-1.6-1.4-4.3-2.1-8.2-2.1c-3.4,0-7.9,0.4-13.5,1.3v-26.3h29.8v7.1h-20.9v11.1c2.3-0.2,4.2-0.4,5.5-0.4c6.9,0,11.7,1.4,14.5,4.1 c2.8,2.7,4.2,6.4,4.2,11.2c0,5-1.5,8.9-4.4,11.4c-2.9,2.6-7.6,3.9-14,3.9c-4.6,0-10.2-0.7-16.8-2.1l1.2-7.9 C1596.1,743.1,1600.9,744.1,1605.4,744.1z"/> <path class="st3" d="M1670.6,707.5c3.5,3.8,5.3,10.2,5.3,18.9c0,8.8-1.8,15.1-5.3,18.9c-3.5,3.9-8.7,5.8-15.8,5.8 c-7.1,0-12.4-1.9-15.9-5.8c-3.5-3.9-5.2-10.2-5.2-18.9s1.7-15,5.2-18.9c3.6-3.9,8.9-5.8,15.9-5.8 C1661.9,701.7,1667.2,703.6,1670.6,707.5z M1663.9,739.9c1.9-2.8,2.9-7.3,2.9-13.5c0-6.2-1-10.7-2.9-13.5 c-1.9-2.8-4.9-4.2-9.1-4.2s-7.2,1.4-9.1,4.2c-1.9,2.8-2.8,7.3-2.8,13.5c0,6.2,0.9,10.7,2.8,13.5c1.9,2.8,5,4.2,9.1,4.2 S1662,742.7,1663.9,739.9z"/> <path class="st3" d="M1721.5,707.5c3.5,3.8,5.3,10.2,5.3,18.9c0,8.8-1.8,15.1-5.3,18.9c-3.5,3.9-8.7,5.8-15.8,5.8 c-7.1,0-12.4-1.9-15.9-5.8c-3.5-3.9-5.2-10.2-5.2-18.9s1.7-15,5.2-18.9c3.6-3.9,8.9-5.8,15.9-5.8 C1712.7,701.7,1718,703.6,1721.5,707.5z M1714.7,739.9c1.9-2.8,2.9-7.3,2.9-13.5c0-6.2-1-10.7-2.9-13.5c-1.9-2.8-4.9-4.2-9.1-4.2 s-7.2,1.4-9.1,4.2c-1.9,2.8-2.8,7.3-2.8,13.5c0,6.2,0.9,10.7,2.8,13.5c1.9,2.8,5,4.2,9.1,4.2S1712.8,742.7,1714.7,739.9z"/> <path class="st3" d="M1758.6,748.1v16.5h-8.4v-50.3h8.1v2.2c4.4-2.2,8.3-3.2,11.6-3.2c5,0,8.7,1.5,11,4.6 c2.4,3.1,3.5,7.8,3.5,14.3c0,6.5-1.2,11.3-3.5,14.3c-2.4,3.1-6,4.6-11,4.6C1766.7,751.2,1762.9,750.2,1758.6,748.1z M1758.6,722.6 V742c3.6,1.7,6.6,2.6,8.9,2.6c3,0,5.2-1,6.5-2.9c1.3-1.9,1.9-5.1,1.9-9.4c0-4.4-0.6-7.5-1.9-9.4c-1.3-1.9-3.5-2.9-6.5-2.9 C1765.2,720,1762.3,720.8,1758.6,722.6z"/> <path class="st3" d="M1796.2,714.3l6.3,19.3c1,2.5,2.2,6,3.7,10.7c2.4-6.8,3.7-10.3,3.8-10.7l6.3-19.3h9l-13.6,38.4 c-1.6,4.6-3.7,7.9-6.1,9.9c-2.4,2-5.7,3-9.7,3c-1.6,0-3.2-0.1-4.8-0.4l0.6-6.8c1.1,0.3,2.4,0.4,3.8,0.4c2.3,0,4.1-0.6,5.4-1.7 c1.3-1.1,2.4-3.1,3.3-5.9l0.5-1.6h-5.2l-12.5-35.2H1796.2z"/> <path class="st3" d="M1838.1,717.2c4.3-2,8.2-3,11.7-3c11.3,0,16.9,6.2,16.9,18.5c0,12.3-6.1,18.5-18.2,18.5 c-6.7,0-11.6-1.9-14.6-5.8c-3-3.8-4.5-9.9-4.5-18.3c0-6.8,0.7-12.2,2.2-16.2c1.5-4.1,3.7-7.1,6.5-9c2.8-1.9,6.5-3.2,11.1-3.9 c6.6-1,11.2-1.8,13.8-2.4l1.1,7.1c-1.9,0.5-6.4,1.3-13.5,2.4c-4.2,0.6-7.3,1.9-9.2,3.7C1839.3,710.7,1838.3,713.5,1838.1,717.2z M1858.1,732.7c0-4.2-0.7-7.2-2.1-9.1s-3.8-2.8-7.2-2.8c-3,0-6.6,0.9-10.7,2.6c-0.1,2.6-0.1,4.8-0.1,6.6c0,9.7,3.5,14.5,10.6,14.5 C1854.9,744.6,1858.1,740.6,1858.1,732.7z"/> <path class="st3" d="M1882.7,741.1v9.1h-8.9v-9.1H1882.7z"/> </g> </g> <g> <path class="st4" d="M621,997.7c0,4.1-1.1,7.3-3.2,9.7c-2.1,2.4-6,4.2-12,5.6l-1.2,0.3c-3.7,1-6.3,2.2-7.6,3.7 c-1.2,1.5-1.9,4-1.9,7.5h25.6v7.1h-34v-7.1c0-5,1-8.9,3.1-11.5c2.1-2.7,6-4.8,11.5-6.3l1.2-0.3c3.4-0.8,5.8-1.7,7.2-2.8 c1.3-1.1,2-2.9,2-5.5c0-5.2-3.2-7.8-9.6-7.8c-3.7,0-8,0.8-12.9,2.4l-1.2-7.8c6.1-1.2,11-1.8,14.6-1.8c6.1,0,10.7,1.3,13.8,3.9 C619.5,989.5,621,993.1,621,997.7z"/> <path class="st4" d="M646.4,984.1v47.5h-8.9v-40.4h-9.8v-7.1H646.4z"/> <path class="st4" d="M696.7,988.9c3.5,3.8,5.3,10.2,5.3,18.9s-1.8,15.1-5.3,18.9c-3.5,3.9-8.7,5.8-15.8,5.8 c-7.1,0-12.4-1.9-15.9-5.8c-3.5-3.9-5.2-10.2-5.2-18.9c0-8.7,1.7-15,5.2-18.9c3.6-3.9,8.9-5.8,15.9-5.8 C687.9,983.1,693.2,985,696.7,988.9z M689.9,1021.3c1.9-2.8,2.9-7.3,2.9-13.5s-1-10.7-2.9-13.5c-1.9-2.8-4.9-4.2-9.1-4.2 s-7.2,1.4-9.1,4.2c-1.9,2.8-2.8,7.3-2.8,13.5c0,6.2,0.9,10.7,2.8,13.5c1.9,2.8,5,4.2,9.1,4.2S688,1024.1,689.9,1021.3z"/> <path class="st4" d="M747.5,988.9c3.5,3.8,5.3,10.2,5.3,18.9s-1.8,15.1-5.3,18.9c-3.5,3.9-8.7,5.8-15.8,5.8 c-7.1,0-12.4-1.9-15.9-5.8c-3.5-3.9-5.2-10.2-5.2-18.9c0-8.7,1.7-15,5.2-18.9c3.6-3.9,8.9-5.8,15.9-5.8 C738.8,983.1,744,985,747.5,988.9z M740.7,1021.3c1.9-2.8,2.9-7.3,2.9-13.5s-1-10.7-2.9-13.5c-1.9-2.8-4.9-4.2-9.1-4.2 s-7.2,1.4-9.1,4.2c-1.9,2.8-2.8,7.3-2.8,13.5c0,6.2,0.9,10.7,2.8,13.5c1.9,2.8,5,4.2,9.1,4.2S738.9,1024.1,740.7,1021.3z"/> <path class="st4" d="M784.7,1029.5v16.5h-8.4v-50.3h8.1v2.2c4.4-2.2,8.3-3.2,11.6-3.2c5,0,8.7,1.5,11,4.6c2.4,3.1,3.5,7.8,3.5,14.3 c0,6.5-1.2,11.3-3.5,14.3c-2.4,3.1-6,4.6-11,4.6C792.7,1032.6,789,1031.6,784.7,1029.5z M784.7,1004v19.4c3.6,1.7,6.6,2.6,8.9,2.6 c3,0,5.2-1,6.5-2.9c1.3-1.9,1.9-5.1,1.9-9.4c0-4.4-0.6-7.5-1.9-9.4c-1.3-1.9-3.5-2.9-6.5-2.9C791.3,1001.4,788.3,1002.2,784.7,1004 z"/> <path class="st4" d="M822.2,995.7l6.3,19.3c1,2.5,2.2,6,3.7,10.7c2.4-6.8,3.7-10.3,3.8-10.7l6.3-19.3h9l-13.6,38.4 c-1.6,4.6-3.7,7.9-6.1,9.9c-2.4,2-5.7,3-9.7,3c-1.6,0-3.2-0.1-4.8-0.4l0.6-6.8c1.1,0.3,2.4,0.4,3.8,0.4c2.3,0,4.1-0.6,5.4-1.7 c1.3-1.1,2.4-3.1,3.3-5.9l0.5-1.6h-5.2l-12.5-35.2H822.2z"/> <path class="st4" d="M864.1,998.6c4.3-2,8.2-3,11.7-3c11.3,0,16.9,6.2,16.9,18.5c0,12.3-6.1,18.5-18.2,18.5 c-6.7,0-11.6-1.9-14.6-5.8c-3-3.8-4.5-9.9-4.5-18.3c0-6.8,0.7-12.2,2.2-16.2c1.5-4.1,3.7-7.1,6.5-9c2.8-1.9,6.5-3.2,11.1-3.9 c6.6-1,11.2-1.8,13.8-2.4l1.1,7.1c-1.9,0.5-6.4,1.3-13.5,2.4c-4.2,0.6-7.3,1.9-9.2,3.7C865.4,992.1,864.3,994.9,864.1,998.6z M884.2,1014.1c0-4.2-0.7-7.2-2.1-9.1c-1.4-1.9-3.8-2.8-7.2-2.8c-3,0-6.6,0.9-10.7,2.6c-0.1,2.6-0.1,4.8-0.1,6.6 c0,9.7,3.5,14.5,10.6,14.5C880.9,1026,884.2,1022,884.2,1014.1z"/> <path class="st4" d="M908.7,1022.5v9.1h-8.9v-9.1H908.7z"/> </g> <g> <path class="st3" d="M1114,997.7c0,4.1-1.1,7.3-3.2,9.7c-2.1,2.4-6,4.2-12,5.6l-1.2,0.3c-3.7,1-6.3,2.2-7.6,3.7 c-1.2,1.5-1.9,4-1.9,7.5h25.6v7.1h-34v-7.1c0-5,1-8.9,3.1-11.5c2.1-2.7,6-4.8,11.5-6.3l1.2-0.3c3.4-0.8,5.8-1.7,7.2-2.8 c1.3-1.1,2-2.9,2-5.5c0-5.2-3.2-7.8-9.6-7.8c-3.7,0-8,0.8-12.9,2.4l-1.2-7.8c6.1-1.2,11-1.8,14.6-1.8c6.1,0,10.7,1.3,13.8,3.9 C1112.5,989.5,1114,993.1,1114,997.7z"/> <path class="st3" d="M1139.4,984.1v47.5h-8.9v-40.4h-9.8v-7.1H1139.4z"/> <path class="st3" d="M1189.7,988.9c3.5,3.8,5.3,10.2,5.3,18.9s-1.8,15.1-5.3,18.9c-3.5,3.9-8.7,5.8-15.8,5.8 c-7.1,0-12.4-1.9-15.9-5.8c-3.5-3.9-5.2-10.2-5.2-18.9c0-8.7,1.7-15,5.2-18.9c3.6-3.9,8.9-5.8,15.9-5.8 C1180.9,983.1,1186.2,985,1189.7,988.9z M1182.9,1021.3c1.9-2.8,2.9-7.3,2.9-13.5s-1-10.7-2.9-13.5c-1.9-2.8-4.9-4.2-9.1-4.2 s-7.2,1.4-9.1,4.2c-1.9,2.8-2.8,7.3-2.8,13.5c0,6.2,0.9,10.7,2.8,13.5c1.9,2.8,5,4.2,9.1,4.2S1181,1024.1,1182.9,1021.3z"/> <path class="st3" d="M1240.5,988.9c3.5,3.8,5.3,10.2,5.3,18.9s-1.8,15.1-5.3,18.9c-3.5,3.9-8.7,5.8-15.8,5.8 c-7.1,0-12.4-1.9-15.9-5.8c-3.5-3.9-5.2-10.2-5.2-18.9c0-8.7,1.7-15,5.2-18.9c3.6-3.9,8.9-5.8,15.9-5.8 C1231.8,983.1,1237,985,1240.5,988.9z M1233.7,1021.3c1.9-2.8,2.9-7.3,2.9-13.5s-1-10.7-2.9-13.5c-1.9-2.8-4.9-4.2-9.1-4.2 s-7.2,1.4-9.1,4.2c-1.9,2.8-2.8,7.3-2.8,13.5c0,6.2,0.9,10.7,2.8,13.5c1.9,2.8,5,4.2,9.1,4.2S1231.9,1024.1,1233.7,1021.3z"/> <path class="st3" d="M1277.7,1029.5v16.5h-8.4v-50.3h8.1v2.2c4.4-2.2,8.3-3.2,11.6-3.2c5,0,8.7,1.5,11,4.6 c2.4,3.1,3.5,7.8,3.5,14.3c0,6.5-1.2,11.3-3.5,14.3c-2.4,3.1-6,4.6-11,4.6C1285.7,1032.6,1282,1031.6,1277.7,1029.5z M1277.7,1004 v19.4c3.6,1.7,6.6,2.6,8.9,2.6c3,0,5.2-1,6.5-2.9c1.3-1.9,1.9-5.1,1.9-9.4c0-4.4-0.6-7.5-1.9-9.4c-1.3-1.9-3.5-2.9-6.5-2.9 C1284.3,1001.4,1281.3,1002.2,1277.7,1004z"/> <path class="st3" d="M1315.2,995.7l6.3,19.3c1,2.5,2.2,6,3.7,10.7c2.4-6.8,3.7-10.3,3.8-10.7l6.3-19.3h9l-13.6,38.4 c-1.6,4.6-3.7,7.9-6.1,9.9c-2.4,2-5.7,3-9.7,3c-1.6,0-3.2-0.1-4.8-0.4l0.6-6.8c1.1,0.3,2.4,0.4,3.8,0.4c2.3,0,4.1-0.6,5.4-1.7 s2.4-3.1,3.3-5.9l0.5-1.6h-5.2l-12.5-35.2H1315.2z"/> <path class="st3" d="M1357.1,998.6c4.3-2,8.2-3,11.7-3c11.3,0,16.9,6.2,16.9,18.5c0,12.3-6.1,18.5-18.2,18.5 c-6.7,0-11.6-1.9-14.6-5.8c-3-3.8-4.5-9.9-4.5-18.3c0-6.8,0.7-12.2,2.2-16.2c1.5-4.1,3.7-7.1,6.5-9c2.8-1.9,6.5-3.2,11.1-3.9 c6.6-1,11.2-1.8,13.8-2.4l1.1,7.1c-1.9,0.5-6.4,1.3-13.5,2.4c-4.2,0.6-7.3,1.9-9.2,3.7C1358.4,992.1,1357.3,994.9,1357.1,998.6z M1377.2,1014.1c0-4.2-0.7-7.2-2.1-9.1s-3.8-2.8-7.2-2.8c-3,0-6.6,0.9-10.7,2.6c-0.1,2.6-0.1,4.8-0.1,6.6c0,9.7,3.5,14.5,10.6,14.5 C1373.9,1026,1377.2,1022,1377.2,1014.1z"/> <path class="st3" d="M1401.7,1022.5v9.1h-8.9v-9.1H1401.7z"/> </g> <g> <path class="st3" d="M1594.4,997.7c0,4.1-1.1,7.3-3.2,9.7c-2.1,2.4-6,4.2-12,5.6l-1.2,0.3c-3.7,1-6.3,2.2-7.6,3.7 c-1.2,1.5-1.9,4-1.9,7.5h25.6v7.1h-34v-7.1c0-5,1-8.9,3.1-11.5c2.1-2.7,6-4.8,11.5-6.3l1.2-0.3c3.4-0.8,5.8-1.7,7.2-2.8 c1.3-1.1,2-2.9,2-5.5c0-5.2-3.2-7.8-9.6-7.8c-3.7,0-8,0.8-12.9,2.4l-1.2-7.8c6.1-1.2,11-1.8,14.6-1.8c6.1,0,10.7,1.3,13.8,3.9 C1592.9,989.5,1594.4,993.1,1594.4,997.7z"/> <path class="st3" d="M1619.9,984.1v47.5h-8.9v-40.4h-9.8v-7.1H1619.9z"/> <path class="st3" d="M1670.1,988.9c3.5,3.8,5.3,10.2,5.3,18.9s-1.8,15.1-5.3,18.9c-3.5,3.9-8.7,5.8-15.8,5.8 c-7.1,0-12.4-1.9-15.9-5.8c-3.5-3.9-5.2-10.2-5.2-18.9c0-8.7,1.7-15,5.2-18.9c3.6-3.9,8.9-5.8,15.9-5.8 C1661.4,983.1,1666.7,985,1670.1,988.9z M1663.4,1021.3c1.9-2.8,2.9-7.3,2.9-13.5s-1-10.7-2.9-13.5c-1.9-2.8-4.9-4.2-9.1-4.2 s-7.2,1.4-9.1,4.2c-1.9,2.8-2.8,7.3-2.8,13.5c0,6.2,0.9,10.7,2.8,13.5c1.9,2.8,5,4.2,9.1,4.2S1661.5,1024.1,1663.4,1021.3z"/> <path class="st3" d="M1721,988.9c3.5,3.8,5.3,10.2,5.3,18.9s-1.8,15.1-5.3,18.9c-3.5,3.9-8.7,5.8-15.8,5.8 c-7.1,0-12.4-1.9-15.9-5.8c-3.5-3.9-5.2-10.2-5.2-18.9c0-8.7,1.7-15,5.2-18.9c3.6-3.9,8.9-5.8,15.9-5.8 C1712.2,983.1,1717.5,985,1721,988.9z M1714.2,1021.3c1.9-2.8,2.9-7.3,2.9-13.5s-1-10.7-2.9-13.5c-1.9-2.8-4.9-4.2-9.1-4.2 s-7.2,1.4-9.1,4.2c-1.9,2.8-2.8,7.3-2.8,13.5c0,6.2,0.9,10.7,2.8,13.5c1.9,2.8,5,4.2,9.1,4.2S1712.3,1024.1,1714.2,1021.3z"/> <path class="st3" d="M1758.1,1029.5v16.5h-8.4v-50.3h8.1v2.2c4.4-2.2,8.3-3.2,11.6-3.2c5,0,8.7,1.5,11,4.6 c2.4,3.1,3.5,7.8,3.5,14.3c0,6.5-1.2,11.3-3.5,14.3c-2.4,3.1-6,4.6-11,4.6C1766.2,1032.6,1762.4,1031.6,1758.1,1029.5z M1758.1,1004v19.4c3.6,1.7,6.6,2.6,8.9,2.6c3,0,5.2-1,6.5-2.9c1.3-1.9,1.9-5.1,1.9-9.4c0-4.4-0.6-7.5-1.9-9.4s-3.5-2.9-6.5-2.9 C1764.7,1001.4,1761.7,1002.2,1758.1,1004z"/> <path class="st3" d="M1795.7,995.7l6.3,19.3c1,2.5,2.2,6,3.7,10.7c2.4-6.8,3.7-10.3,3.8-10.7l6.3-19.3h9l-13.6,38.4 c-1.6,4.6-3.7,7.9-6.1,9.9c-2.4,2-5.7,3-9.7,3c-1.6,0-3.2-0.1-4.8-0.4l0.6-6.8c1.1,0.3,2.4,0.4,3.8,0.4c2.3,0,4.1-0.6,5.4-1.7 c1.3-1.1,2.4-3.1,3.3-5.9l0.5-1.6h-5.2l-12.5-35.2H1795.7z"/> <path class="st3" d="M1837.6,998.6c4.3-2,8.2-3,11.7-3c11.3,0,16.9,6.2,16.9,18.5c0,12.3-6.1,18.5-18.2,18.5 c-6.7,0-11.6-1.9-14.6-5.8c-3-3.8-4.5-9.9-4.5-18.3c0-6.8,0.7-12.2,2.2-16.2c1.5-4.1,3.7-7.1,6.5-9c2.8-1.9,6.5-3.2,11.1-3.9 c6.6-1,11.2-1.8,13.8-2.4l1.1,7.1c-1.9,0.5-6.4,1.3-13.5,2.4c-4.2,0.6-7.3,1.9-9.2,3.7C1838.8,992.1,1837.8,994.9,1837.6,998.6z M1857.6,1014.1c0-4.2-0.7-7.2-2.1-9.1c-1.4-1.9-3.8-2.8-7.2-2.8c-3,0-6.6,0.9-10.7,2.6c-0.1,2.6-0.1,4.8-0.1,6.6 c0,9.7,3.5,14.5,10.6,14.5C1854.4,1026,1857.6,1022,1857.6,1014.1z"/> <path class="st3" d="M1882.2,1022.5v9.1h-8.9v-9.1H1882.2z"/> </g> </svg>