<?xml version="1.0" encoding="UTF-8"?> <svg xmlns="http://www.w3.org/2000/svg" xmlns:xlink="http://www.w3.org/1999/xlink" id="BACKGROUND_2" data-name="BACKGROUND 2" viewBox="0 0 750 750"> <defs> <linearGradient id="Безымянный_градиент_10" x1="2099.38" y1="1061.54" x2="2103.94" y2="1061.54" gradientUnits="userSpaceOnUse"> <stop offset="0" stop-color="#fff"></stop> <stop offset="1" stop-color="#f57a49" stop-opacity="0"></stop> </linearGradient> <linearGradient id="Безымянный_градиент_10-2" x1="1978.03" y1="686.72" x2="2728.03" y2="686.72" xlink:href="#Безымянный_градиент_10"></linearGradient> </defs> <title>151918-OUR8TU-327</title> <path d="M2099.38,1061.72h4.56l-0.18-.07A7.43,7.43,0,0,0,2099.38,1061.72Z" transform="translate(-1978.03 -311.72)" style="fill:url(#Безымянный_градиент_10)"></path> <path d="M2728,1052l-43.72-12.67h0c0-.1,0-0.21,0-0.31s0-.21,0-0.31,0-.29,0-0.43,0-.16,0-0.23l0-.15c0-.12,0-0.23-0.07-0.35l0-.08c0-.07,0-0.14-0.06-0.21s-0.08-.28-0.12-0.41l-0.07-.21-0.06-.14-0.13-.31-0.06-.14-0.12-.23-0.14-.26-0.14-.24-0.06-.09,0,0-0.16-.24-0.1-.15-0.15-.18-0.2-.25-0.22-.24,0,0,0,0-0.23-.23-0.1-.1-0.13-.11-0.32-.27-0.23-.17,0,0L2681,1033l-0.24-.15-0.25-.15-0.37-.2-0.3-.14-0.14-.07-0.21-.08-0.4-.14-0.2-.07-0.08,0-0.35-.08-0.15,0-0.23,0-0.43-.06-0.31,0h-0.32l-13.92-56.49,0.3-.17,0.09-.06a7.41,7.41,0,0,0,1.09-.86l0,0,0.05-.06a7.47,7.47,0,0,0,.87-1l0.11-.16a7.51,7.51,0,0,0,.61-1.1l0.08-.19a7.45,7.45,0,0,0,.38-1.2l0-.16a7.4,7.4,0,0,0,.15-1.28s0-.09,0-0.14a7.44,7.44,0,0,0-.1-1.28c0-.06,0-0.12,0-0.18s0-.27-0.08-0.4a7.52,7.52,0,0,0-.26-0.83l-0.06-.15a7.37,7.37,0,0,0-.37-0.79l42-40.29,0.11,0.06,0.36,0.2,0.31,0.14,0.14,0.06,0.21,0.08,0.41,0.14,0.2,0.07,0.08,0,0.35,0.09,0.14,0,0.23,0,0.44,0.06,0.24,0H2712l0.31,0,0.34,0,0.09,0,0.23,0,0.15,0,0.35-.07,0.08,0,0.21-.06,0.41-.12,0.21-.07,0.14-.06,0.31-.13,0.38-.18,0.26-.14,0.25-.14,0.09-.06,0,0,0.24-.16,0.34-.25,0.24-.2,0.24-.22,0,0,0,0,0.22-.23,0.22-.24,0.26-.32,0.17-.24,0,0,0.07-.09,0.15-.24,0-.05,9.85,2.85v-4.14l-8.74-2.53h0c0-.1,0-0.21,0-0.31s0-.21,0-0.31,0-.29,0-0.44,0-.15,0-0.23l0-.15c0-.12,0-0.24-0.07-0.35l0-.08c0-.07,0-0.14-0.06-0.2s-0.08-.28-0.12-0.41l-0.07-.21-0.06-.14-0.13-.31c-0.06-.13-0.12-0.25-0.18-0.37l-0.14-.26-0.14-.24-0.06-.09,0,0-0.16-.24-0.25-.33-0.2-.25-0.22-.24,0,0,0,0-0.23-.23-0.24-.21-0.32-.26-0.23-.17,0,0-0.09-.07-0.24-.15-0.26-.15-0.37-.2-0.3-.14-0.14-.07-0.21-.08-0.4-.14-0.21-.07-0.08,0-0.35-.08-0.15,0-0.23,0-0.43-.06-0.31,0H2712l-13.92-56.48,0.05,0,0.24-.14,0.09-.06,0,0,0.25-.17,0.33-.25,0.25-.21,0.24-.22,0,0,0,0,0.23-.23,0.21-.24,0.27-.33,0.17-.23,0,0,0.06-.09,0.15-.24,0.15-.25,0.2-.37,0.14-.3,0.06-.14,0.08-.21c0.05-.13.1-0.27,0.14-0.4s0.05-.14.07-0.21l0-.08c0-.12.06-0.23,0.09-0.35l0-.15c0-.08,0-0.15,0-0.23s0-.29.06-0.43,0-.21,0-0.31,0-.21,0-0.31,0-.09,0-0.13,0-.21,0-0.31,0-.2,0-0.3,0-.3,0-0.45,0-.15,0-0.23l0-.15c0-.12,0-0.24-0.07-0.36l0-.08c0-.07,0-0.13-0.06-0.2s-0.08-.28-0.13-0.42l-0.07-.21-0.06-.14-0.13-.31c-0.06-.13-0.12-0.25-0.18-0.37l-0.06-.11,27-25.93v-5.51l-29.75,28.57-0.11-.06-0.36-.2-0.31-.14-0.14-.06-0.21-.08-0.41-.14-0.2-.07-0.08,0-0.35-.09-0.14,0-0.23,0-0.44-.06-0.3,0h-0.75l-0.31,0-0.44,0-0.23,0-0.15,0-0.35.07-0.08,0-0.21.06-0.41.12-0.21.07-0.14.06-0.31.13-0.38.18-0.26.14-0.25.14-0.09.06,0,0-0.24.16-0.34.25-0.24.2-0.24.22,0,0,0,0-0.22.23-0.22.24-0.26.32-0.17.24,0,0-0.07.09-0.15.24,0,0.05-55.87-16.19h0c0-.1,0-0.21,0-0.31s0-.21,0-0.31,0-.29,0-0.44,0-.15,0-0.23l0-.15c0-.12,0-0.24-0.07-0.35l0-.08c0-.07,0-0.14-0.06-0.21s-0.08-.28-0.12-0.41l-0.07-.21-0.06-.15-0.13-.31c-0.06-.13-0.12-0.25-0.18-0.37l-0.14-.26-0.14-.24-0.06-.09,0,0-0.16-.24-0.25-.33-0.21-.25-0.22-.24,0,0,0,0-0.23-.23-0.24-.21-0.32-.26-0.23-.17,0,0-0.06,0,0,0-0.24-.15-0.25-.15-0.37-.2-0.3-.14-0.14-.07-0.2-.08-0.41-.14-0.2-.07-0.08,0-0.35-.09-0.07,0h-0.07l-0.23,0-0.43-.06-0.31,0H2625l-13.92-56.48,0.05,0,0.24-.14,0.09-.06,0,0,0.14-.09,0.1-.08,0.33-.25,0.25-.21,0.24-.22,0,0,0,0,0.23-.23,0.21-.24,0.27-.33,0.17-.23,0,0,0.06-.09,0.15-.24,0.15-.25c0.07-.12.14-0.24,0.2-0.37l0.14-.3,0.06-.14,0.08-.21c0.05-.13.1-0.27,0.14-0.4s0.05-.14.07-0.21l0-.08c0-.12.06-0.23,0.09-0.35l0-.15c0-.08,0-0.15,0-0.23s0-.29.06-0.43,0-.21,0-0.31,0-.21,0-0.31,0-.09,0-0.13,0-.21,0-0.31,0-.2,0-0.3,0-.3,0-0.45,0-.15,0-0.23l0-.15c0-.12,0-0.24-0.07-0.36l0-.08c0-.07,0-0.13-0.06-0.2s-0.08-.28-0.13-0.42l-0.07-.21-0.06-.14-0.13-.31c-0.06-.13-0.12-0.25-0.18-0.37l-0.06-.11,42-40.29,0.11,0.06,0.36,0.2,0.31,0.14,0.14,0.06,0.21,0.08,0.41,0.14,0.2,0.07,0.08,0,0.35,0.09,0.14,0,0.23,0,0.44,0.06,0.24,0H2660l0.31,0,0.34,0,0.09,0,0.23,0,0.15,0,0.35-.07,0.08,0,0.21-.06,0.41-.12,0.21-.07,0.14-.06,0.31-.13,0.38-.18,0.26-.14,0.25-.14,0.09-.06,0,0,0.24-.16,0.34-.25,0.24-.2,0.24-.22,0,0,0,0,0.22-.23,0.22-.24,0.26-.32,0.17-.24,0,0,0.07-.09,0.15-.24,0-.05L2722,727.24h0c0,0.1,0,.21,0,0.31s0,0.21,0,.31,0,0.29,0,.44,0,0.16,0,.23l0,0.15c0,0.12,0,.24.07,0.35l0,0.08c0,0.07,0,.14.06,0.2s0.08,0.28.12,0.41l0.07,0.21,0.06,0.14,0.13,0.31c0.06,0.13.12,0.25,0.18,0.37L2723,731l0.14,0.24,0.06,0.09,0,0,0.16,0.24,0.25,0.33,0.2,0.25,0.22,0.24,0,0,0,0,0.23,0.23,0.24,0.21,0.32,0.26,0.23,0.17,0,0,0.09,0.07,0.24,0.15,0.25,0.15,0.37,0.2,0.3,0.14,0.14,0.07,0.21,0.08,0.4,0.14,0.21,0.07,0.08,0,0.35,0.08,0.15,0,0.08,0V720l-0.29.06-0.08,0-0.21.06-0.41.12-0.21.07-0.14.06-0.31.13-0.38.18-0.26.14-0.25.14-0.09.06,0,0-0.24.16-0.34.25-0.24.2-0.13.11-0.11.11,0,0,0,0-0.22.23-0.22.25-0.26.32-0.08.1-0.09.14,0,0-0.07.09-0.15.23,0,0.05-55.87-16.19h0c0-.1,0-0.21,0-0.31s0-.21,0-0.31,0-.29,0-0.44,0-.15,0-0.23l0-.15c0-.08,0-0.16,0-0.24l0-.11,0-.08c0-.07,0-0.14-0.06-0.2s-0.08-.28-0.12-0.41l-0.07-.21-0.06-.14-0.13-.31c-0.06-.13-0.12-0.25-0.18-0.37l-0.08-.16-0.06-.1-0.14-.24-0.06-.09,0,0-0.16-.24-0.25-.33-0.11-.14-0.1-.11-0.22-.24,0,0,0,0-0.23-.23-0.24-.21-0.32-.27-0.23-.17,0,0-0.09-.07-0.24-.15-0.25-.15-0.37-.2-0.3-.14-0.09,0-0.06,0-0.21-.08L2662,700l-0.21-.07-0.08,0-0.35-.08-0.15,0-0.23,0-0.43-.06-0.31,0H2660L2646,643.19a7.47,7.47,0,1,0-3.86,1l13.92,56.48-0.05,0-0.24.14-0.09.06,0,0-0.25.17-0.33.25-0.25.21-0.13.11-0.11.11,0,0,0,0-0.23.23-0.21.24-0.27.32-0.08.1-0.09.14,0,0-0.06.09-0.15.24-0.15.25-0.2.37-0.14.3-0.06.14-0.08.21c-0.05.13-.1,0.27-0.14,0.41s0,0.13-.07.2l0,0.08c0,0.12-.06.23-0.09,0.35l0,0.15c0,0.08,0,.15,0,0.23s0,0.29-.06.44,0,0.16,0,.24,0,0,0,.07,0,0.05,0,.08,0,0.16,0,.24,0,0.08,0,.13,0,0.21,0,.31,0,0,0,.06,0,0.16,0,.24,0,0.3,0,.44,0,0.15,0,.23l0,0.15c0,0.12,0,.24.07,0.35l0,0.08c0,0.07,0,.14.06,0.2s0.08,0.28.12,0.41l0.07,0.21,0.06,0.14,0.13,0.31c0.06,0.13.12,0.25,0.18,0.37l0.06,0.11-42,40.29-0.11-.06-0.36-.2-0.31-.14-0.14-.06-0.21-.08-0.41-.14-0.2-.07-0.08,0-0.35-.09-0.14,0-0.23,0-0.44-.06-0.3,0h-0.75l-0.31,0-0.44,0-0.23,0-0.15,0-0.35.07-0.08,0-0.21.06-0.41.12-0.21.07-0.14.06-0.31.13-0.38.18-0.26.14-0.25.14-0.09.06,0,0-0.24.16-0.34.25-0.24.2-0.24.22,0,0,0,0-0.23.23-0.22.24-0.26.32-0.17.24,0,0-0.07.09-0.15.24,0,0.05-55.87-16.19h0c0-.1,0-0.21,0-0.31s0-.21,0-0.31,0-.29,0-0.44,0-.15,0-0.23l0-.15c0-.12,0-0.24-0.07-0.35l0-.08c0-.07,0-0.14-0.06-0.21s-0.08-.28-0.12-0.41l-0.07-.21-0.06-.14-0.13-.31c-0.06-.13-0.12-0.25-0.18-0.37l-0.14-.26-0.14-.24-0.06-.09,0,0-0.16-.24-0.25-.33-0.2-.25-0.22-.24,0,0,0,0-0.23-.23-0.24-.21-0.32-.26-0.23-.17,0,0-0.09-.07-0.24-.15-0.25-.15-0.37-.2-0.3-.14-0.14-.07-0.21-.08-0.41-.14-0.2-.07-0.08,0-0.35-.09-0.15,0-0.23,0-0.43-.06-0.31,0h-0.32L2524,673.26l0.06,0,0.24-.14,0.09-.06,0,0,0.25-.17,0.33-.25,0.25-.21,0.24-.22,0,0,0,0,0.23-.23,0.21-.24,0.27-.33,0.17-.23,0,0,0.06-.09,0.15-.24,0.15-.25,0.2-.37,0.14-.3,0.06-.14,0.08-.21c0.05-.13.1-0.27,0.14-0.4s0.05-.14.07-0.21l0-.08c0-.12.06-0.23,0.09-0.35l0-.15c0-.08,0-0.16,0-0.23s0-.29.06-0.43,0-.21,0-0.31,0-.21,0-0.31,0-.08,0-0.13,0-.21,0-0.31,0-.2,0-0.3,0-.3,0-0.45,0-.15,0-0.23l0-.15c0-.12,0-0.24-0.07-0.36l0-.08c0-.07,0-0.13-0.06-0.2s-0.08-.28-0.13-0.42l-0.07-.21-0.06-.14-0.13-.31c-0.06-.13-0.12-0.25-0.18-0.37l-0.06-.11,42-40.29a7.51,7.51,0,0,0,.78.4l0.19,0.08,0.27,0.12a7.46,7.46,0,0,0,.93.27l0.15,0a7.41,7.41,0,0,0,1,.15h0.38a7.43,7.43,0,0,0,1.28-.1l0.18,0,0.4-.08a7.49,7.49,0,0,0,.83-0.26l0.15-.06a7.43,7.43,0,0,0,1.18-.59l0.09-.06a7.42,7.42,0,0,0,1.1-.86l0,0,0-.06a7.47,7.47,0,0,0,.88-1l0.11-.16a7.51,7.51,0,0,0,.61-1.1l0.08-.19a7.43,7.43,0,0,0,.38-1.2l0-.16a7.4,7.4,0,0,0,.15-1.28s0-.1,0-0.14a7.43,7.43,0,0,0-.1-1.27c0-.06,0-0.12,0-0.18s0-.27-0.08-0.4a7.53,7.53,0,0,0-.26-0.83l-0.06-.15a7.43,7.43,0,0,0-.59-1.18l-0.06-.09a7.43,7.43,0,0,0-.86-1.1l0,0-0.06-.05a7.48,7.48,0,0,0-1-.87l-0.16-.11a7.49,7.49,0,0,0-1.1-.61l-0.19-.08a7.47,7.47,0,0,0-1.2-.38l-0.16,0a7.41,7.41,0,0,0-1.27-.15h0L2559,552.55l0.3-.17,0.09-.06a7.42,7.42,0,0,0,1.09-.86l0,0,0.05-.06a7.48,7.48,0,0,0,.87-1l0.11-.16a7.52,7.52,0,0,0,.61-1.1l0.08-.19a7.46,7.46,0,0,0,.38-1.2l0-.16a7.39,7.39,0,0,0,.15-1.28s0-.09,0-0.14a7.43,7.43,0,0,0-.1-1.28l0-.18c0-.13,0-0.27-0.08-0.4a7.55,7.55,0,0,0-.26-0.83l-0.06-.15a7.44,7.44,0,0,0-.37-0.79l42-40.29,0.11,0.06,0.36,0.2,0.31,0.14,0.14,0.06,0.2,0.08,0.41,0.14,0.2,0.07,0.08,0,0.35,0.09,0.14,0,0.23,0,0.44,0.06,0.3,0h0.75l0.31,0,0.44,0,0.23,0,0.15,0,0.35-.07,0.08,0,0.21-.06,0.41-.12,0.21-.07,0.14-.06,0.31-.13,0.38-.18,0.26-.14,0.25-.14,0.09-.06,0,0,0.24-.16,0.34-.25,0.24-.2,0.24-.22,0,0,0,0,0.22-.23,0.22-.24,0.26-.32,0.17-.24,0,0,0.07-.09,0.15-.24,0-.05,55.87,16.19h0a7.4,7.4,0,0,0,.1,1.28l0,0.16a7.5,7.5,0,0,0,.23.93c0,0.09.07,0.18,0.1,0.28l0.07,0.19a7.51,7.51,0,0,0,.56,1.12l0.1,0.17a7.47,7.47,0,0,0,.83,1.06l0,0.06,0,0a7.41,7.41,0,0,0,1.06.9l0.09,0.07a7.43,7.43,0,0,0,1.16.64l0.15,0.07a7.51,7.51,0,0,0,.81.29l0.4,0.09,0.18,0a7.41,7.41,0,0,0,1.27.15h0.15a7.4,7.4,0,0,0,1.28-.1l0.16,0a7.45,7.45,0,0,0,1.21-.33l0.19-.07a7.51,7.51,0,0,0,1.13-.56l0.17-.1a7.48,7.48,0,0,0,1.06-.83l0.06,0,0,0a7.42,7.42,0,0,0,.9-1.06l0.06-.09a7.42,7.42,0,0,0,.64-1.16l0.07-.15a7.52,7.52,0,0,0,.29-0.82c0-.13.06-0.27,0.09-0.4l0-.18a7.42,7.42,0,0,0,.15-1.27s0-.09,0-0.14a7.4,7.4,0,0,0-.1-1.28l0-.16a7.46,7.46,0,0,0-.33-1.21l-0.07-.19a7.56,7.56,0,0,0-.37-0.8l42-40.29,0.11,0.06,0.36,0.2,0.31,0.14,0.14,0.06,0.21,0.08,0.41,0.14,0.2,0.07,0.08,0L2728,473V450.6l-12-48.83,0.05,0,0.24-.14,0.09-.06,0,0,0.25-.17,0.33-.25,0.25-.21,0.24-.22,0,0,0,0,0.23-.23,0.21-.24,0.27-.33,0.17-.23,0,0,0.06-.09,0.15-.24,0.15-.25,0.2-.37,0.14-.3,0.06-.14,0.08-.21c0.05-.13.1-0.27,0.14-0.4s0.05-.14.07-0.21l0-.08c0-.12.06-0.23,0.09-0.35l0-.15c0-.08,0-0.15,0-0.23s0-.29.06-0.43,0-.21,0-0.31,0-.21,0-0.31,0-.09,0-0.13,0-.21,0-0.31,0-.2,0-0.3,0-.3,0-0.45,0-.15,0-0.23l0-.15c0-.12,0-0.24-0.07-0.36l0-.08c0-.07,0-0.13-0.06-0.2s-0.08-.28-0.13-0.42l-0.07-.21-0.06-.14-0.13-.31c-0.06-.13-0.12-0.25-0.18-0.37l-0.06-.11L2728,383v-5.51l-11.87,11.39-0.11-.06-0.36-.2-0.31-.14-0.14-.06-0.21-.08-0.41-.14-0.2-.07-0.08,0L2714,388l-0.14,0-0.17,0h-0.06l-0.44-.06-0.3,0h-0.75l-0.31,0-0.44,0-0.23,0-0.15,0-0.35.07-0.08,0-0.21.06-0.29.08-0.12,0-0.21.07-0.14.06-0.2.08-0.11.05-0.37.18-0.26.14-0.24.14-0.09.06,0,0-0.14.09-0.1.08-0.34.25-0.24.2-0.24.22,0,0,0,0-0.22.23-0.22.24-0.26.32-0.17.24,0,0-0.07.09-0.15.24,0,0.05-55.87-16.19c0-.11,0-0.21,0-0.32s0-.21,0-0.31,0-.23,0-0.34l0-.09c0-.09,0-0.18,0-0.27s-0.05-.31-0.09-0.46l0-.08c0-.07,0-0.14-0.06-0.21s-0.08-.28-0.12-0.41-0.08-.23-0.13-0.34-0.05-.14-0.08-0.21l-0.05-.11c-0.06-.13-0.12-0.25-0.18-0.37l-0.14-.26-0.23-.37-0.16-.24-0.25-.33-0.2-.25-0.25-.27-0.14-.15-0.13-.12-0.24-.21-0.32-.26L2647,369l-0.36-.24-0.26-.15-0.37-.2-0.32-.15-0.34-.14-0.41-.14-0.2-.07-0.08,0-0.46-.11-0.27-.06-0.43-.06-0.31,0h-0.32l-13.77-55.89H2623l0.2,0.07,0.08,0,0.35,0.08,0.15,0,0.23,0,0.43,0.06,0.31,0h0.32L2639,368.56l-0.06,0-0.36.22-0.25.17-0.33.25-0.25.21-0.27.25-0.27.27-0.21.24-0.27.33-0.17.23-0.25.37-0.15.25-0.2.37-0.14.31c0,0.11-.1.22-0.14,0.34s-0.1.27-.14,0.4-0.05.14-.07,0.21l0,0.08c0,0.15-.08.3-0.11,0.46s0,0.18-.06.27,0,0.29-.06.43,0,0.21,0,.31,0,0.24,0,.37,0,0.26,0,.38,0,0.2,0,.3,0,0.3,0,.45,0,0.18,0,.26,0.05,0.32.09,0.47l0,0.08c0,0.07,0,.13.06,0.2s0.08,0.28.13,0.42,0.08,0.22.13,0.33l0.14,0.33c0.06,0.13.12,0.25,0.18,0.37l0.14,0.27,0.23,0.37,0.16,0.24,0.25,0.33L2637,380l0.25,0.27,0.26,0.26,0.24,0.21,0.32,0.26,0.23,0.17,0.36,0.24,0.26,0.15,0.36,0.2,0.32,0.15L2640,382l0.41,0.14,0.2,0.07,0.08,0,0.47,0.11,0.26,0.06,0.44,0.06,0.3,0h0.75l0.31,0,0.44,0,0.27,0,0.46-.09,0.08,0,0.21-.06,0.41-.12,0.34-.13,0.32-.13,0.38-.18,0.26-.14,0.37-.23,0.24-.16,0.34-.25,0.24-.2,0.28-.26,0.26-.26,0.22-.24,0.26-.32,0.17-.24L2649,379l0-.05,55.87,16.19h0c0,0.1,0,.21,0,0.31s0,0.21,0,.31,0,0.23,0,.34l0,0.09c0,0.08,0,.15,0,0.23l0,0.15c0,0.12,0,.24.07,0.35l0,0.08c0,0.07,0,.14.06,0.21s0.08,0.28.12,0.41l0.07,0.21,0.06,0.14,0.13,0.31c0.06,0.13.12,0.25,0.18,0.37l0.14,0.26,0.14,0.24,0.06,0.09,0,0,0.09,0.14,0.08,0.1,0.25,0.33,0.2,0.25,0.22,0.24,0,0,0,0,0.1,0.11,0.13,0.12,0.24,0.21,0.32,0.26,0.23,0.17,0,0,0.09,0.07,0.24,0.15,0.26,0.15,0.37,0.2,0.3,0.14,0.14,0.07,0.21,0.08,0.41,0.14,0.2,0.07,0.08,0,0.35,0.08,0.15,0,0.23,0,0.43,0.06,0.31,0h0.32l13.91,56.48-0.05,0-0.24.14-0.09.06,0,0-0.25.17-0.33.25-0.25.21-0.24.22,0,0,0,0-0.23.23-0.21.24-0.27.33-0.17.23,0,0,0,0.05,0,0-0.15.24-0.15.25c-0.07.12-.14,0.24-0.2,0.37l-0.14.3-0.06.14-0.08.21c-0.05.13-.1,0.27-0.14,0.4s-0.05.14-.07,0.21l0,0.08c0,0.12-.06.23-0.09,0.35l0,0.15c0,0.08,0,.15,0,0.23s0,0.29-.06.43,0,0.21,0,.31,0,0.21,0,.31,0,0,0,.06,0,0,0,.06,0,0.21,0,.31,0,0.2,0,.3,0,0.3,0,.44,0,0.15,0,.23l0,0.15c0,0.12,0,.24.07,0.36l0,0.08c0,0.07,0,.13.06,0.2s0.08,0.28.13,0.42l0.07,0.21,0.06,0.14,0.13,0.31c0.06,0.13.12,0.25,0.18,0.37l0.06,0.11-42,40.29a7.41,7.41,0,0,0-.77-0.4l-0.14-.07a7.5,7.5,0,0,0-.82-0.29l-0.4-.09-0.18,0a7.43,7.43,0,0,0-1.27-.15h-0.14a7.4,7.4,0,0,0-1.28.1l-0.16,0a7.46,7.46,0,0,0-1.21.33l-0.19.07a7.51,7.51,0,0,0-1.12.56l-0.17.1a7.51,7.51,0,0,0-.74.53l-0.33.3-0.06,0,0,0a7.41,7.41,0,0,0-.9,1.06l-0.07.09-0.18.29-55.88-16.19h0c0-.1,0-0.21,0-0.31s0-.21,0-0.31,0-.29,0-0.44,0-.15,0-0.23l0-.15c0-.12,0-0.24-0.07-0.35l0-.08c0-.07,0-0.14-0.06-0.21s-0.08-.28-0.12-0.41l-0.07-.21-0.06-.14-0.13-.31c-0.06-.13-0.12-0.25-0.18-0.37l-0.14-.26-0.14-.24-0.06-.09,0,0-0.16-.24-0.25-.33-0.2-.25-0.22-.24,0,0,0,0-0.23-.23-0.24-.21-0.32-.26-0.23-.17,0,0-0.09-.07-0.24-.15-0.25-.15-0.37-.2-0.3-.14-0.14-.06-0.21-.08-0.12,0-0.29-.09-0.2-.07-0.08,0-0.35-.08-0.15,0-0.23,0-0.43-.06-0.31,0h-0.32L2594,431.84l0.05,0,0.36-.22,0.25-.17,0.33-.25,0.25-.21,0.27-.25,0.27-.27,0.21-.24,0.27-.33,0.17-.23,0.25-.37,0.15-.25,0.2-.37,0.14-.31c0-.11.1-0.22,0.14-0.34s0.1-.27.14-0.4,0.05-.14.07-0.21l0-.08c0-.15.08-0.3,0.11-0.46s0-.18.06-0.27,0-.29.06-0.43,0-.21,0-0.31,0-.25,0-0.37,0-.25,0-0.38,0-.2,0-0.3,0-.3,0-0.45,0-.18,0-0.26-0.05-.32-0.09-0.47l0-.08c0-.07,0-0.13-0.06-0.2s-0.08-.28-0.13-0.42-0.08-.22-0.13-0.33l-0.14-.33c-0.06-.13-0.12-0.25-0.18-0.37l-0.14-.27-0.23-.37-0.16-.24-0.25-.33-0.21-.25-0.25-.27-0.26-.26-0.24-.21-0.32-.26-0.23-.17-0.36-.24-0.26-.15-0.36-.2-0.32-.15-0.33-.14-0.41-.14-0.2-.07-0.08,0-0.47-.11-0.26-.05-0.44-.06-0.3,0h-0.75l-0.31,0-0.44,0-0.27,0-0.46.09-0.08,0-0.21.06-0.41.12-0.34.13-0.32.13-0.38.18-0.26.14-0.16.09-0.21.14-0.24.16-0.34.25-0.24.2-0.28.26-0.26.26-0.11.11-0.11.14-0.26.32-0.08.1-0.09.14-0.24.36,0,0.05-55.87-16.19h0c0-.1,0-0.21,0-0.31s0-.21,0-0.31,0-.29,0-0.44,0-.15,0-0.23l0-.15c0-.12,0-0.24-0.07-0.35l0-.08c0-.07,0-0.14-0.06-0.2s-0.08-.28-0.12-0.41l-0.07-.21-0.06-.14-0.13-.31c-0.06-.13-0.12-0.25-0.18-0.37l-0.14-.26-0.14-.24-0.06-.09,0,0-0.16-.24-0.25-.33-0.21-.25L2526,400l0,0,0,0-0.23-.23-0.24-.21-0.32-.26-0.23-.17,0,0-0.09-.07-0.24-.15-0.25-.15-0.37-.2-0.3-.14-0.14-.07-0.21-.08-0.4-.14-0.21-.07-0.08,0-0.35-.08-0.15,0-0.23,0-0.43-.06-0.31,0h-0.32l-13.92-56.48,0.06,0,0.24-.14,0.09-.06,0,0,0.25-.17,0.33-.25,0.25-.21,0.24-.22,0,0,0,0,0.23-.23,0.21-.24,0.27-.33,0.17-.23,0,0,0.06-.09,0.15-.24,0.15-.25,0.2-.37,0.14-.3,0.06-.14,0.08-.21c0.05-.13.1-0.27,0.14-0.41s0.05-.13.07-0.2l0-.08c0-.12.06-0.23,0.09-0.35l0-.15c0-.08,0-0.15,0-0.23s0-.29.06-0.44,0-.2,0-0.31,0-.21,0-0.31,0-.08,0-0.13,0-.21,0-0.31,0-.2,0-0.31,0-.3,0-0.44,0-.15,0-0.23l0-.15c0-.12,0-0.24-0.07-0.35l0-.08c0-.07,0-0.14-0.06-0.2s-0.08-.28-0.12-0.42l-0.07-.21-0.06-.14-0.13-.31c-0.06-.13-0.12-0.25-0.18-0.37l-0.05-.11L2530,311.72h-5.74l-17.23,16.54-0.11-.06-0.36-.2-0.31-.14-0.14-.06-0.21-.08-0.41-.14-0.2-.07-0.08,0-0.35-.09-0.15,0-0.23,0-0.44-.06-0.31,0H2503l-0.31,0-0.44,0-0.23,0-0.15,0-0.35.07-0.08,0-0.21.06-0.41.12-0.21.07-0.14.06-0.31.13-0.38.18-0.26.14-0.25.14-0.09.06,0,0-0.24.16-0.34.25-0.24.2-0.24.22,0,0,0,0-0.22.23-0.22.24-0.26.32-0.18.24,0,0-0.07.09-0.15.24,0,0.05L2441,314.58c0-.11,0-0.21,0-0.32s0-.21,0-0.31,0-.29,0-0.44,0-.18,0-0.27-0.05-.31-0.09-0.46l0-.08c0-.07,0-0.14-0.06-0.21s-0.08-.28-0.12-0.41-0.08-.23-0.13-0.34v0h-13.86l0,0.08c-0.05.13-.1,0.27-0.14,0.4s-0.05.14-.07,0.21l0,0.08c0,0.15-.08.3-0.11,0.46s0,0.18-.06.27,0,0.29-.06.43,0,0.21,0,.31,0,0.25,0,.37,0,0.25,0,.38,0,0.2,0,.3,0,0.3,0,.44,0,0.18,0,.26,0.05,0.32.09,0.47l0,0.08c0,0.07,0,.13.06,0.2s0.08,0.28.13,0.42,0.08,0.22.13,0.34l0.14,0.33c0.06,0.13.12,0.25,0.18,0.37l0.14,0.27,0.23,0.37,0.16,0.24,0.25,0.33,0.2,0.25,0.25,0.28,0.26,0.26,0.24,0.22,0.32,0.26,0.23,0.17,0.36,0.24,0.26,0.15,0.36,0.2,0.32,0.15,0.33,0.14,0.41,0.14,0.2,0.07,0.08,0,0.47,0.11,0.26,0.05,0.44,0.06,0.3,0h0.75l0.31,0,0.44,0,0.27,0,0.46-.09,0.08,0,0.21-.06,0.41-.12,0.34-.13,0.32-.13,0.38-.18,0.26-.14,0.37-.23,0.24-.16,0.34-.25,0.24-.2,0.28-.26,0.26-.26,0.22-.24,0.26-.32,0.18-.24,0.24-.35,0-.05,55.87,16.19h0c0,0.1,0,.21,0,0.31s0,0.21,0,.31,0,0.29,0,.44,0,0.15,0,.23l0,0.15c0,0.12,0,.24.07,0.35l0,0.08c0,0.07,0,.14.06,0.2s0.08,0.28.12,0.41l0.07,0.21,0.06,0.14,0.13,0.31c0.06,0.13.12,0.25,0.18,0.37l0.14,0.26,0.14,0.24,0.06,0.09,0,0,0.16,0.24,0.25,0.33,0.21,0.25,0.22,0.24,0,0,0,0,0.23,0.23,0.24,0.21,0.32,0.26,0.23,0.17,0,0,0.09,0.07,0.24,0.15,0.25,0.15,0.37,0.2,0.3,0.14,0.14,0.07,0.21,0.08,0.4,0.14,0.21,0.07,0.08,0,0.35,0.08,0.15,0,0.23,0,0.43,0.06,0.31,0h0.32L2517,398.62l-0.05,0-0.24.14-0.09.06,0,0-0.24.16-0.33.25-0.25.21-0.24.22,0,0,0,0-0.23.23-0.21.24-0.27.32-0.17.23,0,0-0.07.09-0.15.24-0.15.25c-0.07.12-.14,0.24-0.2,0.37l-0.14.3-0.06.14-0.08.21c-0.05.13-.1,0.27-0.14,0.41s0,0.13-.07.2l0,0.08c0,0.12-.06.23-0.09,0.35l0,0.15c0,0.08,0,.15,0,0.23s0,0.29-.06.44,0,0.2,0,.31,0,0.21,0,.31,0,0.08,0,.13,0,0.21,0,.31,0,0.2,0,.31,0,0.3,0,.44,0,0.15,0,.23l0,0.15c0,0.12,0,.24.07,0.35l0,0.08c0,0.07,0,.14.06,0.2s0.08,0.28.12,0.41l0.07,0.21,0.06,0.14,0.13,0.31c0.06,0.13.12,0.25,0.18,0.37l0.05,0.11-42,40.29a7.43,7.43,0,0,0-.77-0.4l-0.14-.07a7.51,7.51,0,0,0-.82-0.29l-0.4-.09-0.18,0a7.44,7.44,0,0,0-1.27-.15h-0.14a7.41,7.41,0,0,0-1.28.1l-0.16,0a7.46,7.46,0,0,0-1.21.33l-0.19.07a7.5,7.5,0,0,0-1.12.56l-0.17.1a7.47,7.47,0,0,0-1.06.83l-0.06,0,0,0a7.42,7.42,0,0,0-.9,1.06l-0.07.09-0.18.29-55.88-16.19h0a7.4,7.4,0,0,0-.1-1.28l0-.16a7.47,7.47,0,0,0-.33-1.21s0-.07,0-0.11l0-.09a7.5,7.5,0,0,0-.56-1.12l-0.1-.17a7.48,7.48,0,0,0-.83-1.06l0-.06,0,0a7.41,7.41,0,0,0-1.06-.9l-0.09-.07a7.42,7.42,0,0,0-1.16-.64l-0.15-.07a7.5,7.5,0,0,0-.82-0.29l-0.4-.09-0.11,0h-0.07a7.41,7.41,0,0,0-1.27-.15h-0.14a7.4,7.4,0,0,0-1.28.1l-0.16,0a7.45,7.45,0,0,0-1.21.33l-0.19.07a7.51,7.51,0,0,0-1.13.56l-0.17.1a7.48,7.48,0,0,0-1.06.83l-0.06,0,0,0a7.43,7.43,0,0,0-.9,1.06l-0.06.09a7.43,7.43,0,0,0-.64,1.16l-0.07.14a7.5,7.5,0,0,0-.29.82c0,0.13-.06.27-0.09,0.4l0,0.18a7.44,7.44,0,0,0-.15,1.27s0,0.09,0,.14a7.42,7.42,0,0,0,.1,1.28l0,0.16a7.46,7.46,0,0,0,.33,1.22l0.07,0.19a7.52,7.52,0,0,0,.37.8l-42,40.29a7.41,7.41,0,0,0-.77-0.4l-0.14-.07a7.5,7.5,0,0,0-.82-0.29l-0.4-.09-0.18,0a7.43,7.43,0,0,0-1.27-.15h-0.14a7.39,7.39,0,0,0-1.28.1l-0.16,0a7.46,7.46,0,0,0-1.21.33l-0.19.07a7.5,7.5,0,0,0-1.12.56l-0.17.1a7.48,7.48,0,0,0-1.06.83l-0.06,0,0,0a7.41,7.41,0,0,0-.9,1.06l-0.07.09-0.18.29L2284,465.36h0c0-.1,0-0.21,0-0.31s0-.21,0-0.31,0-.29,0-0.44,0-.15,0-0.23l0-.15c0-.12,0-0.24-0.07-0.35l0-.08c0-.07,0-0.14-0.06-0.2s-0.08-.28-0.12-0.41l-0.07-.21-0.06-.14-0.13-.31c-0.06-.13-0.12-0.25-0.18-0.37l-0.14-.26-0.14-.24-0.06-.09,0,0-0.16-.24-0.25-.33-0.21-.25-0.22-.24,0,0,0,0-0.23-.23-0.24-.21-0.32-.26-0.23-.17,0,0-0.09-.07-0.24-.15-0.25-.15-0.37-.2-0.3-.14-0.14-.06-0.21-.08-0.4-.14-0.2-.07-0.08,0-0.35-.08-0.15,0-0.23,0-0.43-.06-0.31,0h-0.32l-13.92-56.48,0.05,0,0.24-.14,0.09-.06,0,0,0.25-.17,0.33-.25,0.25-.21,0.24-.22,0,0,0,0,0.23-.23,0.21-.24,0.27-.33,0.17-.23,0,0,0.06-.09,0.15-.24,0.15-.25,0.2-.37,0.14-.3,0.06-.14,0.08-.21c0.05-.13.1-0.27,0.14-0.41s0.05-.13.07-0.2l0-.08c0-.12.06-0.23,0.09-0.35l0-.15c0-.08,0-0.15,0-0.23s0-.29.06-0.44,0-.2,0-0.31,0-.21,0-0.31,0-.08,0-0.13,0-.21,0-0.31,0-.2,0-0.31,0-.3,0-0.44,0-.15,0-0.23l0-.15c0-.12,0-0.24-0.07-0.35l0-.08c0-.07,0-0.14-0.06-0.2s-0.08-.28-0.12-0.42l-0.07-.21-0.06-.14-0.13-.31c-0.06-.13-0.12-0.25-0.18-0.37l-0.05-.11,42-40.31a7.49,7.49,0,1,0-2.75-2.87l-42,40.31-0.11-.06-0.36-.2-0.31-.14-0.14-.06-0.21-.08-0.41-.14-0.2-.07-0.08,0-0.35-.09-0.15,0-0.23,0-0.44-.06-0.31,0H2259l-0.31,0-0.44,0-0.23,0-0.15,0-0.35.07-0.08,0-0.2.06-0.41.12-0.21.07-0.14.06-0.31.13-0.38.18-0.26.14-0.25.14-0.09.06,0,0-0.24.16-0.34.25-0.24.2-0.24.22,0,0,0,0-0.22.23-0.22.24-0.26.32-0.17.24,0,0-0.07.09-0.15.24,0,0.05L2197,374.71h0c0-.1,0-0.21,0-0.31s0-.21,0-0.31,0-.29,0-0.44,0-.15,0-0.23l0-.15c0-.12,0-0.24-0.07-0.35l0-.08c0-.07,0-0.14-0.06-0.21s-0.08-.28-0.12-0.41l-0.07-.21,0-.06,0-.09-0.13-.31c-0.06-.13-0.12-0.25-0.18-0.37l-0.14-.26-0.14-.24-0.06-.09,0,0-0.16-.24-0.25-.33-0.21-.25-0.22-.24,0,0,0,0-0.23-.23-0.24-.21-0.32-.26-0.23-.17,0,0-0.09-.07-0.24-.15-0.25-.15-0.37-.2-0.3-.14-0.14-.07-0.21-.08-0.41-.14-0.2-.07-0.08,0-0.35-.09-0.07,0H2191l-0.23,0-0.43-.06-0.31,0h-0.32l-13.66-55.43H2172l13.89,56.38-0.05,0-0.24.14-0.09.06,0,0-0.25.17-0.33.25-0.25.21-0.24.22,0,0,0,0-0.23.23-0.21.24-0.27.33-0.17.23,0,0-0.06.09-0.15.24-0.15.25-0.2.37-0.14.3-0.06.14-0.08.21c-0.05.13-.1,0.27-0.14,0.4s-0.05.14-.07,0.21l0,0.08c0,0.12-.06.23-0.09,0.35l0,0.15c0,0.08,0,.16,0,0.23s0,0.29-.06.43,0,0.21,0,.31,0,0.21,0,.31,0,0.08,0,.13,0,0.21,0,.31,0,0.2,0,.3,0,0.3,0,.44,0,0.15,0,.23l0,0.15c0,0.12,0,.24.07,0.36l0,0.08c0,0.07,0,.13.06,0.2s0.08,0.28.13,0.42l0.07,0.21,0.06,0.14,0.13,0.31c0.06,0.13.12,0.25,0.18,0.37l0.06,0.11-42,40.29a7.5,7.5,0,0,0-.78-0.4L2140,418a7.46,7.46,0,0,0-1.2-.38l-0.15,0a7.4,7.4,0,0,0-1.28-.15h-0.14a7.43,7.43,0,0,0-1.28.1l-0.18,0-0.4.08a7.53,7.53,0,0,0-.83.26l-0.15.06a7.41,7.41,0,0,0-1.18.59l-0.09.06a7.42,7.42,0,0,0-1.1.86l0,0,0,0.06a7.49,7.49,0,0,0-.87,1l-0.11.16a7.51,7.51,0,0,0-.61,1.1l-0.08.19a7.47,7.47,0,0,0-.38,1.2l0,0.16a7.39,7.39,0,0,0-.15,1.28s0,0.1,0,.14a7.42,7.42,0,0,0,.1,1.27l0,0.18c0,0.13,0,.27.08,0.4a7.5,7.5,0,0,0,.26.83l0.06,0.15a7.41,7.41,0,0,0,.59,1.18l0.06,0.09a7.42,7.42,0,0,0,.86,1.1l0,0,0.06,0.05a7.49,7.49,0,0,0,1,.87l0.16,0.11a7.5,7.5,0,0,0,1.1.61l0.19,0.08,0.27,0.11a7.47,7.47,0,0,0,.92.27l0.16,0a7.39,7.39,0,0,0,1,.15H2137l13.92,56.48-0.05,0-0.24.14-0.09.06,0,0-0.25.17-0.33.25-0.25.21-0.24.22,0,0,0,0-0.23.23-0.21.24-0.27.33-0.17.23,0,0-0.06.09-0.15.24-0.15.25-0.2.37-0.14.3-0.06.14-0.08.21c-0.05.13-.1,0.27-0.14,0.4s-0.05.14-.07,0.21l0,0.08c0,0.12-.06.23-0.09,0.35l0,0.15c0,0.08,0,.16,0,0.23s0,0.29-.06.43,0,0.21,0,.31,0,0.21,0,.31,0,0.08,0,.13,0,0.21,0,.31,0,0.2,0,.3,0,0.3,0,.44,0,0.15,0,.23l0,0.15c0,0.12,0,.24.07,0.36l0,0.08c0,0.07,0,.13.06,0.2s0.08,0.28.13,0.42l0.07,0.21,0.06,0.14,0.13,0.31c0.06,0.13.12,0.25,0.18,0.37l0.06,0.11-42,40.29-0.11-.06-0.36-.2-0.11-.06-0.2-.08-0.14-.06-0.2-.08-0.41-.14-0.2-.07-0.08,0-0.11,0-0.24-.05-0.15,0-0.23,0-0.09,0-0.35,0-0.3,0h-0.82l-0.24,0-0.44,0-0.23,0-0.15,0-0.35.07-0.08,0-0.21.06-0.41.12-0.21.07-0.14.06-0.31.13-0.37.18-0.26.14-0.24.14-0.09.06,0,0-0.24.16-0.16.1-0.18.15-0.25.2-0.24.22,0,0,0,0-0.23.23-0.11.11-0.11.14-0.26.32-0.18.24,0,0-0.07.09-0.15.24,0,0.05L2040,525.48h0c0-.1,0-0.21,0-0.31s0-.21,0-0.31,0-.29,0-0.44,0-.15,0-0.23l0-.15c0-.12,0-0.24-0.07-0.35l0-.08c0-.07,0-0.14-0.06-0.21s-0.08-.28-0.12-0.41l-0.07-.21-0.06-.14-0.13-.31c-0.06-.13-0.12-0.25-0.18-0.37l-0.14-.26-0.14-.24-0.06-.09,0,0-0.16-.24-0.25-.33-0.2-.25-0.22-.24,0,0,0,0-0.23-.23-0.24-.21-0.32-.26-0.23-.17,0,0-0.09-.07-0.24-.15-0.26-.15-0.37-.2-0.3-.14-0.14-.07-0.21-.08-0.41-.14-0.2-.07-0.08,0-0.35-.08-0.15,0-0.23,0-0.43-.06-0.31,0h-0.32l-13.91-56.48,0.05,0,0.24-.14,0.09-.06,0,0,0.25-.17,0.33-.25,0.25-.21,0.24-.22,0,0,0,0,0.23-.23,0.21-.24,0.27-.33,0.17-.23,0,0,0.06-.09,0.15-.24,0.15-.25,0.2-.37,0.14-.3,0.06-.14,0.08-.21c0.05-.13.1-0.27,0.14-0.4s0.05-.14.07-0.21l0-.08c0-.12.06-0.23,0.09-0.35l0-.15c0-.08,0-0.16,0-0.23s0-.29.06-0.43,0-.21,0-0.31,0-.21,0-0.31,0-.08,0-0.13,0-.21,0-0.31,0-.2,0-0.3,0-.3,0-0.45,0-.15,0-0.23l0-.15c0-.12,0-0.24-0.07-0.36l0-.08c0-.07,0-0.13-0.06-0.2s-0.08-.28-0.13-0.42l-0.07-.21-0.06-.14-0.13-.31c-0.06-.13-0.12-0.25-0.18-0.37l-0.06-.11,42-40.29a7.52,7.52,0,0,0,.78.4l0.19,0.08a7.46,7.46,0,0,0,1.2.38l0.15,0a7.38,7.38,0,0,0,1.28.15h0.14a7.44,7.44,0,0,0,1.28-.1l0.18,0,0.4-.08a7.5,7.5,0,0,0,.83-0.26l0.15-.06a7.42,7.42,0,0,0,1.19-.59l0.09-.06a7.43,7.43,0,0,0,1.1-.86l0,0,0-.06a7.48,7.48,0,0,0,.88-1l0.11-.16a7.5,7.5,0,0,0,.61-1.1l0.08-.19a7.44,7.44,0,0,0,.38-1.2l0-.16a7.39,7.39,0,0,0,.15-1c0-.08,0-0.16,0-0.23s0-.1,0-0.14a7.43,7.43,0,0,0-.1-1.27c0-.06,0-0.12,0-0.18s0-.27-0.08-0.4a7.53,7.53,0,0,0-.26-0.83l-0.06-.15c-0.06-.15-0.12-0.3-0.19-0.45a7.45,7.45,0,0,0-.41-0.73l-0.06-.09c-0.09-.15-0.19-0.29-0.29-0.43a7.45,7.45,0,0,0-.57-0.67l0,0-0.06-.05c-0.1-.11-0.2-0.21-0.31-0.31a7.47,7.47,0,0,0-.71-0.56l-0.17-.11a7.5,7.5,0,0,0-1.1-.61l-0.19-.08a7.47,7.47,0,0,0-1.2-.38l-0.16,0a7.41,7.41,0,0,0-1.27-.15h0l-13.92-56.48,0.05,0,0.24-.14,0.09-.06,0,0,0.25-.17,0.33-.25,0.25-.21,0.24-.22,0,0,0,0,0.23-.23,0.21-.24,0.27-.32,0.17-.23,0,0,0.07-.09,0.15-.24,0.15-.25c0.07-.12.14-0.24,0.2-0.37l0.14-.3,0.06-.14,0.08-.21c0.05-.13.1-0.27,0.14-0.41s0.05-.13.07-0.2l0-.08c0-.12.06-0.23,0.09-0.35l0-.15c0-.08,0-0.15,0-0.23s0-.29.06-0.44,0-.2,0-0.31,0-.21,0-0.31,0-.08,0-0.13,0-.21,0-0.31,0-.2,0-0.31,0-.3,0-0.44,0-.15,0-0.23l0-.15c0-.12,0-0.24-0.07-0.35l0-.08c0-.07,0-0.14-0.06-0.2s-0.08-.28-0.12-0.41l-0.07-.21-0.06-.14-0.13-.31c-0.06-.13-0.12-0.25-0.18-0.37l-0.06-.11,19.74-19h-5.74l-16.75,16.09-0.11-.06-0.36-.2-0.31-.14-0.14-.06-0.2-.08-0.41-.14-0.2-.07-0.08,0-0.35-.09-0.15,0-0.23,0-0.44-.06-0.3,0h-0.75l-0.31,0-0.44,0-0.23,0-0.15,0-0.35.07-0.08,0-0.21.06-0.41.12-0.21.07-0.14.06-0.31.13-0.38.18-0.26.14-0.25.14-0.09.06,0,0-0.24.16-0.34.25-0.24.2-0.24.22,0,0,0,0-0.22.23-0.22.24-0.26.32-0.18.24,0,0L2044,330l-0.15.24,0,0.05-55.87-16.19h0a7.42,7.42,0,0,0-.1-1.28l0-.16a7.41,7.41,0,0,0-.26-1H1978v9.37l0.33,0.12,0.4,0.09,0.18,0a7.44,7.44,0,0,0,1.27.15h0.14a7.39,7.39,0,0,0,1.28-.1l0.16,0A7.46,7.46,0,0,0,1983,321l0.19-.07a7.52,7.52,0,0,0,1.12-.56l0.17-.1a7.48,7.48,0,0,0,1.06-.83l0.06,0,0,0a7.42,7.42,0,0,0,.9-1.06l0.07-.09,0.18-.29,55.88,16.19h0c0,0.1,0,.21,0,0.31s0,0.21,0,.31,0,0.29,0,.44,0,0.15,0,.23l0,0.15c0,0.12,0,.24.07,0.35l0,0.08c0,0.07,0,.14.06,0.21s0.08,0.28.12,0.41l0.07,0.21,0.06,0.14,0.13,0.31c0.06,0.13.12,0.25,0.18,0.37l0.14,0.26,0.14,0.24,0.06,0.09,0,0,0.16,0.24,0.25,0.33,0.21,0.25,0.22,0.24,0,0,0,0,0.23,0.23,0.24,0.21,0.32,0.27,0.23,0.17,0,0,0.09,0.07,0.24,0.15,0.25,0.15,0.37,0.2,0.3,0.14,0.14,0.07,0.21,0.08,0.4,0.14,0.21,0.07,0.08,0,0.35,0.09,0.15,0,0.23,0,0.43,0.06,0.31,0h0.32l13.92,56.49-0.3.17-0.09.06a7.42,7.42,0,0,0-1.09.86l0,0-0.05.06a7.49,7.49,0,0,0-.87,1l-0.11.16a7.49,7.49,0,0,0-.61,1.1l-0.08.19a7.46,7.46,0,0,0-.38,1.2l0,0.16a7.4,7.4,0,0,0-.15,1.27s0,0.1,0,.14a7.43,7.43,0,0,0,.1,1.27c0,0.06,0,.12,0,0.18s0,0.27.08,0.4a7.55,7.55,0,0,0,.26.83l0.06,0.15a7.42,7.42,0,0,0,.37.79l-42,40.29-0.11-.06-0.36-.2-0.31-.14-0.14-.06-0.2-.08-0.41-.14-0.2-.07-0.08,0-0.35-.09-0.15,0-0.23,0-0.44-.06-0.3,0h-0.75l-0.31,0-0.44,0-0.23,0-0.15,0-0.35.07-0.08,0-0.21.06-0.41.12-0.21.07-0.14.06-0.31.13-0.37.18-0.26.14-0.24.14-0.09.06,0,0-0.24.16-0.34.25-0.24.2-0.24.22,0,0,0,0-0.23.23-0.22.24-0.26.32-0.18.24,0,0-0.07.09-0.15.24,0,0.05L1978,442.11v4.14l29.66,8.59h0c0,0.1,0,.21,0,0.31s0,0.21,0,.31,0,0.29,0,.44,0,0.15,0,.23l0,0.15c0,0.12,0,.24.07,0.35l0,0.08c0,0.07,0,.14.06,0.21s0.08,0.28.12,0.41l0.07,0.21,0.06,0.15,0.13,0.31c0.06,0.13.12,0.25,0.18,0.37l0.14,0.26,0.14,0.24,0.06,0.09,0,0,0.16,0.24,0.25,0.33,0.21,0.25,0.22,0.24,0,0,0,0,0.23,0.23,0.24,0.21,0.32,0.26,0.23,0.17,0,0,0.09,0.07,0.24,0.15,0.26,0.15,0.37,0.2,0.3,0.14,0.14,0.07,0.21,0.08,0.41,0.14,0.2,0.07,0.08,0,0.35,0.09,0.15,0,0.23,0,0.43,0.06,0.31,0h0.32l13.91,56.48-0.05,0-0.24.14-0.09.06,0,0-0.25.17-0.33.25-0.25.21-0.24.22,0,0,0,0-0.23.23-0.21.24-0.27.33-0.17.23,0,0-0.06.09-0.15.24-0.15.25-0.2.37-0.14.3-0.06.14-0.08.21c-0.05.13-.1,0.27-0.14,0.4s-0.05.14-.07,0.21l0,0.08c0,0.12-.06.23-0.09,0.35l0,0.15c0,0.08,0,.15,0,0.23s0,0.29-.06.43,0,0.21,0,.31,0,0.21,0,.31,0,0.09,0,.13,0,0.21,0,.31,0,0.2,0,.3,0,0.3,0,.45,0,0.15,0,.23l0,0.15c0,0.12,0,.24.07,0.36l0,0.08c0,0.07,0,.13.06,0.2s0.08,0.28.13,0.42l0.07,0.21,0.06,0.14,0.13,0.31c0.06,0.13.12,0.25,0.18,0.37l0.06,0.11-42,40.29-0.11-.06-0.36-.2-0.31-.14-0.14-.06-0.2-.08-0.41-.14-0.2-.07-0.08,0-0.35-.09-0.15,0-0.23,0-0.44-.06-0.3,0H1980l-0.31,0-0.44,0-0.23,0-0.15,0-0.35.07-0.08,0-0.21.06-0.15,0V582.8l0.07,0,0.08,0,0.35,0.08,0.15,0,0.23,0,0.43,0.06,0.31,0H1980l13.92,56.48-0.05,0-0.24.14-0.09.06,0,0-0.25.17-0.15.1-0.18.14-0.25.21-0.24.22,0,0,0,0-0.23.23-0.1.1-0.11.13-0.27.33-0.17.23,0,0-0.06.09-0.15.24-0.06.1-0.08.16-0.2.37-0.14.3-0.06.14-0.08.21c-0.05.13-.1,0.27-0.14,0.4s-0.05.14-.07,0.21l0,0.08c0,0.12-.06.23-0.09,0.35l0,0.15c0,0.08,0,.15,0,0.23s0,0.29-.06.43,0,0.21,0,.31,0,0.21,0,.31,0,0,0,.06,0,0,0,.06,0,0.21,0,.31,0,0.2,0,.3,0,0.3,0,.45,0,0.15,0,.23l0,0.15c0,0.12,0,.24.07,0.36l0,0.08c0,0.07,0,.13.06,0.2s0,0.2.08,0.3l0,0.12,0.07,0.21,0.06,0.14,0.13,0.31c0.06,0.13.12,0.25,0.18,0.37l0.06,0.11L1978,662.08v5.51l15.69-15.07,0.11,0.06,0.37,0.2,0.31,0.14,0.14,0.06,0.21,0.08,0.41,0.14,0.2,0.07,0.08,0,0.35,0.09,0.07,0H1996l0.23,0,0.44,0.06,0.31,0h0.75l0.31,0,0.44,0,0.23,0,0.15,0,0.24,0,0.11,0,0.08,0,0.21-.06,0.41-.12,0.21-.07,0.14-.06,0.2-.08,0.11-.05,0.37-.18,0.26-.14,0.24-.14,0,0,0.06,0,0,0,0.14-.09,0.1-.08,0.33-.25,0.25-.2,0.24-.22,0,0,0,0,0.23-.23,0.22-.24,0.26-.32,0.17-.24,0,0,0.07-.09,0.15-.24,0-.05,55.87,16.19c0,0.11,0,.21,0,0.32s0,0.21,0,.31,0,0.29,0,.44,0,0.18,0,.27,0.05,0.31.09,0.46l0,0.08c0,0.07,0,.14.06,0.21s0.08,0.28.12,0.41,0.08,0.23.13,0.34l0.13,0.32c0.06,0.13.12,0.25,0.18,0.37l0.14,0.26,0.23,0.37,0.16,0.24,0.25,0.33,0.21,0.25,0.25,0.27,0.26,0.26,0.24,0.22,0.32,0.26,0.23,0.17,0.36,0.24,0.26,0.15,0.37,0.2,0.32,0.15,0.33,0.14,0.41,0.14,0.2,0.07,0.08,0,0.46,0.11,0.26,0.06,0.44,0.06,0.31,0H2067l13.92,56.48-0.05,0-0.24.14-0.09.06,0,0-0.25.17-0.33.25-0.25.21-0.24.22,0,0,0,0-0.23.23-0.21.24-0.27.33-0.17.23,0,0-0.06.09-0.15.24-0.15.25-0.2.37-0.14.3,0,0.09,0,0.06-0.08.21c-0.05.13-.1,0.27-0.14,0.4s-0.05.14-.07,0.21l0,0.08c0,0.12-.06.23-0.09,0.35l0,0.15c0,0.08,0,.15,0,0.23s0,0.29-.06.43,0,0.21,0,.31,0,0.21,0,.31,0,0.08,0,.13,0,0.21,0,.31,0,0.2,0,.3,0,0.3,0,.45,0,0.15,0,.23l0,0.15c0,0.12,0,.24.07,0.36l0,0.08c0,0.07,0,.13.06,0.2s0.08,0.28.13,0.42l0.07,0.21,0.06,0.14,0.13,0.31c0.06,0.13.12,0.25,0.18,0.37l0.06,0.11-42,40.29-0.11-.06-0.36-.2-0.31-.14-0.14-.06-0.2-.08-0.41-.14-0.2-.07-0.08,0-0.35-.09-0.15,0-0.23,0-0.44-.06-0.3,0H2032l-0.31,0-0.44,0-0.23,0-0.15,0-0.35.07-0.08,0-0.21.06-0.41.12-0.21.07-0.14.06-0.31.13-0.37.18-0.26.14-0.24.14,0,0-0.06,0,0,0-0.24.16-0.33.25-0.25.2-0.24.22,0,0,0,0-0.23.23-0.22.24-0.26.32-0.17.24,0,0-0.07.09-0.15.24,0,0.05L1978,769.23v4.14l46.76,13.55h0c0,0.1,0,.21,0,0.31s0,0.21,0,.31,0,0.29,0,.44,0,0.16,0,.23l0,0.15c0,0.12,0,.24.07,0.35l0,0.08c0,0.07,0,.14.06,0.21s0.08,0.28.12,0.41l0.07,0.21,0.06,0.14,0.13,0.31c0.06,0.13.12,0.25,0.18,0.37l0.14,0.26,0.14,0.24L2026,791l0,0,0.16,0.24,0.25,0.33,0.2,0.25,0.22,0.24,0,0,0,0,0.23,0.23,0.1,0.1,0.14,0.11,0.32,0.26,0.23,0.17,0,0,0.09,0.07,0.24,0.15,0.1,0.07,0.16,0.09,0.37,0.2,0.11,0.06,0.2,0.08,0.14,0.07,0.2,0.08,0.41,0.14,0.2,0.07,0.08,0,0.11,0,0.24,0,0.15,0,0.23,0,0.09,0,0.34,0,0.31,0H2032L2046,851l-0.05,0-0.24.14-0.09.06,0,0-0.25.17-0.33.25-0.25.21-0.24.22,0,0,0,0-0.23.23-0.21.24-0.27.33-0.17.23,0,0-0.06.09-0.15.24-0.15.25-0.2.37-0.14.3-0.06.14-0.08.21c-0.05.13-.1,0.27-0.14,0.4s-0.05.14-.07,0.21l0,0.08c0,0.12-.06.23-0.09,0.35l0,0.15c0,0.08,0,.15,0,0.23s0,0.29-.06.43,0,0.21,0,.31,0,0.21,0,.31,0,0.08,0,.13,0,0.21,0,.31,0,0.2,0,.3,0,0.3,0,.45,0,0.15,0,.23l0,0.15c0,0.12,0,.24.07,0.36l0,0.08c0,0.07,0,.13.06,0.2s0.08,0.28.13,0.42l0.07,0.21,0.06,0.14,0.13,0.31c0.06,0.13.12,0.25,0.18,0.37L2043,861l-42,40.29-0.11-.06-0.36-.2-0.31-.14-0.14-.06-0.2-.08-0.41-.14-0.2-.07-0.08,0-0.35-.09-0.15,0-0.23,0-0.44-.06-0.3,0H1997l-0.31,0-0.44,0-0.23,0-0.15,0-0.35.07-0.08,0-0.21.06-0.41.12-0.21.07-0.14.06-0.31.13-0.37.18-0.26.14-0.24.14-0.09.06,0,0-0.24.16-0.33.25-0.25.2-0.24.22,0,0,0,0-0.23.23-0.22.24-0.26.32-0.17.24,0,0-0.07.09-0.15.24,0,0.05L1978,900.08v4.14l11.78,3.41h0c0,0.1,0,.21,0,0.31s0,0.21,0,.31,0,0.29,0,.44,0,0.15,0,.23l0,0.15c0,0.12,0,.24.07,0.35l0,0.08c0,0.07,0,.14.06,0.21s0.08,0.28.12,0.41l0.07,0.21,0.06,0.14,0.13,0.31c0.06,0.13.12,0.25,0.18,0.37l0.14,0.26,0.14,0.24,0.06,0.09,0,0,0.16,0.24,0.25,0.33,0.2,0.25,0.22,0.24,0,0,0,0,0.23,0.23,0.24,0.22,0.32,0.26,0.23,0.17,0,0,0.09,0.07,0.24,0.15,0.26,0.15,0.37,0.2,0.3,0.14,0.14,0.07,0.2,0.08,0.41,0.14,0.2,0.07,0.08,0,0.35,0.09,0.15,0,0.23,0,0.44,0.06,0.31,0h0.32L2011,971.66l-0.05,0-0.24.14-0.09.06,0,0-0.25.17-0.33.25-0.25.21-0.24.22,0,0,0,0-0.23.23-0.21.24-0.27.33-0.17.23,0,0-0.06.09-0.15.24-0.15.25-0.2.37-0.14.3-0.06.14-0.08.21c-0.05.13-.1,0.27-0.14,0.4s-0.05.14-.07,0.21l0,0.08c0,0.12-.06.23-0.09,0.35l0,0.15c0,0.08,0,.16,0,0.23s0,0.29-.06.43,0,0.21,0,.31,0,0.21,0,.31,0,0.08,0,.13,0,0.21,0,.31,0,0.2,0,.3,0,0.3,0,.44,0,0.15,0,.23l0,0.15c0,0.12,0,.24.07,0.36l0,0.08c0,0.07,0,.13.06,0.2s0.08,0.28.13,0.42l0.07,0.21,0.06,0.14,0.13,0.31c0.06,0.13.12,0.25,0.18,0.37l0.06,0.11-30,28.84v5.51l32.78-31.48,0.11,0.06,0.36,0.2,0.31,0.14,0.14,0.06,0.2,0.08,0.41,0.14,0.2,0.07,0.08,0,0.35,0.09,0.15,0,0.23,0,0.44,0.06,0.3,0h0.75l0.31,0,0.44,0,0.23,0,0.15,0,0.35-.07,0.08,0,0.21-.06,0.41-.12,0.21-.07,0.14-.06,0.31-.13,0.38-.18,0.26-.14,0.25-.14,0.09-.06,0,0,0.24-.16,0.34-.25,0.24-.2,0.24-.22,0,0,0,0,0.23-.23,0.22-.24,0.26-.32,0.18-.24,0,0,0.07-.09,0.15-.24,0-.05,55.87,16.19h0a7.4,7.4,0,0,0,.1,1.28l0,0.16a7.46,7.46,0,0,0,.33,1.21l0.07,0.19a7.49,7.49,0,0,0,.56,1.12l0.1,0.17a7.48,7.48,0,0,0,.83,1.06l0,0.06,0,0a7.42,7.42,0,0,0,1.06.9l0.09,0.07a7.41,7.41,0,0,0,1.16.64l0.15,0.07a7.47,7.47,0,0,0,.81.29l0.4,0.09,0.18,0a7.42,7.42,0,0,0,1.27.15h0.15a7.4,7.4,0,0,0,1.28-.1l0.16,0a7.45,7.45,0,0,0,1.21-.33l0.19-.07a7.5,7.5,0,0,0,1.13-.56l0.17-.1a7.49,7.49,0,0,0,1.06-.83l0.06,0,0,0a7.42,7.42,0,0,0,.9-1.06l0.06-.09a7.42,7.42,0,0,0,.64-1.16l0.07-.14a7.5,7.5,0,0,0,.29-0.82c0-.13.06-0.26,0.09-0.4l0-.18a7.42,7.42,0,0,0,.15-1.27s0-.09,0-0.14a7.39,7.39,0,0,0-.1-1.28l0-.16a7.47,7.47,0,0,0-.33-1.21l-0.07-.19a7.5,7.5,0,0,0-.37-0.8l42-40.29,0.11,0.06,0.36,0.2,0.31,0.14,0.14,0.06,0.2,0.08,0.41,0.14,0.2,0.07,0.08,0,0.35,0.09,0.15,0,0.23,0,0.44,0.06,0.3,0h0.75l0.31,0,0.44,0,0.23,0,0.15,0,0.35-.07,0.08,0,0.21-.06,0.41-.12,0.21-.07,0.14-.06,0.31-.13,0.38-.18,0.26-.14,0.25-.14,0.09-.06,0,0,0.14-.09,0.1-.08,0.34-.25,0.24-.2,0.24-.22,0,0,0,0,0.23-.23,0.22-.24,0.26-.32,0.18-.24,0,0,0.07-.09,0.15-.24,0-.05,55.87,16.19c0,0.11,0,.21,0,0.32s0,0.21,0,.31,0,0.29,0,.44,0,0.18,0,.27,0.05,0.31.09,0.46l0,0.08c0,0.07,0,.14.06,0.21s0.08,0.28.12,0.41,0.08,0.23.13,0.34l0.13,0.32c0.06,0.13.12,0.25,0.18,0.37l0.14,0.26,0.23,0.37,0.16,0.24,0.25,0.33,0.21,0.25,0.25,0.27,0.26,0.26,0.24,0.21,0.32,0.26,0.23,0.17,0.36,0.24,0.26,0.15L2203,975l0.32,0.15,0.34,0.14,0.41,0.14,0.2,0.07,0.08,0,0.46,0.11,0.27,0.06,0.43,0.06,0.31,0h0.32l13.92,56.48-0.05,0-0.24.14-0.09.06,0,0-0.25.17-0.33.25-0.25.21-0.24.22,0,0,0,0-0.23.23-0.21.24-0.27.33-0.17.23,0,0-0.06.09-0.15.24-0.15.25c-0.07.12-.14,0.24-0.2,0.37l-0.14.3-0.06.14-0.08.21c-0.05.13-.1,0.27-0.14,0.4s-0.05.14-.07,0.21l0,0.08c0,0.12-.06.23-0.09,0.35l0,0.15c0,0.08,0,.15,0,0.23s0,0.29-.06.43,0,0.21,0,.31,0,0.21,0,.31,0,0.09,0,.13,0,0.21,0,.31,0,0.2,0,.3,0,0.3,0,.45,0,0.15,0,.23l0,0.15c0,0.12,0,.24.07,0.36l0,0.08c0,0.07,0,.13.06,0.2s0.08,0.28.13,0.42l0.07,0.21,0.06,0.14,0.13,0.31c0.06,0.13.12,0.25,0.18,0.37l0.06,0.11-20.21,19.41h5.73l17.23-16.54,0.11,0.06,0.37,0.2,0.31,0.14,0.14,0.06,0.21,0.08,0.12,0,0.29,0.09,0.2,0.07,0.08,0,0.35,0.09,0.15,0,0.23,0,0.44,0.06,0.31,0h0.75l0.31,0,0.44,0,0.23,0,0.15,0,0.35-.07,0.08,0,0.21-.06,0.41-.12,0.21-.07,0.14-.06,0.31-.13,0.38-.18,0.26-.14,0.25-.14,0.09-.06,0,0,0.24-.16,0.34-.25,0.25-.2,0.24-.22,0,0,0,0,0.22-.23,0.22-.24,0.26-.32,0.17-.24,0,0,0.07-.09,0.15-.24,0-.05,55.87,16.19h0c0,0.1,0,.21,0,0.31s0,0.21,0,.31,0,0.29,0,.44,0,0.16,0,.23l0,0.15c0,0.12,0,.24.07,0.35l0,0.08c0,0.07,0,.14.06,0.21s0.08,0.28.12,0.41l0.07,0.21,0.06,0.14h13.86l0-.08c0.05-.13.1-0.27,0.14-0.4s0.05-.14.07-0.21l0-.08c0-.12.06-0.23,0.09-0.35l0-.15c0-.08,0-0.15,0-0.23s0-.29.06-0.43,0-.21,0-0.31,0-.21,0-0.31,0-.09,0-0.13,0-.21,0-0.31,0-.2,0-0.3,0-.3,0-0.45,0-.15,0-0.23l0-.15c0-.12,0-0.24-0.07-0.36l0-.08c0-.07,0-0.13-0.06-0.2s-0.08-.28-0.13-0.42l-0.07-.21-0.06-.14-0.13-.31c-0.06-.13-0.12-0.25-0.18-0.37l-0.06-.11,42-40.29,0.11,0.06,0.36,0.2,0.31,0.14,0.14,0.06,0.2,0.08,0.41,0.14,0.2,0.07,0.08,0,0.35,0.09,0.15,0,0.23,0,0.44,0.06,0.3,0H2346l0.31,0,0.44,0,0.23,0,0.15,0,0.35-.07,0.08,0,0.21-.06,0.41-.12,0.21-.07,0.14-.06,0.31-.13,0.38-.18,0.26-.14,0.25-.14,0.09-.06,0,0,0.24-.16,0.34-.25,0.24-.2,0.24-.22,0,0,0,0,0.22-.23,0.22-.24,0.26-.32,0.18-.24,0,0,0.07-.09,0.15-.24,0-.05,55.87,16.19h0c0,0.1,0,.21,0,0.31s0,0.21,0,.31,0,0.29,0,.44,0,0.15,0,.23l0,0.15c0,0.12,0,.24.07,0.35l0,0.08c0,0.07,0,.14.06,0.21s0.08,0.28.12,0.41l0.07,0.21,0.06,0.15,0.13,0.31c0.06,0.13.12,0.25,0.18,0.37l0.14,0.26,0.14,0.24,0.06,0.09,0,0,0.16,0.24,0.25,0.33,0.21,0.25L2410,1034l0,0,0,0,0.23,0.23,0.24,0.22,0.32,0.26,0.23,0.17,0,0,0.09,0.07,0.24,0.15,0.26,0.15,0.37,0.2,0.3,0.14,0.14,0.07,0.2,0.08,0.41,0.14,0.2,0.07,0.08,0,0.35,0.09,0.15,0,0.23,0,0.44,0.06,0.31,0h0.32l6.25,25.37h4.09l-6.48-26.32,0.05,0,0.24-.14,0.09-.06,0,0,0.25-.17,0.33-.25,0.25-.21,0.24-.22,0,0,0,0,0.23-.23,0.21-.24,0.27-.33,0.17-.23,0,0,0.06-.09,0.15-.24,0.15-.25,0.2-.37,0.14-.3,0.06-.14,0.08-.21c0.05-.13.1-0.27,0.14-0.4s0.05-.14.07-0.21l0-.08c0-.12.06-0.23,0.08-0.35l0-.15c0-.08,0-0.16,0-0.23s0-.29.06-0.43,0-.21,0-0.31,0-.21,0-0.31,0-.08,0-0.13,0-.21,0-0.31,0-.2,0-0.3,0-.3,0-0.45,0-.15,0-0.23l0-.15c0-.12,0-0.24-0.07-0.36l0-.08c0-.07,0-0.13-0.06-0.2s-0.08-.28-0.13-0.42l-0.07-.21-0.06-.14-0.13-.31c-0.06-.13-0.12-0.25-0.18-0.37l-0.06-.11,42-40.29,0.11,0.06,0.36,0.2,0.31,0.14,0.14,0.06,0.2,0.08,0.41,0.14,0.2,0.07,0.08,0,0.35,0.09,0.07,0h0.07l0.23,0,0.44,0.06,0.3,0H2468l0.31,0,0.44,0,0.23,0,0.15,0,0.35-.07,0.08,0,0.21-.06,0.41-.12,0.21-.07,0.14-.06,0.31-.13,0.38-.18,0.26-.14,0.25-.14,0.09-.06,0,0,0.24-.16,0.34-.25,0.24-.2,0.24-.22,0,0,0,0,0.22-.23,0.22-.24,0.26-.32,0.17-.24,0,0,0.07-.09,0.15-.24,0-.05L2530,998.73c0,0.11,0,.21,0,0.32s0,0.21,0,.31,0,0.29,0,.44,0,0.18,0,.27,0.05,0.31.09,0.46l0,0.08c0,0.07,0,.14.06,0.21s0.08,0.28.12,0.41,0.08,0.23.13,0.34l0.13,0.32c0.06,0.13.12,0.25,0.18,0.37l0.14,0.26,0.23,0.37,0.16,0.24,0.25,0.33,0.2,0.25,0.25,0.27,0.26,0.26,0.1,0.1,0.14,0.11,0.32,0.26,0.23,0.17,0.36,0.24,0.1,0.07,0.16,0.09,0.37,0.2,0.11,0.06,0.21,0.09,0.34,0.14,0.41,0.14,0.2,0.07,0.08,0,0.11,0,0.35,0.07,0.27,0.06,0.09,0,0.34,0,0.31,0h0.32l13.66,55.44H2555l-13.89-56.38,0.05,0,0.37-.22,0.25-.17,0.15-.1,0.17-.14,0.25-.21,0.27-.25,0.27-.27,0.1-.1,0.11-.13,0.27-.33,0.17-.23,0.25-.36,0.06-.1,0.08-.16c0.07-.12.14-0.24,0.2-0.37l0.14-.31c0-.11.1-0.22,0.14-0.34s0.1-.27.14-0.4,0.05-.14.07-0.21l0-.08c0-.15.08-0.3,0.11-0.46s0-.18.06-0.27,0-.29.06-0.43,0-.21,0-0.31,0-.24,0-0.37,0-.26,0-0.38,0-.2,0-0.3,0-.3,0-0.45,0-.18,0-0.26-0.05-.32-0.09-0.47l0-.08c0-.07,0-0.13-0.06-0.2s-0.08-.28-0.13-0.42-0.08-.22-0.13-0.33l-0.14-.33c-0.06-.13-0.12-0.25-0.18-0.37l-0.14-.27-0.23-.37-0.16-.24-0.25-.33-0.21-.25-0.25-.27-0.26-.26-0.24-.21-0.32-.26-0.23-.17-0.36-.24-0.26-.15-0.36-.2-0.32-.15-0.33-.14-0.41-.14-0.2-.07-0.08,0-0.47-.11-0.26-.06-0.44-.06-0.3,0h-0.75l-0.31,0-0.44,0-0.27,0-0.46.09-0.08,0-0.21.06-0.41.12-0.34.13-0.32.13-0.38.18-0.26.14-0.37.23-0.24.16-0.34.25-0.24.2-0.28.26-0.26.26-0.22.24-0.26.32-0.17.24-0.24.36,0,0.05-55.87-16.19h0c0-.1,0-0.21,0-0.31s0-.21,0-0.31,0-.29,0-0.44,0-.15,0-0.23l0-.15c0-.12,0-0.24-0.07-0.35l0-.08c0-.07,0-0.14-0.06-0.21s-0.08-.28-0.12-0.41l-0.07-.21-0.06-.14-0.13-.31c-0.06-.13-0.12-0.25-0.18-0.37l-0.14-.26-0.14-.24-0.06-.09,0,0-0.16-.24-0.25-.33-0.2-.25-0.22-.24,0,0,0,0-0.23-.23-0.24-.21-0.32-.26-0.23-.17,0,0-0.09-.07-0.24-.15-0.25-.15-0.37-.2-0.3-.14-0.14-.06-0.21-.08-0.41-.14-0.2-.07-0.08,0-0.35-.08-0.15,0-0.23,0-0.43-.06-0.31,0H2468l-13.91-56.48,0.05,0,0.36-.22,0.25-.17L2455,914l0.25-.21,0.27-.25,0.27-.27,0.21-.23,0.27-.33,0.17-.23,0.25-.37,0.15-.25,0.2-.37,0.14-.31c0-.11.1-0.22,0.14-0.34s0.1-.27.14-0.4,0.05-.14.07-0.21l0-.08c0-.15.08-0.3,0.11-0.46s0-.18.06-0.27,0-.29.06-0.43,0-.21,0-0.31,0-.25,0-0.37,0-.25,0-0.38,0-.2,0-0.3,0-.3,0-0.44,0-.18,0-0.26-0.05-.32-0.09-0.47l0-.08c0-.07,0-0.13-0.06-0.2s-0.08-.28-0.13-0.42-0.08-.22-0.13-0.33l-0.14-.33c-0.06-.13-0.12-0.25-0.18-0.37l-0.14-.27-0.23-.37-0.16-.24-0.25-.33-0.21-.25-0.25-.27-0.26-.26-0.24-.21-0.32-.26-0.23-.17-0.36-.24-0.26-.15-0.36-.2-0.32-.15-0.33-.14-0.41-.14-0.2-.07-0.08,0-0.46-.11-0.27-.06-0.44-.06-0.31,0h-0.75l-0.31,0-0.44,0-0.27,0-0.47.09-0.08,0-0.2.06-0.41.12-0.34.13-0.32.13-0.38.18-0.26.14-0.37.23-0.24.16-0.34.25-0.24.2-0.28.26-0.26.26-0.22.24-0.26.32-0.17.24-0.24.36,0,0.05-55.87-16.19h0c0-.1,0-0.21,0-0.31s0-.21,0-0.31,0-.29,0-0.44,0-.15,0-0.23l0-.15c0-.12,0-0.24-0.07-0.35l0-.08c0-.07,0-0.14-0.06-0.21s-0.08-.28-0.12-0.41l-0.07-.21-0.06-.14-0.13-.31c-0.06-.13-0.12-0.25-0.18-0.37l-0.14-.26-0.14-.24,0,0,0-.06,0,0-0.16-.24-0.25-.33-0.21-.25-0.22-.24,0,0,0,0-0.23-.23-0.24-.21-0.32-.26-0.23-.17,0,0-0.09-.07-0.24-.15-0.25-.15-0.37-.2-0.3-.14-0.14-.07-0.21-.08-0.4-.14-0.21-.07-0.08,0-0.35-.08-0.15,0-0.23,0-0.43-.06-0.31,0h-0.32L2367,824l0.06,0,0.16-.08,0.08-.06,0.09-.06,0,0,0.25-.17,0.33-.25,0.25-.21,0.24-.22,0,0,0,0,0.23-.23,0.1-.1,0.11-.13,0.27-.33,0.08-.1,0.09-.13,0,0,0.06-.09,0.15-.24,0.15-.25,0.2-.37,0.06-.1,0.08-.2,0.06-.14,0.08-.21c0.05-.13.1-0.27,0.14-0.4s0.05-.14.07-0.21l0-.08c0-.12.06-0.23,0.09-0.35l0-.15c0-.08,0-0.15,0-0.23s0-.29.06-0.43,0-.21,0-0.31,0-.21,0-0.31,0-.08,0-0.13,0-.21,0-0.31,0-.2,0-0.3,0-.3,0-0.45,0-.15,0-0.23l0-.15c0-.12,0-0.24-0.07-0.36l0-.08c0-.07,0-0.13-0.06-0.2s-0.08-.28-0.13-0.42l-0.07-.21-0.06-.14-0.13-.31c-0.06-.13-0.12-0.25-0.18-0.37l-0.06-.11,42-40.29,0.11,0.06,0.36,0.2,0.31,0.14,0.14,0.06,0.2,0.08,0.41,0.14,0.2,0.07,0.08,0,0.35,0.09,0.15,0,0.23,0,0.44,0.06,0.3,0h0.75l0.31,0,0.44,0,0.23,0,0.15,0,0.35-.07,0.08,0,0.21-.06,0.41-.12,0.21-.07,0.14-.06,0.31-.13,0.38-.18,0.26-.14,0.25-.14,0.09-.06,0,0,0.24-.16,0.34-.25,0.24-.2,0.24-.22,0,0,0,0,0.22-.23,0.22-.24,0.26-.32,0.18-.24,0,0,0.07-.09,0.15-.24,0-.05,55.87,16.19h0a7.39,7.39,0,0,0,.1,1.28l0,0.16a7.47,7.47,0,0,0,.33,1.21l0.07,0.19a7.5,7.5,0,0,0,.56,1.12l0.1,0.17a7.48,7.48,0,0,0,.83,1.06l0,0.06,0,0a7.42,7.42,0,0,0,1.06.9l0.09,0.07a7.43,7.43,0,0,0,1.16.64l0.15,0.07a7.54,7.54,0,0,0,.81.29l0.4,0.09,0.18,0a7.43,7.43,0,0,0,1.27.15h0.15a7.42,7.42,0,0,0,1.28-.1l0.16,0a7.45,7.45,0,0,0,1.21-.33l0.19-.07a7.49,7.49,0,0,0,1.13-.56l0.17-.1a7.48,7.48,0,0,0,1.06-.83l0.06,0,0,0a7.42,7.42,0,0,0,.9-1.06l0.06-.09a7.41,7.41,0,0,0,.64-1.16l0.07-.14a7.54,7.54,0,0,0,.29-0.82c0-.13.06-0.27,0.09-0.4l0-.18a7.44,7.44,0,0,0,.15-1.27s0-.09,0-0.14a7.41,7.41,0,0,0-.1-1.28l0-.16a7.45,7.45,0,0,0-.33-1.22l-0.07-.19a7.54,7.54,0,0,0-.37-0.8l42-40.29,0.11,0.06,0.36,0.2,0.31,0.14,0.14,0.06,0.2,0.08,0.41,0.14,0.2,0.07,0.08,0,0.35,0.09,0.14,0,0.23,0,0.44,0.06,0.3,0h0.75l0.31,0,0.44,0,0.23,0,0.15,0,0.35-.07,0.08,0,0.21-.06,0.41-.12,0.21-.07,0.14-.06,0.31-.13,0.38-.18,0.26-.14,0.25-.14,0.09-.06,0,0,0.24-.16,0.34-.25,0.24-.2,0.24-.22,0,0,0,0,0.22-.23,0.22-.24,0.26-.32,0.17-.24,0,0,0.07-.09,0.15-.24,0-.05L2600,757.3h0c0,0.1,0,.21,0,0.31s0,0.21,0,.31,0,0.29,0,.44,0,0.16,0,.23l0,0.15c0,0.12,0,.24.07,0.35l0,0.08c0,0.07,0,.14.06,0.21s0.08,0.28.12,0.41l0.07,0.21,0.06,0.14,0.13,0.31c0.06,0.13.12,0.25,0.18,0.37l0.14,0.26,0.14,0.24,0.06,0.09,0,0,0.16,0.24,0.25,0.33,0.2,0.25,0.22,0.24,0,0,0,0,0.23,0.23,0.24,0.21,0.32,0.26,0.23,0.17,0,0,0.09,0.07,0.24,0.15,0.26,0.15,0.37,0.2,0.3,0.14,0.14,0.07,0.21,0.08,0.4,0.14,0.21,0.07,0.08,0,0.35,0.08,0.15,0,0.23,0,0.43,0.06,0.24,0h0.38l13.92,56.48-0.05,0-0.24.14,0,0-0.06,0,0,0-0.25.17-0.33.25-0.25.21-0.13.11-0.11.11,0,0,0,0-0.23.23-0.21.24-0.27.32-0.08.1-0.09.14,0,0-0.07.09-0.15.24-0.07.1-0.09.16-0.2.37-0.14.31-0.06.14-0.08.21,0,0.12c0,0.1-.06.19-0.09,0.29s0,0.13-.07.2l0,0.08c0,0.12-.06.23-0.09,0.35l0,0.15c0,0.08,0,.15,0,0.23s0,0.29-.06.44,0,0.2,0,.31,0,0.21,0,.31,0,0.08,0,.13,0,0.21,0,.31,0,0.2,0,.31,0,0.3,0,.44,0,0.15,0,.23l0,0.15c0,0.12,0,.24.07,0.35l0,0.08c0,0.07,0,.14.06,0.2s0.08,0.28.12,0.41l0.07,0.21,0.06,0.14,0.13,0.31c0.06,0.13.12,0.25,0.18,0.37l0.06,0.11-42,40.31a7.67,7.67,0,1,0,2.75,2.86l42-40.31,0.11,0.06,0.36,0.2,0.31,0.14,0.14,0.06,0.2,0.08,0.41,0.14,0.2,0.07,0.08,0,0.35,0.09,0.14,0,0.23,0,0.44,0.06,0.3,0H2625l0.31,0,0.44,0,0.23,0,0.15,0,0.35-.07,0.08,0,0.21-.06,0.41-.12,0.21-.07,0.14-.06,0.31-.13,0.38-.18,0.26-.14,0.25-.14,0.09-.06,0,0,0.24-.16,0.34-.25,0.24-.2,0.24-.22,0,0,0,0,0.22-.23,0.22-.24,0.26-.32,0.17-.24,0,0,0.07-.09,0.15-.24,0-.05L2687,848h0c0,0.1,0,.21,0,0.31s0,0.21,0,.31,0,0.29,0,.44,0,0.15,0,.23l0,0.15c0,0.12,0,.24.07,0.35l0,0.08c0,0.07,0,.14.06,0.2s0.08,0.28.12,0.41l0.07,0.21,0.06,0.14,0.13,0.31c0.06,0.13.12,0.25,0.18,0.37l0.14,0.26,0.14,0.24,0.06,0.09,0,0,0.16,0.24,0.25,0.33,0.2,0.25,0.22,0.24,0,0,0,0,0.23,0.23,0.24,0.21,0.32,0.26,0.23,0.17,0,0,0.09,0.07,0.24,0.15,0.25,0.15,0.37,0.2,0.3,0.14,0.14,0.07,0.21,0.08,0.4,0.14,0.2,0.07,0.08,0,0.35,0.08,0.15,0,0.23,0,0.43,0.06,0.31,0h0.32L2708.17,912l-0.05,0-0.24.14-0.09.06,0,0-0.25.17-0.33.25-0.25.21-0.13.11-0.11.11,0,0,0,0-0.23.23-0.21.24-0.27.32-0.08.1-0.09.14,0,0-0.07.09-0.15.24-0.15.25-0.2.37-0.14.3-0.06.14-0.08.21c-0.05.13-.1,0.27-0.14,0.41s0,0.13-.07.2l0,0.08c0,0.12-.06.23-0.09,0.35l0,0.15c0,0.08,0,.15,0,0.23s0,0.29-.06.44,0,0.2,0,.31,0,0.05,0,.08,0,0.16,0,.24,0,0.08,0,.13,0,0.21,0,.31,0,0,0,.06,0,0.16,0,.24,0,0.3,0,.44,0,0.15,0,.23l0,0.15c0,0.12,0,.24.07,0.35l0,0.08c0,0.07,0,.14.06,0.2s0.08,0.28.12,0.41l0.07,0.21,0.06,0.14,0.13,0.31c0.06,0.13.12,0.25,0.18,0.37l0.06,0.11-42,40.29a7.49,7.49,0,0,0-.78-0.4l-0.19-.08a7.45,7.45,0,0,0-1.2-.38l-0.15,0a7.4,7.4,0,0,0-1.28-.15h-0.14a7.43,7.43,0,0,0-1.28.1l-0.18,0-0.4.08a7.48,7.48,0,0,0-.83.26l-0.15.06a7.42,7.42,0,0,0-1.19.59l-0.09.06a7.43,7.43,0,0,0-1.1.86l0,0,0,0.06a7.49,7.49,0,0,0-.88,1l-0.11.16a7.5,7.5,0,0,0-.61,1.1l-0.08.19a7.45,7.45,0,0,0-.38,1.2l0,0.16a7.41,7.41,0,0,0-.15,1.27s0,0.1,0,.15a7.44,7.44,0,0,0,.1,1.27c0,0.06,0,.12,0,0.18s0,0.27.08,0.4a7.5,7.5,0,0,0,.26.83l0.06,0.15a7.43,7.43,0,0,0,.59,1.18l0.06,0.09a7.42,7.42,0,0,0,.86,1.09l0,0,0.06,0.05a7.48,7.48,0,0,0,1,.87l0.17,0.11a7.5,7.5,0,0,0,1.1.61l0.19,0.08a7.47,7.47,0,0,0,1.2.38l0.16,0a7.39,7.39,0,0,0,1.27.15h0l13.92,56.48-0.05,0-0.24.14-0.09.06,0,0-0.24.16-0.33.25-0.25.21-0.24.22,0,0,0,0-0.23.23-0.21.24-0.27.32-0.17.23,0,0-0.07.09-0.15.24-0.15.25-0.2.37-0.14.3-0.06.14-0.08.21c-0.05.13-.1,0.27-0.14,0.4s-0.05.14-.07,0.21l0,0.08c0,0.12-.06.23-0.09,0.35l0,0.15c0,0.08,0,.15,0,0.23s0,0.29-.06.43,0,0.21,0,.31,0,0.21,0,.31,0,0.09,0,.13,0,0.21,0,.31,0,0.2,0,.3,0,0.3,0,.45,0,0.15,0,.23l0,0.15c0,0.12,0,.24.07,0.36l0,0.08c0,0.07,0,.13.06,0.2s0.08,0.28.13,0.42l0.07,0.21,0.06,0.14,0.13,0.31c0.06,0.13.12,0.25,0.18,0.37l0.06,0.11-19.74,19h5.73l16.75-16.09,0.11,0.06,0.36,0.2,0.31,0.14,0.14,0.06,0.2,0.08,0.41,0.14,0.2,0.07,0.08,0,0.35,0.09,0.15,0,0.23,0,0.44,0.06,0.3,0h0.75l0.31,0,0.44,0,0.23,0,0.15,0,0.35-.07,0.08,0,0.21-.06,0.41-.12,0.21-.07,0.14-.06,0.31-.13,0.38-.18,0.26-.14,0.25-.14,0.09-.06,0,0,0.24-.16,0.34-.25,0.24-.2,0.24-.22,0,0,0,0,0.22-.23,0.22-.25,0.26-.32,0.18-.24,0,0,0.07-.09,0.15-.23,0-.05,44.82,13V1052Zm-454.49-579.9,0.14,0.06,0.2,0.08,0.41,0.14,0.2,0.07,0.08,0,0.35,0.09,0.15,0,0.23,0,0.44,0.06,0.3,0h0.75l0.31,0,0.44,0,0.23,0,0.15,0,0.35-.07,0.08,0,0.21-.06,0.41-.12,0.21-.07,0.14-.06,0.31-.13,0.38-.18,0.26-.14,0.25-.14,0.09-.06,0,0,0.24-.16,0.34-.25,0.24-.2,0.24-.22,0,0,0,0,0.22-.23,0.22-.24,0.26-.32,0.18-.24,0,0,0.07-.09,0.15-.23,0-.05,55.87,16.19h0a7.39,7.39,0,0,0,.1,1.28l0,0.16a7.46,7.46,0,0,0,.33,1.21l0.07,0.19a7.5,7.5,0,0,0,.56,1.12l0.1,0.17a7.5,7.5,0,0,0,.83,1.06l0,0.06,0,0a7.42,7.42,0,0,0,1.06.9l0.09,0.07a7.43,7.43,0,0,0,1.16.64l0.15,0.07a7.51,7.51,0,0,0,.81.29l0.4,0.09,0.18,0a7.45,7.45,0,0,0,1.27.15h0.15a7.4,7.4,0,0,0,1.28-.1l0.16,0a7.48,7.48,0,0,0,1.21-.33l0.19-.07a7.49,7.49,0,0,0,1.13-.56l0.17-.1a7.48,7.48,0,0,0,1.06-.83l0.06,0,0,0a7.42,7.42,0,0,0,.9-1.06l0.06-.09a7.43,7.43,0,0,0,.64-1.16l0.07-.14a7.49,7.49,0,0,0,.29-0.82c0-.13.06-0.27,0.09-0.4l0-.18a7.44,7.44,0,0,0,.15-1.27s0-.09,0-0.14a7.4,7.4,0,0,0-.1-1.28l0-.16a7.44,7.44,0,0,0-.33-1.22l-0.07-.19a7.54,7.54,0,0,0-.37-0.8l42-40.29a7.41,7.41,0,0,0,.77.4l0.15,0.07a7.52,7.52,0,0,0,.82.29l0.4,0.09,0.18,0a7.42,7.42,0,0,0,1.27.15h0.14a7.41,7.41,0,0,0,1.28-.1l0.16,0a7.46,7.46,0,0,0,1.21-.33l0.19-.07a7.51,7.51,0,0,0,1.12-.56l0.17-.1a7.48,7.48,0,0,0,1.06-.83l0.06,0,0,0a7.43,7.43,0,0,0,.9-1.06l0.07-.09,0.18-.29,55.88,16.19h0a7.39,7.39,0,0,0,.1,1.28l0,0.16a7.45,7.45,0,0,0,.33,1.21l0.07,0.19a7.5,7.5,0,0,0,.56,1.12l0.1,0.17a7.48,7.48,0,0,0,.83,1.06l0,0.06,0,0a7.4,7.4,0,0,0,1.06.9l0.09,0.07a7.41,7.41,0,0,0,1.16.64l0.15,0.07a7.52,7.52,0,0,0,.81.29l0.4,0.09,0.18,0a7.41,7.41,0,0,0,1.27.15h0.15a7.38,7.38,0,0,0,1.28-.1l0.16,0a7.45,7.45,0,0,0,1.21-.33l0.19-.07,0.2-.08a7.48,7.48,0,0,0,.92-0.49l0.17-.1a7.52,7.52,0,0,0,.74-0.53l0.33-.3,0.06,0,0,0,0.11-.1a7.42,7.42,0,0,0,.79-1l0.06-.09,0.06-.08q0.2-.31.38-0.64c0.07-.14.14-0.29,0.2-0.44l0.07-.14a7.51,7.51,0,0,0,.29-0.82c0-.13.06-0.27,0.09-0.4l0-.18a7.42,7.42,0,0,0,.15-1.27s0-.09,0-0.14a7.4,7.4,0,0,0-.1-1.28l0-.16a7.45,7.45,0,0,0-.33-1.21l-0.07-.19a7.49,7.49,0,0,0-.37-0.8l42-40.29,0.11,0.06,0.36,0.2,0.31,0.14,0.14,0.06,0.2,0.08,0.41,0.14,0.2,0.07,0.08,0,0.35,0.09,0.14,0,0.23,0,0.44,0.06,0.3,0h0.75l0.31,0,0.44,0,0.23,0,0.15,0,0.35-.07,0.08,0,0.21-.06,0.41-.12,0.21-.07,0.14-.06,0.31-.13,0.38-.18,0.26-.14,0.25-.14,0.09-.06,0,0,0.24-.16,0.34-.25,0.24-.2,0.24-.22,0,0,0,0,0.22-.23,0.22-.24,0.26-.32,0.17-.24,0,0,0.07-.09,0.15-.23,0-.05,55.87,16.19c0,0.11,0,.21,0,0.32s0,0.21,0,.31,0,0.29,0,.44,0,0.18,0,.27,0.05,0.31.09,0.46l0,0.08c0,0.07,0,.14.06,0.21s0.08,0.28.12,0.41,0.08,0.23.13,0.34l0.13,0.32c0.06,0.13.12,0.25,0.18,0.37l0.14,0.26,0.23,0.37,0.16,0.24,0.25,0.33,0.2,0.25,0.25,0.27,0.26,0.26,0.24,0.21,0.32,0.26,0.23,0.17,0.36,0.24,0.26,0.15L2587,432l0.32,0.15,0.34,0.14,0.41,0.14,0.2,0.07,0.08,0,0.46,0.11,0.27,0.06,0.43,0.06,0.31,0h0.32L2604,489.27l-0.05,0-0.24.14-0.09.06,0,0-0.25.17-0.33.25-0.25.21-0.24.22,0,0,0,0-0.23.23-0.21.24-0.27.33-0.17.23,0,0-0.06.09-0.15.24-0.15.25-0.2.37-0.14.3-0.06.14-0.08.21c-0.05.13-.1,0.27-0.14,0.4s-0.05.14-.07,0.21l0,0.08c0,0.12-.06.23-0.09,0.35l0,0.15c0,0.08,0,.15,0,0.23s0,0.29-.06.43,0,0.21,0,.31,0,0.21,0,.31,0,0.09,0,.13,0,0.21,0,.31,0,0.2,0,.3,0,0.3,0,.45,0,0.15,0,.23l0,0.15c0,0.12,0,.24.07,0.36l0,0.08c0,0.07,0,.13.06,0.2s0.08,0.28.13,0.42l0.07,0.21,0.06,0.14,0.13,0.31c0.06,0.13.12,0.25,0.18,0.37l0.06,0.11-42,40.29a7.48,7.48,0,0,0-.78-0.4l-0.19-.08a7.45,7.45,0,0,0-1.2-.38l-0.16,0a7.39,7.39,0,0,0-1.28-.15h-0.14a7.42,7.42,0,0,0-1.28.1l-0.18,0-0.4.08a7.48,7.48,0,0,0-.83.26l-0.15.06a7.42,7.42,0,0,0-1.18.59l-0.09.06a7.41,7.41,0,0,0-1.1.86l0,0,0,0.06a7.48,7.48,0,0,0-.88,1l-0.11.16a7.49,7.49,0,0,0-.61,1.1l-0.08.19a7.47,7.47,0,0,0-.38,1.2l0,0.16a7.41,7.41,0,0,0-.15,1.27s0,0.1,0,.15a7.44,7.44,0,0,0,.1,1.27l0,0.18c0,0.13,0,.27.08,0.4a7.53,7.53,0,0,0,.26.83l0.06,0.15A7.41,7.41,0,0,0,2549,550l0.06,0.09a7.41,7.41,0,0,0,.86,1.09l0,0,0.06,0.05a7.49,7.49,0,0,0,1,.87l0.17,0.11a7.49,7.49,0,0,0,1.1.61l0.19,0.08a7.45,7.45,0,0,0,1.2.38l0.16,0a7.4,7.4,0,0,0,1.27.15h0L2569,610l-0.3.17-0.09.06a7.43,7.43,0,0,0-1.09.86l0,0-0.05.06a7.47,7.47,0,0,0-.87,1l-0.11.16a7.49,7.49,0,0,0-.61,1.1l-0.08.19a7.43,7.43,0,0,0-.38,1.2l0,0.16a7.4,7.4,0,0,0-.15,1.28s0,0.1,0,.14a7.43,7.43,0,0,0,.1,1.28c0,0.06,0,.12,0,0.18s0,0.27.08,0.4a7.52,7.52,0,0,0,.26.83l0.06,0.15a7.46,7.46,0,0,0,.37.79l-42,40.29-0.11-.06-0.36-.2-0.31-.14-0.14-.06-0.21-.08-0.41-.14-0.2-.07-0.08,0-0.35-.09-0.15,0-0.23,0-0.44-.06-0.31,0h-0.75l-0.31,0-0.44,0-0.23,0-0.15,0-0.35.07-0.08,0-0.2.06-0.41.12-0.21.07-0.14.06-0.31.13-0.38.18-0.26.14-0.25.14-0.09.06,0,0-0.24.16-0.34.25-0.24.2-0.24.22,0,0,0,0-0.22.23-0.22.24-0.26.32-0.17.24,0,0-0.07.09-0.15.24,0,0.05-55.87-16.19h0c0-.1,0-0.21,0-0.31s0-.21,0-0.31,0-.29,0-0.44,0-.15,0-0.23l0-.15c0-.12,0-0.24-0.07-0.35l0-.08c0-.07,0-0.14-0.06-0.21s-0.08-.28-0.12-0.41l-0.07-.21,0-.06,0-.09-0.13-.31c-0.06-.13-0.12-0.25-0.18-0.37l-0.14-.26-0.14-.24-0.06-.09,0,0-0.16-.24-0.25-.33-0.21-.25-0.22-.24,0,0,0,0-0.23-.23-0.24-.21-0.32-.26-0.23-.17,0,0-0.09-.07-0.24-.15-0.25-.15-0.37-.2-0.3-.14-0.14-.06-0.21-.08-0.4-.14-0.21-.07-0.08,0-0.35-.09-0.15,0-0.23,0-0.43-.06-0.31,0h-0.32L2437,582.61a7.46,7.46,0,0,0,1.36-12q-0.27-.24-0.56-0.46a7.51,7.51,0,0,0-1.89-1,7.47,7.47,0,1,0-2.78,14.47L2447,640l-0.05,0-0.24.14-0.09.06,0,0-0.24.16-0.33.25-0.25.21-0.24.22,0,0,0,0-0.23.23-0.21.24-0.27.32-0.17.23,0,0-0.07.09-0.15.24-0.15.25-0.2.37-0.14.3-0.06.14-0.08.21c-0.05.13-.1,0.27-0.14,0.41s0,0.13-.07.2l0,0.08c0,0.12-.06.23-0.09,0.35l0,0.15c0,0.06,0,.11,0,0.17v0.06c0,0.14,0,.29-0.06.44s0,0.2,0,.31,0,0.21,0,.31,0,0.08,0,.13,0,0.16,0,.24,0,0.05,0,.08,0,0.2,0,.31,0,0.3,0,.44,0,0.15,0,.23l0,0.15c0,0.12,0,.24.07,0.35l0,0.08c0,0.07,0,.14.06,0.2s0,0.2.08,0.3l0,0.12,0.07,0.21,0.06,0.14,0.08,0.2,0.05,0.11c0.06,0.13.12,0.25,0.18,0.37l0.05,0.11-42,40.29-0.11-.06-0.36-.2-0.31-.14-0.14-.06-0.21-.08-0.41-.14-0.2-.07-0.08,0-0.35-.09-0.15,0-0.23,0-0.44-.06-0.31,0h-0.75l-0.31,0-0.44,0-0.23,0-0.15,0-0.35.07-0.08,0-0.21.06-0.41.12-0.11,0-0.09,0-0.14.06-0.31.13-0.38.18-0.26.14-0.25.14-0.09.06,0,0-0.24.16-0.34.25-0.24.2-0.24.22,0,0,0,0-0.22.23-0.22.24-0.26.32-0.08.1-0.09.14,0,0-0.07.09-0.15.24,0,0.05-55.87-16.19h0c0-.1,0-0.21,0-0.31s0-.21,0-0.31,0-.23,0-0.34l0-.09c0-.08,0-0.15,0-0.23l0-.15c0-.12,0-0.24-0.07-0.35l0-.08c0-.07,0-0.14-0.06-0.21s-0.08-.28-0.12-0.41l-0.07-.21-0.06-.14-0.08-.2-0.05-.11c-0.06-.13-0.12-0.25-0.18-0.37l-0.14-.26-0.14-.24-0.06-.09,0,0-0.16-.24-0.25-.33-0.21-.25-0.22-.24,0,0,0,0-0.1-.11-0.13-.11-0.24-.22-0.32-.26-0.23-.17,0,0-0.09-.07-0.24-.15-0.26-.15-0.37-.2-0.3-.14-0.14-.07-0.2-.08-0.41-.14-0.2-.07-0.08,0-0.35-.09-0.15,0-0.23,0-0.44-.06-0.31,0h-0.32l-13.92-56.48,0.05,0,0.36-.22,0.25-.17,0.33-.25,0.25-.21,0.27-.25,0.27-.27,0.21-.24,0.27-.33,0.17-.23,0.25-.37,0.15-.25,0.2-.37,0.15-.31c0-.11.1-0.22,0.14-0.34s0.1-.27.14-0.4,0.05-.14.07-0.21l0-.08c0-.15.08-0.3,0.11-0.46s0-.18.06-0.27,0-.29.06-0.43,0-.21,0-0.31,0-.25,0-0.37,0-.25,0-0.38,0-.2,0-0.3,0-.3,0-0.45,0-.18,0-0.26,0-.24-0.06-0.36l0-.12,0-.08c0-.07,0-0.13-0.06-0.2s-0.08-.28-0.13-0.42-0.08-.22-0.13-0.33-0.05-.15-0.08-0.22l-0.05-.11c-0.06-.13-0.12-0.25-0.18-0.37l-0.08-.16-0.06-.1-0.23-.37-0.16-.24-0.25-.33-0.21-.25-0.25-.27-0.14-.15-0.13-.11-0.24-.22-0.32-.26-0.24-.17-0.36-.24-0.26-.15-0.36-.2-0.32-.15-0.33-.14-0.41-.14-0.2-.07-0.08,0-0.47-.11-0.26-.05-0.44-.06-0.3,0h-0.75l-0.31,0-0.44,0-0.27,0-0.46.09-0.08,0-0.21.06-0.41.12-0.34.13-0.32.13-0.37.18-0.26.14-0.37.23-0.24.16-0.33.25-0.25.2-0.28.25-0.26.26-0.22.24-0.26.32-0.18.24-0.24.36,0,0.05L2249,586.07c0-.11,0-0.21,0-0.32s0-.21,0-0.31,0-.29,0-0.44,0-.18,0-0.27-0.05-.31-0.09-0.46l0-.08c0-.07,0-0.14-0.06-0.21s0-.2-0.08-0.3l0-.12c0-.11-0.08-0.23-0.13-0.34l-0.13-.32c-0.06-.13-0.12-0.25-0.18-0.37l-0.08-.16-0.06-.1-0.23-.37-0.16-.24-0.25-.33-0.21-.25-0.25-.27-0.26-.26-0.24-.22-0.32-.26-0.23-.17-0.36-.24-0.26-.15-0.37-.2-0.32-.15-0.33-.14-0.41-.14-0.2-.07-0.08,0-0.46-.11-0.26-.06-0.44-.06-0.31,0h-0.32L2227.88,522l0.06,0,0.24-.14,0.09-.06,0,0,0.25-.17,0.33-.25,0.25-.21,0.24-.22,0,0,0,0,0.23-.23,0.21-.24,0.27-.33,0.17-.23,0,0,0.06-.09,0.15-.24,0.15-.25,0.2-.37,0.14-.3,0.06-.14,0.08-.21c0.05-.13.1-0.27,0.14-0.41s0.05-.13.07-0.2l0-.08c0-.12.06-0.23,0.09-0.35l0-.15c0-.08,0-0.15,0-0.23s0-.29.06-0.44,0-.2,0-0.31,0-.21,0-0.31,0-.08,0-0.13,0-.21,0-0.31,0-.2,0-0.31,0-.3,0-0.44,0-.15,0-0.23l0-.15c0-.12,0-0.24-0.07-0.35l0-.08c0-.07,0-0.14-0.06-0.2s-0.08-.28-0.12-0.42l-0.07-.21-0.06-.14-0.13-.31c-0.06-.13-0.12-0.25-0.18-0.37l-0.05-.11,42-40.29,0.11,0.06,0.36,0.2Zm-132.7-40.7,0.3-.17,0.09-.06a7.42,7.42,0,0,0,1.1-.86l0,0,0-.06a7.48,7.48,0,0,0,.87-1l0.11-.16a7.51,7.51,0,0,0,.61-1.1l0.08-.19a7.46,7.46,0,0,0,.33-1c0-.08,0-0.16,0-0.24l0-.16c0-.11,0-0.21.07-0.31a7.39,7.39,0,0,0,.08-1s0-.1,0-0.14,0-.24,0-0.36a7.49,7.49,0,0,0-.1-0.91l0-.18c0-.13,0-0.27-0.08-0.4a7.5,7.5,0,0,0-.26-0.83l-0.06-.15a7.42,7.42,0,0,0-.37-0.79l42-40.29,0.11,0.06,0.36,0.2,0.31,0.14,0.14,0.06,0.2,0.08,0.41,0.14,0.2,0.07,0.08,0,0.35,0.09,0.15,0,0.23,0,0.44,0.06,0.3,0h0.75l0.31,0,0.44,0,0.23,0,0.15,0,0.35-.07,0.08,0,0.21-.06,0.41-.12,0.21-.07,0.14-.06,0.31-.13,0.38-.18,0.26-.14,0.25-.14,0.09-.06,0,0,0.24-.16,0.34-.25,0.24-.2,0.24-.22,0,0,0,0,0.22-.23,0.22-.24,0.26-.32,0.18-.24,0,0,0.07-.09,0.15-.24,0-.05,55.87,16.19h0c0,0.1,0,.21,0,0.31s0,0.21,0,.31,0,0.29,0,.44,0,0.15,0,.23l0,0.15c0,0.12,0,.24.07,0.35l0,0.08c0,0.07,0,.14.06,0.21s0.08,0.28.12,0.41l0.07,0.21,0.06,0.14,0.13,0.31c0.06,0.13.12,0.25,0.18,0.37l0.14,0.26,0.14,0.24,0.06,0.09,0,0,0.16,0.24,0.25,0.33,0.21,0.25,0.22,0.24,0,0,0,0,0.23,0.23,0.24,0.21,0.32,0.26,0.23,0.17,0,0L2255,401l0.24,0.15,0.25,0.15,0.37,0.2,0.3,0.14,0.14,0.07,0.21,0.08,0.4,0.14,0.21,0.07,0.08,0,0.35,0.08,0.15,0,0.23,0,0.43,0.06,0.31,0H2259l13.91,56.48-0.05,0-0.24.14-0.09.06,0,0-0.24.16-0.33.25-0.25.21-0.24.22,0,0,0,0-0.23.23-0.21.24-0.27.32-0.17.23,0,0-0.07.09-0.15.24-0.15.25-0.2.37-0.06.11-0.08.2-0.06.14-0.08.21c-0.05.13-.1,0.27-0.14,0.41s-0.05.13-.07,0.2l0,0.08c0,0.12-.06.23-0.09,0.35l0,0.15c0,0.08,0,.15,0,0.23s0,0.29-.06.44,0,0.2,0,.31,0,0.21,0,.31,0,0.08,0,.13,0,0.21,0,.31,0,0.2,0,.31,0,0.3,0,.44,0,0.15,0,.23l0,0.15c0,0.12,0,.24.07,0.35l0,0.08c0,0.07,0,.14.06,0.2s0.08,0.28.12,0.41l0.07,0.21,0.06,0.14,0.13,0.31c0.06,0.13.12,0.25,0.18,0.37l0.05,0.11-42,40.29-0.11-.06-0.36-.2-0.31-.14-0.14-.06-0.21-.08-0.41-.14-0.2-.07-0.08,0-0.35-.09-0.15,0-0.23,0-0.44-.06-0.31,0H2224l-0.31,0-0.44,0-0.23,0-0.15,0-0.35.07-0.08,0-0.21.06-0.41.12-0.21.07-0.06,0-0.09,0-0.31.13-0.37.18-0.26.14-0.24.14-0.09.06,0,0-0.24.16-0.34.25-0.24.2-0.24.22,0,0,0,0-0.22.23-0.22.24-0.26.32-0.18.24,0,0-0.07.09-0.15.24,0,0.05L2162,495.42h0c0-.1,0-0.21,0-0.31s0-.21,0-0.31,0-.29,0-0.44,0-.16,0-0.23l0-.15c0-.12,0-0.24-0.07-0.35l0-.08c0-.07,0-0.14-0.06-0.21s-0.08-.28-0.12-0.41l-0.07-.21-0.06-.14-0.13-.31c-0.06-.13-0.12-0.25-0.18-0.37l-0.14-.26-0.14-.24-0.06-.09,0,0-0.16-.24-0.25-.33-0.21-.25-0.22-.24,0,0,0,0-0.23-.23-0.24-.22-0.32-.26-0.23-.17,0,0-0.09-.07-0.24-.15-0.26-.15-0.37-.2-0.3-.14-0.14-.07-0.2-.08-0.41-.14-0.2-.07-0.08,0-0.35-.09-0.15,0-0.23,0-0.44-.06-0.31,0h-0.32ZM2035.9,793.52l0.05,0,0.24-.14,0.09-.06,0,0,0.25-.17,0.15-.1,0.18-.14,0.25-.21,0.24-.22,0,0,0,0,0.23-.23,0.1-.1,0.11-.13,0.27-.33,0.17-.23,0,0,0.06-.09,0.15-.24,0.06-.1,0.08-.16,0.2-.37,0.14-.3,0.06-.14,0.08-.21c0.05-.13.1-0.27,0.14-0.4s0.05-.14.07-0.21l0-.08c0-.12.06-0.23,0.09-0.35l0-.15c0-.08,0-0.15,0-0.23s0-.29.06-0.43,0-.21,0-0.31,0-.21,0-0.31,0-.09,0-0.13,0-.21,0-0.31,0-.2,0-0.3,0-.3,0-0.45,0-.15,0-0.23l0-.15c0-.12,0-0.24-0.07-0.36l0-.08c0-.07,0-0.13-0.06-0.2s-0.08-.28-0.13-0.42l-0.07-.21-0.06-.14-0.13-.31c-0.06-.13-0.12-0.25-0.18-0.37l-0.06-.11,42-40.29,0.11,0.06,0.36,0.2,0.31,0.14,0.14,0.06,0.2,0.08,0.41,0.14,0.2,0.07,0.08,0,0.35,0.09,0.15,0,0.23,0,0.44,0.06,0.3,0h0.75l0.31,0,0.44,0,0.23,0,0.15,0,0.35-.07,0.08,0,0.21-.06,0.41-.12,0.21-.07,0.14-.06,0.31-.13,0.38-.18,0.26-.14,0.25-.14,0.09-.06,0,0,0.14-.09,0.1-.08,0.33-.25,0.25-.2,0.24-.22,0,0,0,0,0.23-.23,0.22-.24,0.26-.32,0.18-.24,0,0,0.07-.09,0.15-.24,0-.05,55.87,16.19c0,0.11,0,.21,0,0.32s0,0.21,0,.31,0,0.29,0,.44,0,0.18,0,.27,0.05,0.31.09,0.46l0,0.08c0,0.07,0,.14.06,0.2s0.08,0.28.12,0.41,0.08,0.23.13,0.34l0.13,0.32c0.06,0.13.12,0.25,0.18,0.37l0.14,0.26L2148,761l0.16,0.24,0.25,0.33,0.21,0.25,0.25,0.27,0.26,0.26,0.24,0.21,0.32,0.26L2150,763l0.36,0.24,0.25,0.15,0.37,0.2,0.32,0.15,0.34,0.14L2152,764l0.2,0.07,0.08,0,0.46,0.11,0.27,0.06,0.43,0.06,0.31,0h0.32L2168,820.89l-0.3.17-0.09.06a7.42,7.42,0,0,0-1.09.86l0,0-0.05.06a7.48,7.48,0,0,0-.87,1l-0.11.16a7.49,7.49,0,0,0-.61,1.1l-0.08.19a7.44,7.44,0,0,0-.38,1.2l0,0.16a7.38,7.38,0,0,0-.15,1.28s0,0.09,0,.14a7.44,7.44,0,0,0,.1,1.28c0,0.06,0,.12,0,0.18s0,0.27.08,0.4a7.52,7.52,0,0,0,.26.83l0.06,0.15a7.41,7.41,0,0,0,.37.79l-42,40.29-0.11-.06-0.36-.2-0.31-.14-0.14-.06-0.2-.08-0.41-.14-0.2-.07-0.08,0-0.35-.09-0.15,0-0.23,0-0.44-.06-0.3,0h-0.75l-0.31,0-0.44,0-0.23,0-0.15,0-0.35.07-0.08,0-0.21.06-0.41.12-0.21.07-0.14.06-0.31.13-0.37.18-0.26.14-0.24.14-0.09.06,0,0-0.24.16-0.33.25-0.25.2-0.24.22,0,0,0,0-0.22.23-0.22.24-0.26.32-0.18.24,0,0-0.07.09-0.15.24,0,0.05-55.87-16.19h0c0-.1,0-0.21,0-0.31s0-.21,0-0.31,0-.29,0-0.44,0-.16,0-0.23l0-.15c0-.12,0-0.24-0.07-0.35l0-.08c0-.07,0-0.14-0.06-0.21s-0.08-.28-0.12-0.41l-0.07-.21-0.06-.14-0.13-.31c-0.06-.13-0.12-0.25-0.18-0.37l-0.14-.26-0.14-.24-0.06-.09,0,0-0.16-.24-0.25-.33-0.21-.25-0.22-.24,0,0,0,0-0.23-.23-0.24-.21-0.32-.26-0.23-.17,0,0-0.09-.07-0.24-.15-0.26-.15-0.37-.2-0.3-.14-0.14-.07-0.21-.08-0.41-.14-0.2-.07-0.08,0-0.35-.09-0.15,0-0.23,0-0.43-.06-0.31,0h-0.32ZM2133,941.63l-0.24.14-0.09.06,0,0-0.25.17-0.33.25-0.25.21-0.24.22,0,0,0,0-0.23.23-0.21.24-0.27.32-0.17.23,0,0-0.07.09-0.15.24-0.15.25c-0.07.12-.14,0.24-0.2,0.37l-0.14.3,0,0.09,0,0.06-0.08.21c-0.05.13-.1,0.27-0.14,0.41s0,0.13-.07.2l0,0.08c0,0.12-.06.23-0.09,0.35l0,0.15c0,0.08,0,.15,0,0.23s0,0.29-.06.44,0,0.2,0,.31,0,0.21,0,.31,0,0.08,0,.13,0,0.21,0,.31,0,0.2,0,.31,0,0.3,0,.44,0,0.15,0,.23l0,0.15c0,0.12,0,.24.07,0.35l0,0.08c0,0.07,0,.14.06,0.2s0.08,0.28.12,0.41l0.07,0.21,0.06,0.14,0.13,0.31c0.06,0.13.12,0.25,0.18,0.37l0.06,0.11-42,40.29a7.39,7.39,0,0,0-.77-0.4l-0.15-.07a7.5,7.5,0,0,0-.82-0.29l-0.4-.09-0.18,0a7.43,7.43,0,0,0-1.27-.15h-0.14a7.41,7.41,0,0,0-1.28.1l-0.16,0a7.45,7.45,0,0,0-1.21.33l-0.19.07a7.52,7.52,0,0,0-1.13.56l-0.17.1a7.47,7.47,0,0,0-1.06.83l-0.06,0,0,0a7.43,7.43,0,0,0-.9,1.06l-0.07.09-0.18.29-55.88-16.19h0c0-.1,0-0.21,0-0.31s0-.21,0-0.31,0-.29,0-0.44,0-.15,0-0.23l0-.15c0-.12,0-0.24-0.07-0.35l0-.08c0-.07,0-0.14-0.06-0.21s-0.08-.28-0.12-0.41l-0.07-.21-0.06-.15-0.13-.31c-0.06-.13-0.12-0.25-0.18-0.37l-0.14-.26-0.14-.24-0.06-.09,0,0-0.16-.24-0.25-.33-0.21-.25L2020,973l0,0,0,0-0.23-.23-0.24-.21-0.32-.26-0.23-.17,0,0-0.09-.07-0.24-.15-0.26-.15-0.37-.2-0.3-.14-0.14-.07-0.2-.08-0.41-.14-0.2-.07-0.08,0-0.35-.09-0.15,0-0.23,0-0.43-.06-0.31,0h-0.32l-13.92-56.48,0.05,0,0.24-.14,0.09-.06,0,0,0.25-.17,0.33-.25,0.25-.21,0.24-.22,0,0,0,0,0.23-.23,0.21-.24,0.27-.33,0.17-.23,0,0,0.06-.09,0.15-.24,0.15-.25,0.2-.37,0.14-.3,0.06-.14,0.08-.21c0.05-.13.1-0.27,0.14-0.4s0.05-.14.07-0.21l0-.08c0-.12.06-0.23,0.09-0.35l0-.15c0-.08,0-0.15,0-0.23s0-.29.06-0.43,0-.21,0-0.31,0-.21,0-0.31,0-.09,0-0.13,0-.21,0-0.31,0-.2,0-0.3,0-.3,0-0.45,0-.15,0-0.23l0-.15c0-.12,0-0.24-0.07-0.36l0-.08c0-.07,0-0.13-0.06-0.2s-0.08-.28-0.13-0.42l-0.07-.21-0.06-.14-0.13-.31c-0.06-.13-0.12-0.25-0.18-0.37l-0.06-.11,42-40.29,0.11,0.06,0.36,0.2,0.31,0.14,0.14,0.06,0.2,0.08,0.41,0.14,0.2,0.07,0.08,0,0.35,0.09,0.15,0,0.23,0,0.44,0.06,0.3,0h0.75l0.31,0,0.44,0,0.23,0,0.15,0,0.35-.07,0.08,0,0.21-.06,0.41-.12,0.21-.07,0.14-.06,0.31-.13,0.37-.18,0.26-.14,0.24-.14,0.09-.06,0,0,0.24-.16,0.33-.25,0.25-.2,0.24-.22,0,0,0,0,0.23-.23,0.22-.24,0.26-.32,0.17-.24,0,0,0.07-.09,0.15-.24,0-.05,55.87,16.19h0c0,0.1,0,.21,0,0.31s0,0.21,0,.31,0,0.29,0,.43,0,0.16,0,.23l0,0.15c0,0.12,0,.23.07,0.35l0,0.08c0,0.07,0,.14.06,0.21s0.08,0.28.12,0.41l0.07,0.21,0.06,0.14,0.13,0.31,0.06,0.14,0.12,0.23,0.14,0.26,0.14,0.24,0.06,0.09,0,0,0.16,0.24,0.1,0.15,0.15,0.18,0.2,0.25,0.22,0.24,0,0,0,0,0.23,0.23,0.1,0.1,0.14,0.11,0.32,0.26,0.1,0.08,0.14,0.09,0,0,0.09,0.07,0.24,0.15,0.26,0.15,0.37,0.2,0.11,0.06,0.2,0.08,0.14,0.07,0.21,0.08,0.4,0.14,0.21,0.07,0.08,0,0.35,0.08,0.15,0,0.23,0,0.43,0.06,0.31,0h0.32L2133,941.6Zm244.42-47,0.31,0.14,0.14,0.06,0.2,0.08,0.41,0.14,0.2,0.07,0.08,0,0.35,0.09,0.15,0,0.23,0,0.44,0.06,0.3,0h0.75l0.31,0,0.44,0,0.23,0,0.15,0,0.35-.07,0.08,0,0.21-.06,0.41-.12,0.21-.07,0.14-.06,0.31-.13,0.38-.18,0.26-.14,0.25-.14,0.09-.06,0,0,0.24-.16,0.34-.25,0.24-.2,0.24-.22,0,0,0,0,0.22-.23,0.22-.24,0.26-.32,0.17-.24,0,0,0.07-.09,0.15-.24,0-.05,55.87,16.19c0,0.11,0,.21,0,0.32s0,0.21,0,.31,0,0.29,0,.44,0,0.18,0,.27,0.05,0.31.09,0.46l0,0.08c0,0.07,0,.14.06,0.21s0.08,0.28.12,0.41,0.08,0.23.13,0.34l0.13,0.32c0.06,0.13.12,0.25,0.18,0.37l0.14,0.26,0.23,0.37,0.16,0.24,0.25,0.33,0.21,0.25,0.25,0.27,0.26,0.26,0.24,0.21,0.32,0.26,0.23,0.17,0.36,0.24,0.26,0.15,0.37,0.2,0.32,0.15,0.34,0.14,0.41,0.14,0.2,0.07,0.08,0,0.46,0.11,0.27,0.06,0.43,0.06,0.31,0h0.32l13.92,56.48-0.05,0-0.24.14-0.09.06,0,0-0.25.17-0.33.25-0.25.21-0.24.22,0,0,0,0-0.23.23-0.21.24-0.27.33-0.17.23,0,0-0.06.09-0.15.24-0.15.25-0.2.37-0.14.3-0.06.14-0.08.21c-0.05.13-.1,0.27-0.14,0.4s-0.05.14-.07,0.21l0,0.08c0,0.12-.06.23-0.09,0.35l0,0.15c0,0.08,0,.15,0,0.23s0,0.29-.06.43,0,0.21,0,.31,0,0.21,0,.31,0,0,0,.06,0,0,0,.06,0,0.21,0,.31,0,0.2,0,.3,0,0.3,0,.45,0,0.15,0,.23l0,0.15c0,0.12,0,.24.07,0.36l0,0.08c0,0.07,0,.13.06,0.2s0.08,0.28.13,0.42l0.07,0.21,0.06,0.14,0.13,0.31c0.06,0.13.12,0.25,0.18,0.37l0.06,0.11-42,40.29-0.11-.06-0.36-.2-0.31-.14-0.14-.06-0.21-.08-0.41-.14-0.2-.07-0.08,0-0.35-.09-0.15,0-0.23,0-0.44-.06-0.31,0h-0.75l-0.31,0-0.44,0-0.23,0-0.15,0-0.35.07-0.08,0-0.2.06-0.41.12-0.21.07-0.14.06-0.31.13-0.38.18-0.26.14-0.25.14-0.09.06,0,0-0.24.16-0.34.25-0.24.2-0.24.22,0,0,0,0-0.23.23-0.22.24-0.26.32-0.17.24,0,0-0.07.09-0.15.24,0,0.05-55.87-16.19h0c0-.1,0-0.21,0-0.31s0-.21,0-0.31,0-.29,0-0.44,0-.15,0-0.23l0-.15c0-.08,0-0.16,0-0.24l0-.11,0-.08c0-.07,0-0.14-0.06-0.21s-0.08-.28-0.12-0.41l-0.07-.21-0.06-.14-0.13-.31c-0.06-.13-0.12-0.25-0.18-0.37l-0.08-.16-0.06-.1-0.14-.24-0.06-.09,0,0-0.16-.24-0.25-.33-0.11-.14-0.1-.11-0.22-.24,0,0,0,0-0.23-.23-0.24-.21-0.32-.27-0.23-.17,0,0-0.09-.07-0.24-.15-0.25-.15-0.37-.2-0.3-.14-0.14-.07-0.21-.08-0.4-.14-0.21-.07-0.08,0-0.35-.09-0.15,0-0.23,0-0.43-.06-0.31,0h-0.32L2332,944.75l0.3-.17,0.09-.06a7.42,7.42,0,0,0,1.09-.86l0,0,0.05-.06a7.5,7.5,0,0,0,.87-1l0.11-.17a7.5,7.5,0,0,0,.61-1.1l0-.09s0-.07,0-0.1a7.44,7.44,0,0,0,.38-1.2l0-.16a7.41,7.41,0,0,0,.15-1.28s0-.1,0-0.14a7.42,7.42,0,0,0-.1-1.27c0-.06,0-0.12,0-0.18s0-.27-0.08-0.4a7.51,7.51,0,0,0-.26-0.83l-0.06-.15a7.44,7.44,0,0,0-.37-0.79l42-40.29,0.11,0.06,0.22,0.13ZM2412,760.79l-0.24.14-0.09.06,0,0-0.25.17-0.33.25-0.25.21-0.24.22,0,0,0,0-0.23.23-0.21.24-0.27.32-0.17.23,0,0-0.07.09-0.15.24-0.15.25-0.2.37-0.14.3-0.06.14-0.08.21c-0.05.13-.1,0.27-0.14,0.41s0,0.13-.07.2l0,0.08c0,0.12-.06.23-0.09,0.35l0,0.15c0,0.08,0,.15,0,0.23s0,0.29-.06.44,0,0.2,0,.31,0,0.21,0,.31,0,0.08,0,.13,0,0.21,0,.31,0,0.2,0,.31,0,0.3,0,.44,0,0.15,0,.23l0,0.15c0,0.12,0,.24.07,0.35l0,0.08c0,0.07,0,.14.06,0.2s0.08,0.28.12,0.41l0.07,0.21,0.06,0.14,0.13,0.31c0.06,0.13.12,0.25,0.18,0.37l0.05,0.11-42,40.29-0.11-.06-0.36-.2-0.31-.14-0.14-.06-0.21-.08-0.41-.14-0.2-.07-0.08,0-0.35-.09-0.15,0-0.23,0-0.44-.06-0.31,0h-0.75l-0.31,0-0.44,0-0.23,0-0.15,0-0.35.07-0.08,0-0.2.06-0.41.12-0.21.07-0.14.06-0.31.13-0.38.18-0.26.14-0.25.14-0.09.06,0,0-0.24.16-0.34.25-0.14.1-0.11.1-0.24.22,0,0,0,0-0.22.23-0.22.24-0.26.32-0.17.24,0,0-0.07.09-0.15.24,0,0.05-55.87-16.19a7.47,7.47,0,1,0-1.11,3.82l55.88,16.19h0c0,0.1,0,.21,0,0.31s0,0.21,0,.31,0,0.29,0,.44,0,0.16,0,.23l0,0.15c0,0.12,0,.24.07,0.35l0,0.08c0,0.07,0,.14.06,0.21s0,0.2.08,0.29l0,0.12,0.07,0.21,0.06,0.14,0.13,0.31c0.06,0.13.12,0.25,0.18,0.37l0.14,0.26,0.14,0.24,0.06,0.09,0,0,0.16,0.24,0.25,0.33,0.2,0.25,0.22,0.24,0,0,0,0,0.23,0.23,0.24,0.21,0.32,0.26,0.23,0.17,0,0,0.09,0.07,0.24,0.15,0.26,0.15,0.37,0.2,0.3,0.14,0.14,0.07,0.21,0.08,0.4,0.14,0.21,0.07,0.08,0,0.35,0.08,0.15,0,0.23,0,0.43,0.06,0.31,0h0.32l13.92,56.48-0.05,0-0.24.14-0.09.06,0,0-0.25.17-0.33.25-0.25.21-0.24.22,0,0,0,0-0.23.23-0.21.24-0.27.32-0.17.23,0,0-0.07.09-0.15.24-0.15.25-0.2.37-0.14.3-0.06.14-0.08.21c-0.05.13-.1,0.27-0.14,0.41s-0.05.13-.07,0.2l0,0.08c0,0.12-.06.23-0.09,0.35l0,0.15c0,0.08,0,.15,0,0.23s0,0.29-.06.44,0,0.2,0,.31,0,0.21,0,.31,0,0.08,0,.13,0,0.21,0,.31,0,0.2,0,.31,0,0.3,0,.44,0,0.15,0,.23l0,0.15c0,0.12,0,.24.07,0.35l0,0.08c0,0.07,0,.14.06,0.2s0.08,0.28.12,0.41l0.07,0.21,0.06,0.14,0.08,0.2,0.05,0.11c0.06,0.13.12,0.25,0.18,0.37l0.06,0.11-42,40.29a7.51,7.51,0,0,0-.78-0.4l-0.19-.08a7.45,7.45,0,0,0-1.2-.38l-0.15,0a7.41,7.41,0,0,0-1.28-.15h-0.14a7.42,7.42,0,0,0-1.28.1l-0.18,0-0.4.08a7.52,7.52,0,0,0-.83.26l-0.15.06a7.44,7.44,0,0,0-1.18.59l-0.09.06a7.42,7.42,0,0,0-1.1.86l0,0,0,0.06a7.49,7.49,0,0,0-.88,1l-0.11.16a7.51,7.51,0,0,0-.61,1.1l-0.08.19a7.43,7.43,0,0,0-.38,1.2l0,0.16a7.39,7.39,0,0,0-.15,1.28s0,0.1,0,.14a7.43,7.43,0,0,0,.1,1.27c0,0.06,0,.12,0,0.18s0,0.27.08,0.4a7.54,7.54,0,0,0,.26.83l0.06,0.15a7.42,7.42,0,0,0,.59,1.18l0.06,0.09a7.42,7.42,0,0,0,.86,1.1l0,0,0.06,0.05a7.48,7.48,0,0,0,1,.87l0.17,0.11a7.49,7.49,0,0,0,1.1.61l0.19,0.08a7.47,7.47,0,0,0,1.2.38l0.16,0a7.4,7.4,0,0,0,1.27.15h0l13.92,56.48-0.05,0-0.24.14-0.09.06,0,0-0.25.17-0.33.25-0.25.21-0.24.22,0,0,0,0-0.23.23-0.21.24-0.27.32-0.17.23,0,0-0.07.09-0.15.24-0.15.25c-0.07.12-.14,0.24-0.2,0.37l-0.14.3-0.06.14-0.08.21c-0.05.13-.1,0.27-0.14,0.41s-0.05.13-.07,0.2l0,0.08c0,0.12-.06.23-0.09,0.35l0,0.15c0,0.08,0,.15,0,0.23s0,0.29-.06.44,0,0.2,0,.31,0,0.21,0,.31,0,0.08,0,.13,0,0.21,0,.31,0,0.2,0,.31,0,0.3,0,.44,0,0.15,0,.23l0,0.15c0,0.12,0,.24.07,0.35l0,0.08c0,0.07,0,.14.06,0.2s0.08,0.28.12,0.41l0.07,0.21,0.06,0.14,0.13,0.31c0.06,0.13.12,0.25,0.18,0.37l0.06,0.11-42,40.29-0.11-.06-0.36-.2-0.31-.14-0.14-.06-0.2-.08-0.41-.14-0.2-.07-0.08,0-0.35-.09-0.15,0-0.23,0-0.44-.06-0.3,0h-0.75l-0.31,0-0.44,0-0.23,0-0.15,0-0.35.07-0.08,0-0.21.06-0.41.12-0.21.07-0.14.06-0.31.13-0.38.18-0.26.14-0.25.14-0.09.06,0,0-0.24.16-0.34.25-0.24.2-0.24.22,0,0,0,0-0.22.23-0.22.24-0.26.32-0.17.24,0,0-0.07.09-0.15.24,0,0.05-55.87-16.19h0c0-.1,0-0.21,0-0.31s0-.21,0-0.31,0-.29,0-0.44,0-.15,0-0.23l0-.15c0-.12,0-0.24-0.07-0.35l0-.08c0-.07,0-0.14-0.06-0.21s-0.08-.28-0.12-0.41l-0.07-.21-0.06-.14-0.13-.31c-0.06-.13-0.12-0.25-0.18-0.37l-0.14-.26-0.14-.24-0.06-.09,0,0-0.16-.24-0.25-.33-0.2-.25-0.22-.24,0,0,0,0-0.23-.23-0.24-.21-0.32-.26-0.23-.17,0,0-0.09-.07-0.24-.15-0.26-.15-0.37-.2-0.3-.14-0.14-.07-0.21-.08-0.41-.14-0.2-.07-0.08,0-0.35-.08-0.15,0-0.23,0-0.43-.06-0.31,0h-0.32L2210,974.82l0.05,0,0.36-.22,0.25-.17,0.33-.25,0.25-.21,0.27-.25,0.27-.27,0.21-.24,0.27-.33,0.17-.23,0.25-.37,0.15-.25,0.2-.37,0.15-.31c0-.11.1-0.22,0.14-0.34s0.1-.27.14-0.4,0.05-.14.07-0.21l0-.08c0-.15.08-0.3,0.11-0.46s0-.18.06-0.27,0-.29.06-0.43,0-.21,0-0.31,0-.25,0-0.37,0-.25,0-0.38,0-.2,0-0.3,0-.3,0-0.45,0-.18,0-0.26-0.05-.32-0.09-0.47l0-.08c0-.07,0-0.13-0.06-0.2s-0.08-.28-0.13-0.42-0.08-.22-0.13-0.34l-0.14-.33c-0.06-.13-0.12-0.25-0.18-0.37l-0.14-.26-0.23-.37-0.16-.24-0.25-.33-0.2-.25-0.25-.28-0.26-.26-0.24-.22-0.32-.26-0.24-.17-0.36-.24-0.26-.15-0.36-.2-0.32-.15-0.33-.14-0.41-.14-0.2-.07-0.08,0-0.47-.11-0.26-.06-0.44-.06-0.3,0h-0.75l-0.31,0-0.44,0-0.27,0-0.46.09-0.08,0-0.21.06-0.41.12-0.34.13-0.32.13-0.37.18-0.26.14-0.37.23-0.24.16-0.34.25-0.24.2-0.28.26-0.26.26-0.22.24-0.26.32-0.18.24-0.24.36,0,0.05-55.87-16.19h0c0-.1,0-0.21,0-0.31s0-.21,0-0.31,0-.29,0-0.44,0-.15,0-0.23l0-.15c0-.12,0-0.24-0.07-0.35l0-.08c0-.07,0-0.14-0.06-0.21s0-.2-0.08-0.3l0-.12-0.07-.21-0.06-.14-0.13-.31c-0.06-.13-0.12-0.25-0.18-0.37l-0.08-.16-0.06-.1-0.14-.24-0.06-.09,0,0-0.16-.24-0.25-.33-0.21-.25-0.22-.24,0,0,0,0-0.23-.23-0.24-.22-0.32-.26L2141,942l0,0-0.09-.07-0.24-.15-0.26-.15-0.37-.2-0.3-.14-0.14-.07-0.2-.08-0.41-.14-0.2-.07-0.08,0-0.35-.09-0.15,0-0.23,0-0.44-.06-0.31,0h-0.32l-13.92-56.48,0.05,0,0.24-.14,0.09-.06,0,0,0.25-.16,0.33-.25,0.25-.21,0.24-.22,0,0,0,0,0.23-.23,0.21-.24,0.27-.33,0.17-.23,0,0,0.06-.09,0.15-.24,0.15-.25,0.2-.37,0.14-.3,0.06-.14,0.08-.21c0.05-.13.1-0.27,0.14-0.4s0.05-.14.07-0.21l0-.08c0-.12.06-0.23,0.09-0.35l0-.15c0-.08,0-0.15,0-0.23s0-.29.06-0.43,0-.21,0-0.31,0-.21,0-0.31,0-.09,0-0.13,0-.21,0-0.31,0-.2,0-0.3,0-.3,0-0.45,0-.15,0-0.23l0-.15c0-.12,0-0.24-0.07-0.36l0-.08c0-.07,0-0.13-0.06-0.2s-0.08-.28-0.13-0.42l-0.07-.21-0.06-.14-0.13-.31c-0.06-.13-0.12-0.25-0.18-0.37l-0.06-.11,42-40.29a7.52,7.52,0,0,0,.78.4l0.19,0.08a7.46,7.46,0,0,0,1.2.38l0.16,0a7.4,7.4,0,0,0,1.28.15h0.14a7.42,7.42,0,0,0,1.28-.1l0.18,0,0.4-.08a7.51,7.51,0,0,0,.83-0.26l0.15-.06a7.4,7.4,0,0,0,1.19-.59l0.09-.06a7.43,7.43,0,0,0,1.1-.86l0,0,0-.06a7.47,7.47,0,0,0,.88-1l0.11-.16a7.49,7.49,0,0,0,.61-1.1l0.08-.19a7.47,7.47,0,0,0,.38-1.2l0-.16a7.41,7.41,0,0,0,.15-1.27s0-.1,0-0.15a7.44,7.44,0,0,0-.1-1.27c0-.06,0-0.12,0-0.18s0-.27-0.08-0.4a7.47,7.47,0,0,0-.26-0.83l-0.06-.15a7.43,7.43,0,0,0-.59-1.18l-0.06-.09a7.41,7.41,0,0,0-.86-1.1l0,0-0.06-.05a7.47,7.47,0,0,0-1-.87l-0.17-.11a7.5,7.5,0,0,0-1.1-.61l-0.19-.08a7.47,7.47,0,0,0-1.2-.38l-0.16,0a7.41,7.41,0,0,0-1.27-.15h0l-13.92-56.48,0.05,0,0.37-.22,0.25-.16,0.33-.25,0.25-.21,0.27-.25,0.27-.27,0.21-.24,0.27-.33,0.17-.23,0.24-.36,0.15-.25,0.2-.37,0.06-.11,0.09-.21c0-.11.1-0.22,0.14-0.34s0.1-.27.14-0.41,0.05-.13.07-0.2l0-.08c0-.15.08-0.31,0.11-0.46s0-.18.06-0.27,0-.29.06-0.44,0-.2,0-0.31,0-.25,0-0.37,0-.25,0-0.38,0-.2,0-0.31,0-.3,0-0.44,0-.18,0-0.27,0-.24-0.06-0.35l0-.11,0-.08c0-.07,0-0.14-0.06-0.2s-0.08-.28-0.12-0.42-0.08-.23-0.13-0.34-0.05-.15-0.08-0.22l-0.05-.11c-0.06-.13-0.12-0.25-0.18-0.37l-0.08-.16-0.06-.1-0.23-.37-0.16-.24-0.25-.33-0.21-.25-0.25-.27-0.14-.15-0.13-.11-0.24-.22-0.32-.26-0.1-.08-0.14-.09-0.36-.24-0.26-.15-0.36-.2-0.32-.15L2157,750l-0.41-.14-0.2-.07-0.08,0-0.47-.11-0.26-.06-0.44-.06-0.3,0h-0.75l-0.31,0-0.44,0-0.27,0-0.46.09-0.08,0-0.21.06-0.41.12-0.34.13-0.32.13-0.37.18-0.26.14-0.37.23-0.24.16-0.33.25-0.25.2-0.28.25-0.26.26-0.22.24-0.26.32-0.18.24L2148,753l0,0.05L2092,736.84h0c0-.1,0-0.21,0-0.31s0-.21,0-0.31,0-.29,0-0.44,0-.16,0-0.23l0-.15c0-.12,0-0.24-0.07-0.35l0-.08c0-.07,0-0.14-0.06-0.21s0-.2-0.08-0.29l0-.12-0.07-.21-0.06-.14-0.13-.31c-0.06-.13-0.12-0.25-0.18-0.37l-0.08-.16-0.06-.1-0.14-.24-0.06-.09,0,0-0.16-.24-0.25-.33-0.21-.25-0.22-.24,0,0,0,0-0.23-.23-0.24-.22-0.32-.26-0.23-.17,0,0-0.09-.07-0.24-.15-0.26-.15-0.37-.2-0.3-.14-0.14-.07-0.2-.08-0.41-.14-0.2-.07-0.08,0-0.35-.09-0.15,0-0.23,0-0.44-.06-0.31,0h-0.32l-13.92-56.48,0.05,0,0.36-.22,0.25-.17,0.33-.25,0.25-.21,0.27-.25,0.27-.27,0.21-.24,0.27-.33,0.17-.23,0.24-.36,0.15-.25,0.2-.37,0.15-.31c0-.11.1-0.22,0.14-0.34s0.1-.27.14-0.4,0.05-.14.07-0.21l0-.08c0-.15.08-0.3,0.11-0.46s0-.18.06-0.27,0-.29.06-0.43,0-.21,0-0.31,0-.25,0-0.37,0-.25,0-0.38,0-.2,0-0.3,0-.3,0-0.45,0-.18,0-0.26-0.05-.32-0.09-0.47l0-.08c0-.07,0-0.13-0.06-0.2s-0.08-.28-0.13-0.42-0.08-.22-0.13-0.34l-0.14-.33c-0.06-.13-0.12-0.25-0.18-0.37l-0.14-.26-0.23-.37-0.16-.24-0.25-.33-0.2-.25-0.25-.28-0.26-.26-0.24-.22-0.32-.26-0.24-.17-0.36-.24-0.26-.15-0.36-.2-0.32-.15-0.33-.14-0.41-.14-0.2-.07-0.08,0-0.47-.11-0.26-.05-0.44-.06-0.3,0H2067l-0.31,0-0.44,0-0.27,0-0.46.09-0.08,0-0.21.06-0.41.12-0.34.13-0.32.13-0.38.18-0.26.14-0.37.23-0.24.16-0.33.25-0.24.2-0.28.26-0.26.26-0.22.24-0.26.32-0.18.24-0.24.36,0,0.05L2005,646.2h0c0-.1,0-0.21,0-0.31s0-.21,0-0.31,0-.29,0-0.44,0-.16,0-0.23l0-.15c0-.12,0-0.24-0.07-0.35l0-.08c0-.07,0-0.14-0.06-0.21s-0.08-.28-0.12-0.41l-0.07-.21-0.06-.14-0.13-.31c-0.06-.13-0.12-0.25-0.18-0.37l-0.14-.26-0.14-.24-0.06-.09,0,0-0.16-.24-0.25-.33-0.2-.25-0.22-.24,0,0,0,0-0.23-.23-0.1-.1-0.14-.11-0.32-.26-0.23-.17,0,0-0.09-.07-0.24-.15-0.1-.07-0.16-.09-0.37-.2-0.11-.06-0.2-.08-0.14-.07-0.21-.08-0.41-.14-0.2-.07-0.08,0-0.11,0-0.24,0-0.15,0-0.23,0-0.09,0-0.34,0-0.31,0h-0.32l-13.92-56.48,0.05,0,0.24-.14,0.09-.06,0,0,0.25-.17,0.33-.25,0.25-.21,0.24-.22,0,0,0,0,0.23-.23,0.21-.24,0.27-.33,0.17-.23,0,0,0.06-.09,0.15-.24,0.15-.25,0.2-.37,0.14-.3,0.06-.14,0.08-.21c0.05-.13.1-0.27,0.14-0.4s0.05-.14.07-0.21l0-.08c0-.12.06-0.23,0.09-0.35l0-.15c0-.08,0-0.16,0-0.23s0-.29.06-0.43,0-.21,0-0.31,0-.21,0-0.31,0-.08,0-0.13,0-.21,0-0.31,0-.2,0-0.3,0-.3,0-0.45,0-.15,0-0.23l0-.15c0-.12,0-0.24-0.07-0.36l0-.08c0-.07,0-0.13-0.06-0.2s-0.08-.28-0.13-0.42l-0.07-.21-0.06-.14-0.13-.31c-0.06-.13-0.12-0.25-0.18-0.37l-0.06-.11,42-40.29,0.11,0.06,0.36,0.2,0.31,0.14,0.14,0.06,0.2,0.08,0.41,0.14,0.2,0.07,0.08,0,0.35,0.09,0.15,0,0.23,0,0.44,0.06,0.3,0h0.75l0.31,0,0.44,0,0.23,0,0.15,0,0.35-.07,0.08,0,0.21-.06,0.41-.12,0.21-.07,0.14-.06,0.31-.13L2036,532l0.26-.14,0.24-.14,0.09-.06,0,0,0.24-.16,0.33-.25,0.25-.2,0.24-.22,0,0,0,0,0.23-.23,0.22-.24,0.26-.32,0.17-.24,0,0,0.07-.09,0.15-.24,0-.05,55.87,16.19h0c0,0.1,0,.21,0,0.31s0,0.21,0,.31,0,0.29,0,.44,0,0.16,0,.23l0,0.15c0,0.12,0,.24.07,0.35l0,0.08c0,0.07,0,.14.06,0.21s0.08,0.28.12,0.41l0.07,0.21,0.06,0.14,0.13,0.31c0.06,0.13.12,0.25,0.18,0.37l0.14,0.26,0.14,0.24,0.06,0.09,0,0,0.16,0.24,0.25,0.33,0.21,0.25,0.11,0.13,0.11,0.11,0,0,0,0,0.23,0.23,0.24,0.22,0.32,0.26,0.1,0.08,0.14,0.09,0,0,0.09,0.07,0.24,0.15,0.26,0.15,0.37,0.2,0.11,0.06,0.2,0.08,0.14,0.07,0.2,0.08,0.41,0.14,0.2,0.07,0.08,0,0.35,0.09,0.15,0,0.23,0,0.44,0.06,0.31,0H2102l13.92,56.49a7.47,7.47,0,1,0,3.86-1l-13.92-56.48,0.05,0,0.24-.14,0.09-.06,0,0,0.25-.17,0.15-.1,0.18-.15,0.25-.21,0.24-.22,0,0,0,0,0.23-.23,0.21-.24,0.27-.33,0.17-.23,0,0,0.06-.09,0.15-.24,0.06-.1,0.08-.16,0.2-.37,0.14-.3,0.06-.14,0.08-.21c0.05-.13.1-0.27,0.14-0.4s0.05-.14.07-0.21l0-.08c0-.12.06-0.23,0.09-0.35l0-.15c0-.08,0-0.15,0-0.23s0-.29.06-0.43,0-.21,0-0.31,0-.21,0-0.31,0-.08,0-0.13,0-.21,0-0.31,0-.2,0-0.3,0-.3,0-0.45,0-.15,0-0.23l0-.15c0-.12,0-0.24-0.07-0.36l0-.08c0-.07,0-0.13-0.06-0.2s-0.08-.28-0.13-0.42l-0.07-.21-0.06-.14-0.13-.31c-0.06-.13-0.12-0.25-0.18-0.37l-0.06-.11,42-40.29,0.11,0.06,0.36,0.2,0.31,0.14,0.14,0.06,0.2,0.08,0.41,0.14,0.2,0.07,0.08,0,0.35,0.09,0.15,0,0.23,0,0.44,0.06,0.3,0h0.75l0.31,0,0.44,0,0.23,0,0.15,0,0.35-.07,0.08,0,0.21-.06,0.41-.12,0.21-.07,0.14-.06,0.31-.13,0.38-.18,0.26-.14,0.16-.09,0.08-.06,0.09-.06,0,0,0.24-.16,0.34-.25,0.24-.2,0.24-.22,0,0,0,0,0.22-.23,0.11-.11,0.11-.14,0.26-.32,0.08-.1,0.09-.14,0,0,0.07-.09,0.15-.24,0-.05,55.87,16.19h0c0,0.1,0,.21,0,0.31s0,0.21,0,.31,0,0.29,0,.44,0,0.15,0,.23l0,0.15c0,0.12,0,.24.07,0.35l0,0.08c0,0.07,0,.14.06,0.21s0.08,0.28.12,0.41l0.07,0.21,0,0.06,0,0.09,0.13,0.31c0.06,0.13.12,0.25,0.18,0.37l0.14,0.26,0.14,0.24,0.06,0.09,0,0,0.16,0.24,0.25,0.33,0.21,0.25,0.22,0.24,0,0,0,0,0.23,0.23,0.24,0.21,0.32,0.26,0.23,0.17,0,0,0.09,0.07,0.24,0.15,0.25,0.15,0.37,0.2,0.3,0.14,0.14,0.07,0.21,0.08,0.4,0.14,0.21,0.07,0.08,0,0.35,0.08,0.15,0,0.23,0,0.43,0.06,0.31,0H2224l13.92,56.48-0.05,0-0.37.23-0.24.16-0.33.25-0.25.21-0.27.25-0.26.27-0.21.24-0.27.32-0.17.23-0.24.36-0.15.25-0.2.37-0.15.31c0,0.11-.1.22-0.14,0.34s-0.1.27-.14,0.41-0.05.13-.07,0.2l0,0.08c0,0.15-.08.31-0.11,0.46s0,0.18-.06.27,0,0.29-.06.44,0,0.2,0,.31,0,0.25,0,.37,0,0.25,0,.38,0,0.2,0,.31,0,0.3,0,.44,0,0.18,0,.27,0.05,0.31.09,0.47l0,0.08c0,0.07,0,.14.06,0.2s0.08,0.28.12,0.41,0.08,0.23.13,0.34l0.13,0.32c0.06,0.13.12,0.25,0.18,0.37l0.14,0.26,0.23,0.37,0.16,0.24,0.1,0.16,0.15,0.18,0.2,0.25,0.25,0.28,0.26,0.26,0.11,0.11,0.14,0.11,0.32,0.26,0.1,0.08,0.14,0.09,0.36,0.24,0.26,0.15,0.36,0.2,0.32,0.15,0.33,0.14,0.12,0,0.29,0.09,0.2,0.07,0.08,0,0.47,0.11,0.26,0.05,0.44,0.06,0.3,0h0.75l0.31,0,0.44,0,0.27,0,0.46-.09,0.08,0,0.21-.06L2244,593l0.34-.13,0.32-.13,0.38-.18,0.26-.14,0.37-.23,0.14-.09,0.1-.08,0.33-.25,0.25-.2,0.28-.25,0.26-.26,0.22-.24,0.26-.32,0.18-.24,0.24-.36,0-.05,55.87,16.19c0,0.11,0,.21,0,0.32s0,0.21,0,.31,0,0.29,0,.44,0,0.18,0,.27,0.05,0.31.09,0.46l0,0.08c0,0.07,0,.14.06,0.21s0.08,0.28.12,0.41,0.08,0.23.13,0.34l0.13,0.32c0.06,0.13.12,0.25,0.18,0.37l0.14,0.26,0.23,0.37,0.16,0.24,0.25,0.33,0.21,0.25,0.25,0.27,0.26,0.26,0.24,0.21,0.32,0.26,0.23,0.17,0.36,0.24,0.26,0.15,0.37,0.2,0.32,0.15,0.34,0.14,0.41,0.14,0.2,0.07,0.08,0,0.46,0.11,0.27,0.06,0.43,0.06,0.31,0h0.32L2325,670.11l-0.05,0-0.24.14-0.09.06,0,0-0.25.17-0.33.25-0.25.21-0.24.22,0,0,0,0-0.23.23-0.21.24-0.27.33-0.17.23,0,0-0.06.09-0.15.24-0.15.25-0.2.37-0.14.3-0.06.14-0.08.21c-0.05.13-.1,0.27-0.14,0.4s-0.05.14-.07,0.21l0,0.08c0,0.12-.06.23-0.09,0.35l0,0.07s0,0,0,.07,0,0.15,0,.23,0,0.29-.06.43,0,0.21,0,.31,0,0.21,0,.31,0,0.09,0,.13,0,0.21,0,.31,0,0.2,0,.3,0,0.3,0,.45,0,0.15,0,.23l0,0.15c0,0.12,0,.24.07,0.36l0,0.08c0,0.07,0,.13.06,0.2s0.08,0.28.13,0.42l0.07,0.21,0.06,0.14,0.13,0.31c0.06,0.13.12,0.25,0.18,0.37l0.06,0.11-42,40.31a7.47,7.47,0,1,0,2.75,2.87l42-40.31,0.11,0.06,0.36,0.2,0.31,0.14,0.14,0.06,0.2,0.08,0.41,0.14,0.2,0.07,0.08,0,0.35,0.09,0.15,0,0.17,0h0.06l0.44,0.06,0.3,0h0.75l0.31,0,0.44,0,0.23,0,0.15,0,0.35-.07,0.08,0,0.21-.06,0.29-.08,0.12,0,0.21-.07,0.14-.06,0.2-.08,0.11-.05,0.37-.18,0.26-.14,0.24-.14,0.09-.06,0,0,0.14-.09,0.1-.08,0.34-.25,0.24-.2,0.24-.22,0,0,0,0,0.22-.23,0.22-.24,0.26-.32,0.17-.24,0,0,0.07-.09,0.15-.24,0-.05,55.87,16.19h0c0,0.1,0,.21,0,0.31s0,0,0,.07,0,0.16,0,.24,0,0.29,0,.44,0,0,0,.07,0,0.11,0,.17l0,0.15c0,0.12,0,.24.07,0.35l0,0.08c0,0.07,0,.14.06,0.21s0.08,0.28.12,0.41l0.07,0.21,0.06,0.14,0.13,0.31c0.06,0.13.12,0.25,0.18,0.37l0.14,0.26,0.14,0.24,0.06,0.09,0,0,0.16,0.24,0.25,0.33,0.21,0.25,0.22,0.24,0,0,0,0,0.23,0.23,0.24,0.21,0.32,0.26,0.23,0.17,0,0,0.09,0.07,0.24,0.15,0.25,0.15,0.37,0.2,0.3,0.14,0.14,0.07,0.21,0.08,0.4,0.14,0.21,0.07,0.08,0,0.35,0.08,0.15,0,0.23,0,0.43,0.06,0.31,0h0.32L2412,760.76Zm122-30.06-0.24.14-0.09.06,0,0-0.25.17-0.33.25-0.25.21-0.24.22,0,0,0,0-0.23.23-0.21.24-0.27.33-0.17.23,0,0-0.06.09-0.15.24-0.15.25-0.2.37-0.14.3-0.06.14-0.08.21c-0.05.13-.1,0.27-0.14,0.4s-0.05.13-.07,0.21l0,0.08c0,0.12-.06.23-0.09,0.35l0,0.15c0,0.08,0,.15,0,0.23s0,0.29-.06.43,0,0.21,0,.31,0,0.21,0,.31,0,0.09,0,.13,0,0.21,0,.31,0,0.2,0,.3,0,0.3,0,.45,0,0.15,0,.23l0,0.15c0,0.12,0,.24.07,0.36l0,0.08c0,0.07,0,.13.06,0.2s0.08,0.28.13,0.42l0.07,0.21,0.06,0.14,0.13,0.31c0.06,0.13.12,0.25,0.18,0.37l0.06,0.11-42,40.29a7.4,7.4,0,0,0-.77-0.4l-0.14-.07a7.51,7.51,0,0,0-.82-0.29l-0.4-.09-0.18,0a7.43,7.43,0,0,0-1.27-.15h-0.14a7.42,7.42,0,0,0-1.28.1l-0.16,0a7.46,7.46,0,0,0-1.21.33l-0.19.07a7.5,7.5,0,0,0-1.12.56l-0.17.1a7.47,7.47,0,0,0-1.06.83l-0.06,0,0,0a7.42,7.42,0,0,0-.9,1.06l-0.07.09-0.18.29-55.88-16.19h0c0-.1,0-0.21,0-0.31s0-.21,0-0.31,0-.29,0-0.44,0-.15,0-0.23l0-.15c0-.12,0-0.24-0.07-0.35l0-.08c0-.07,0-0.14-0.06-0.21s-0.08-.28-0.12-0.41l-0.07-.21-0.06-.14-0.13-.31c-0.06-.13-0.12-0.25-0.18-0.37l-0.14-.26-0.14-.24-0.06-.09,0,0-0.16-.24-0.25-.33-0.21-.25-0.22-.24,0,0,0,0-0.23-.23-0.24-.21-0.32-.26-0.23-.17,0,0-0.09-.07-0.24-.15-0.25-.15-0.37-.2-0.3-.14-0.14-.06-0.21-.08-0.4-.14-0.2-.07-0.08,0-0.35-.08-0.15,0-0.23,0-0.43-.06-0.31,0h-0.32L2402,703.33l0.05,0,0.24-.14,0.09-.06,0,0,0.25-.17,0.33-.25,0.25-.21,0.24-.22,0,0,0,0,0.23-.23,0.21-.24,0.27-.33,0.17-.23,0,0,0.06-.09,0.15-.24,0.15-.25,0.2-.37,0.14-.3,0.06-.14,0.08-.21c0.05-.13.1-0.27,0.14-0.41s0.05-.13.07-0.2l0-.08c0-.12.06-0.23,0.09-0.35l0-.15c0-.08,0-0.15,0-0.23s0-.29.06-0.44,0-.2,0-0.31,0-.21,0-0.31,0-.08,0-0.13,0-.21,0-0.31,0-.2,0-0.3,0-.3,0-0.44,0-.15,0-0.23l0-.15c0-.12,0-0.24-0.07-0.35l0-.08c0-.07,0-0.14-0.06-0.2s-0.08-.28-0.12-0.42l-0.07-.21-0.06-.14-0.13-.31c-0.06-.13-0.12-0.25-0.18-0.37l-0.05-.11,42-40.29L2447,653l0.36,0.2,0.31,0.14,0.14,0.06,0.2,0.08,0.41,0.14,0.2,0.07,0.08,0,0.35,0.09,0.15,0,0.23,0,0.44,0.06,0.3,0h0.75l0.31,0,0.44,0,0.23,0,0.15,0,0.35-.07,0.08,0,0.21-.06,0.41-.12,0.21-.07,0.06,0,0.09,0,0.31-.13,0.38-.18,0.26-.14,0.25-.14,0.09-.06,0,0,0.24-.16,0.34-.25,0.24-.2,0.24-.22,0,0,0,0,0.22-.23,0.22-.24,0.26-.32,0.18-.24,0,0,0.07-.09,0.15-.23,0-.05,55.87,16.19h0c0,0.1,0,.21,0,0.31s0,0.21,0,.31,0,0.29,0,.44,0,0.15,0,.23l0,0.15c0,0.12,0,.24.07,0.35l0,0.08c0,0.07,0,.14.06,0.21s0.08,0.28.12,0.41l0.07,0.21,0.06,0.15,0.13,0.31c0.06,0.13.12,0.25,0.18,0.37l0.14,0.26,0.14,0.24,0.06,0.09,0,0,0.16,0.24,0.25,0.33,0.21,0.25,0.22,0.24,0,0,0,0,0.23,0.23,0.24,0.21,0.32,0.26,0.23,0.17,0,0,0.09,0.07,0.24,0.15,0.26,0.15,0.37,0.2,0.3,0.14,0.14,0.07,0.2,0.08,0.41,0.14,0.2,0.07,0.08,0,0.35,0.08,0.15,0,0.23,0,0.43,0.06,0.31,0h0.32l13.92,56.48Z" transform="translate(-1978.03 -311.72)" style="fill:url(#Безымянный_градиент_10-2)"></path> </svg> 