<?xml version="1.0" encoding="UTF-8"?>
<svg xmlns="http://www.w3.org/2000/svg" height="512px" viewBox="0 0 64 64" width="512px" class=""> <g> <g id="Layer_15" data-name="Layer 15"> <path d="m32 1a31 31 0 1 0 31 31 31 31 0 0 0 -31-31zm0 60a29 29 0 1 1 29-29 29 29 0 0 1 -29 29z" data-original="#000000" class="active-path" data-old_color="#000000" fill="#FFFFFF"/> <path d="m49.82 12.14a1 1 0 0 0 -.35-.72 27 27 0 0 0 -38 38.05 1 1 0 0 0 .72.35 1 1 0 0 0 .71-.29l36.63-36.64a1 1 0 0 0 .29-.75zm-27.82 19.86a9.94 9.94 0 0 1 2.26-6.32l3 3 1.42-1.42-3-3a10 10 0 0 1 10.83-1.18l-13.43 13.43a9.86 9.86 0 0 1 -1.08-4.51zm10-17a2 2 0 1 1 2-2 2 2 0 0 1 -2 2zm6 6.6a12 12 0 0 0 -5-1.6v-3.14a4 4 0 1 0 -2 0v3.19a11.9 11.9 0 0 0 -6.74 2.8l-.83-.85a4.05 4.05 0 1 0 -1.43 1.43l.83.83a11.9 11.9 0 0 0 -2.78 6.74h-3.19a4 4 0 1 0 0 2h3.14a12 12 0 0 0 1.56 5l-9.34 9.35a25 25 0 0 1 35.11-35.09zm-18 .4a2 2 0 1 1 2-2 2 2 0 0 1 -2 2zm-5 10a2 2 0 1 1 -2-2 2 2 0 0 1 2 2z" data-original="#000000" class="active-path" data-old_color="#000000" fill="#FFFFFF"/> <path d="m52.58 14.53a1 1 0 0 0 -.72-.35 1 1 0 0 0 -.75.29l-36.64 36.64a1 1 0 0 0 -.29.75 1 1 0 0 0 .35.72 27 27 0 0 0 38.05-38zm-10.58 17.47a9.94 9.94 0 0 1 -2.26 6.32l-3-3-1.42 1.42 3 3a9.91 9.91 0 0 1 -10.82 1.17l13.41-13.41a10 10 0 0 1 1.09 4.5zm-10 17a2 2 0 1 1 -2 2 2 2 0 0 1 2-2zm0 8a25 25 0 0 1 -15.33-5.26l9.33-9.34a11.85 11.85 0 0 0 5 1.6v3.19a4 4 0 1 0 2 0v-3.19a11.9 11.9 0 0 0 6.74-2.8l.83.83a4.05 4.05 0 1 0 1.43-1.46l-.83-.83a11.9 11.9 0 0 0 2.83-6.74h3.19a4 4 0 1 0 0-2h-3.19a11.8 11.8 0 0 0 -1.55-5l9.34-9.35a25 25 0 0 1 -19.79 40.35zm12-15a2 2 0 1 1 -2 2 2 2 0 0 1 2-2zm5-10a2 2 0 1 1 2 2 2 2 0 0 1 -2-2z" data-original="#000000" class="active-path" data-old_color="#000000" fill="#FFFFFF"/> <path d="m10.59 22h2.83v2h-2.83z" transform="matrix(.707 -.707 .707 .707 -12.75 15.22)" data-original="#000000" class="active-path" data-old_color="#000000" fill="#FFFFFF"/> <path d="m24 12h2v3h-2z" data-original="#000000" class="active-path" data-old_color="#000000" fill="#FFFFFF"/> <path d="m38 13h3v2h-3z" data-original="#000000" class="active-path" data-old_color="#000000" fill="#FFFFFF"/> <path d="m13 38.59h2v2.83h-2z" transform="matrix(.707 -.707 .707 .707 -24.18 21.62)" data-original="#000000" class="active-path" data-old_color="#000000" fill="#FFFFFF"/> <path d="m22.59 48h2.83v2h-2.83z" transform="matrix(.707 -.707 .707 .707 -27.62 31.32)" data-original="#000000" class="active-path" data-old_color="#000000" fill="#FFFFFF"/> <path d="m39 49h3v2h-3z" data-original="#000000" class="active-path" data-old_color="#000000" fill="#FFFFFF"/> <path d="m49 38h2v3h-2z" data-original="#000000" class="active-path" data-old_color="#000000" fill="#FFFFFF"/> <path d="m48 23h3v2h-3z" data-original="#000000" class="active-path" data-old_color="#000000" fill="#FFFFFF"/> </g> </g> </svg>